<?xml version="1.0" standalone="no"?>
<!DOCTYPE svg PUBLIC "-//W3C//DTD SVG 20010904//EN"
 "http://www.w3.org/TR/2001/REC-SVG-20010904/DTD/svg10.dtd">
<svg version="1.0" xmlns="http://www.w3.org/2000/svg"
 width="184.000000pt" height="184.000000pt" viewBox="0 0 184.000000 184.000000"
 preserveAspectRatio="xMidYMid meet">

<g transform="translate(0.000000,184.000000) scale(0.100000,-0.100000)"
fill="#000000" stroke="none">
<path d="M0 1630 c0 -115 2 -210 5 -210 2 0 19 8 37 18 18 10 69 33 113 51
133 54 143 60 140 79 -1 10 -9 16 -21 14 -38 -6 -67 -2 -78 12 -14 18 -66 32
-66 18 0 -5 11 -13 25 -16 27 -7 32 -25 13 -44 -18 -18 -28 -15 -37 10 -5 14
-17 23 -31 23 -25 0 -30 11 -35 85 -1 25 -4 50 -5 55 -5 23 1 35 20 35 11 0
29 6 40 12 16 10 24 10 40 0 24 -15 60 3 60 29 0 16 19 29 41 29 5 0 14 -12
19 -26 12 -32 34 -27 38 9 l3 27 -160 0 -161 0 0 -210z"/>
<path d="M1340 1528 c-25 -5 -67 -10 -95 -12 -27 -2 -77 -12 -110 -22 -33 -9
-85 -20 -115 -25 -30 -4 -68 -10 -85 -14 -16 -3 -49 -6 -72 -7 -24 -1 -43 -5
-43 -10 0 -5 -6 -8 -12 -7 -19 3 -91 -11 -110 -22 -10 -5 -33 -9 -51 -9 -19 0
-59 -5 -88 -10 -30 -6 -65 -13 -79 -15 -14 -3 -56 -11 -94 -19 -47 -10 -75
-12 -88 -5 -14 7 -18 6 -18 -6 0 -17 -25 -21 -35 -5 -9 15 -25 12 -25 -5 0
-10 -10 -15 -29 -15 -16 0 -50 -9 -75 -19 -25 -11 -61 -23 -81 -27 l-35 -6 0
-634 0 -634 200 1 c198 1 200 1 199 22 0 21 -1 22 -10 2 -7 -16 -8 -14 -5 12
3 17 1 33 -5 35 -5 2 -16 21 -24 44 -13 37 -13 58 -2 109 2 11 2 14 0 7 -8
-23 -22 -12 -20 16 2 28 17 53 28 46 4 -2 12 17 18 42 7 26 16 42 22 39 6 -5
6 -12 -2 -22 -10 -12 -10 -16 1 -23 11 -7 10 -13 -4 -34 -9 -14 -12 -26 -7
-26 6 0 8 -7 5 -15 -4 -10 0 -13 15 -10 20 4 25 -4 22 -32 -1 -7 4 -13 12 -13
9 0 13 -9 12 -25 -2 -14 1 -25 6 -25 5 0 7 -27 4 -60 -3 -35 -1 -60 5 -60 13
0 25 51 13 59 -5 3 -7 16 -4 28 6 21 8 21 36 7 17 -8 36 -23 43 -35 12 -19 11
-19 -8 -9 -13 7 -20 7 -20 1 0 -6 -6 -8 -13 -6 -8 4 -13 -8 -15 -35 -2 -30 1
-40 13 -40 11 0 13 7 8 32 -4 22 -3 29 5 24 7 -4 12 -17 12 -30 0 -33 28 -28
35 6 6 24 9 27 21 17 11 -9 14 -8 15 7 0 11 2 37 5 59 2 22 5 51 7 65 1 14 6
28 11 32 6 4 5 13 -3 22 -7 8 -10 20 -6 26 3 5 1 10 -4 10 -6 0 -11 -5 -11
-12 0 -9 -3 -9 -11 -1 -9 9 -8 16 5 28 9 9 16 23 16 31 0 17 -27 30 -38 19 -4
-4 -1 -10 6 -12 19 -7 14 -19 -13 -31 -28 -13 -29 -12 -16 20 6 13 12 39 15
59 4 19 15 45 26 57 17 18 19 26 10 42 -15 27 -22 25 -14 -4 4 -18 1 -27 -15
-36 -19 -10 -21 -8 -21 17 0 23 2 25 11 13 8 -11 9 -7 5 17 -4 22 -2 32 6 30
6 -1 12 12 14 29 2 35 20 74 34 74 17 0 11 18 -7 22 -15 3 -15 5 2 21 10 11
14 22 9 25 -16 11 -14 53 2 69 18 19 18 51 -2 99 -12 29 -13 43 -5 56 6 10 11
24 11 32 0 11 28 23 72 30 3 1 10 4 14 9 4 4 17 7 29 7 11 0 26 5 33 12 17 17
15 -3 -3 -38 -8 -16 -15 -37 -15 -46 0 -10 -9 -27 -21 -39 -11 -11 -18 -24
-14 -27 3 -4 10 0 14 7 7 10 13 11 31 1 l23 -13 -29 -13 c-22 -11 -23 -12 -4
-6 23 6 74 7 144 0 16 -2 30 2 32 7 3 11 -60 55 -80 55 -8 0 -19 6 -25 14 -9
10 -8 16 4 26 8 7 15 8 15 3 0 -5 16 -10 35 -11 27 -2 41 3 59 23 13 14 27 25
32 25 4 0 18 9 30 21 l22 20 26 -24 c14 -13 26 -32 26 -41 0 -9 7 -16 15 -16
8 0 15 4 15 10 0 5 11 12 25 16 30 7 30 8 8 45 -10 16 -25 29 -35 29 -10 0
-22 8 -25 18 -4 9 -11 20 -17 24 -21 14 21 8 50 -7 41 -21 57 -20 44 4 -7 14
-7 22 2 27 6 4 14 2 16 -4 2 -7 15 -12 28 -12 32 0 24 13 -22 35 -34 16 -36
16 -50 -2 -13 -17 -15 -17 -25 0 -5 9 -15 14 -21 11 -7 -5 -8 -2 -3 5 5 9 10
10 18 2 15 -15 27 -14 27 4 0 10 10 15 27 15 26 0 26 1 7 15 -18 14 -18 14 0
15 10 0 24 7 30 16 10 14 14 14 41 0 17 -9 36 -16 43 -16 8 0 10 -5 6 -12 -5
-7 -2 -9 7 -6 8 3 24 -2 34 -11 37 -31 75 -104 43 -85 -8 5 -9 2 -3 -12 4 -10
10 -30 12 -44 3 -14 7 -32 10 -40 3 -8 7 -21 7 -29 1 -8 6 -16 13 -18 12 -4
12 28 -2 59 -3 9 -2 25 4 35 9 16 10 14 11 -10 0 -28 23 -60 50 -70 12 -4 12
-6 -1 -6 -9 -1 -19 -8 -23 -16 -3 -8 -12 -12 -21 -9 -10 4 -15 0 -15 -10 0 -9
4 -16 9 -16 5 0 15 -15 22 -32 7 -18 14 -36 17 -41 2 -4 -5 -4 -15 -1 -14 4
-13 1 6 -15 35 -31 51 -27 51 14 0 43 25 48 35 8 12 -51 34 -75 61 -69 17 5
24 3 23 -6 -11 -84 31 -89 194 -23 16 7 17 36 17 416 l0 409 -22 5 c-13 3 -56
1 -96 -3 -40 -5 -75 -5 -78 0 -7 11 -248 8 -304 -4z m-430 -157 c15 -28 12
-80 -4 -97 -22 -21 -34 -17 -28 11 3 18 0 25 -12 25 -9 0 -16 7 -16 15 0 9
-10 15 -26 15 -16 0 -24 5 -21 13 2 6 11 11 21 9 9 -2 16 2 16 7 0 5 10 12 23
14 12 2 25 5 29 6 4 0 12 -8 18 -18z m203 13 c42 -7 48 -20 14 -33 -13 -5 -29
-16 -35 -24 -19 -22 11 -36 55 -27 35 8 70 4 90 -12 7 -5 20 -7 31 -4 22 7 68
-29 64 -50 -2 -8 2 -14 9 -14 6 0 9 -6 6 -14 -3 -7 0 -19 6 -25 7 -7 7 -11 1
-11 -6 0 -21 11 -33 24 -26 27 -109 52 -157 48 -18 -2 -35 1 -39 7 -3 6 -20
11 -36 11 -40 0 -59 21 -59 63 0 68 7 73 83 61z m-153 -29 c0 6 11 11 25 11
23 2 25 -2 25 -36 0 -21 4 -49 9 -63 12 -32 -1 -52 -25 -39 -11 6 -32 8 -48 5
l-28 -6 7 54 c10 78 15 95 26 78 5 -8 9 -9 9 -4z m-166 -80 c48 -7 50 -8 42
-32 -5 -16 -17 -19 -74 -20 -42 0 -87 -8 -119 -21 -29 -11 -53 -16 -53 -12 0
5 13 11 29 15 19 4 28 12 27 23 -1 11 8 18 22 20 13 2 20 8 16 14 -5 7 1 9 15
5 16 -4 21 -2 17 8 -3 9 2 12 17 10 12 -2 40 -6 61 -10z m-4 -127 c-1 -31 -62
-70 -75 -48 -2 4 -17 5 -32 3 -27 -4 -27 -4 -9 11 17 14 17 16 4 16 -9 0 -20
-4 -23 -10 -8 -13 -25 -13 -25 0 0 5 16 12 35 16 19 3 33 9 31 13 -2 3 18 7
45 9 34 1 49 -2 49 -10z m740 -238 c13 -8 13 -10 -2 -10 -9 0 -20 5 -23 10 -8
13 5 13 25 0z m-1047 -415 c-3 -9 -8 -14 -10 -11 -3 3 -2 9 2 15 9 16 15 13 8
-4z m-62 -65 c5 0 8 -17 8 -37 -1 -22 -3 -29 -6 -18 -3 11 -9 24 -14 30 -5 5
-8 20 -8 35 1 16 3 19 6 8 2 -10 9 -18 14 -18z m94 16 c39 3 44 -5 17 -25 -13
-9 -18 -25 -17 -54 1 -23 -3 -57 -7 -75 -13 -47 -2 -52 16 -8 17 41 31 50 15
9 -7 -19 -6 -28 1 -33 16 -10 -22 -19 -54 -13 -25 5 -25 5 -6 22 28 22 34 112
9 118 -11 3 -15 12 -13 26 4 19 3 19 -6 -2 -7 -16 -7 -28 -1 -34 6 -6 5 -21
-4 -41 -7 -17 -16 -39 -19 -48 -6 -19 -26 -25 -26 -8 0 6 5 10 10 10 6 0 10
17 10 39 0 33 7 63 27 121 3 9 7 11 10 4 2 -6 19 -10 38 -8z m-261 -33 c-4
-16 -12 -45 -19 -65 -7 -21 -9 -42 -4 -50 5 -7 9 -20 8 -28 0 -9 -5 -5 -13 10
-14 25 -12 68 6 128 12 39 31 43 22 5z m306 -177 c0 -2 -7 -7 -16 -10 -8 -3
-12 -2 -9 4 6 10 25 14 25 6z m-34 -32 c8 3 14 1 14 -4 0 -6 -7 -10 -15 -10
-10 0 -15 -10 -15 -27 0 -26 -1 -27 -17 -9 -13 14 -15 20 -5 23 6 3 9 9 6 14
-3 6 -2 18 2 27 6 16 7 16 11 -1 3 -11 11 -16 19 -13z"/>
<path d="M1175 1270 c-4 -7 3 -8 22 -4 38 9 42 14 10 14 -14 0 -29 -5 -32 -10z"/>
<path d="M1400 825 c0 -8 2 -15 4 -15 2 0 11 -3 20 -6 23 -9 20 13 -4 26 -16
9 -20 8 -20 -5z"/>
<path d="M725 789 c-11 -17 1 -21 15 -4 8 9 8 15 2 15 -6 0 -14 -5 -17 -11z"/>
<path d="M1384 755 c-9 -29 -8 -40 7 -64 l18 -30 -29 4 c-37 4 -45 -8 -25 -38
8 -13 13 -31 10 -39 -3 -8 6 -27 20 -42 14 -15 25 -22 25 -15 0 8 4 8 15 -1
12 -10 15 -10 15 3 0 9 8 23 17 32 9 9 16 30 16 46 0 25 4 28 20 23 13 -4 17
-2 13 5 -5 7 2 11 19 11 15 0 24 4 20 10 -4 6 -12 7 -18 3 -8 -4 -8 -2 1 9 10
13 10 17 -4 22 -10 4 -20 3 -23 -2 -3 -4 -17 -8 -31 -7 -14 0 -29 -4 -33 -10
-5 -6 -7 -4 -4 5 4 15 7 16 47 19 29 2 25 18 -14 57 -44 44 -68 44 -82 -1z
m66 -15 c0 -5 -7 -10 -15 -10 -8 0 -15 5 -15 10 0 6 7 10 15 10 8 0 15 -4 15
-10z"/>
<path d="M808 692 c-22 -4 -22 -12 -3 -38 8 -10 15 -27 15 -36 0 -22 51 -62
60 -48 5 8 27 9 68 4 46 -5 68 -3 92 10 18 8 36 14 40 11 13 -8 60 43 60 66 0
19 -4 20 -32 15 -67 -14 -266 -8 -276 9 -4 6 -15 9 -24 7z"/>
<path d="M965 690 c3 -5 8 -10 11 -10 2 0 4 5 4 10 0 6 -5 10 -11 10 -5 0 -7
-4 -4 -10z"/>
<path d="M1786 664 c-5 -13 -9 -14 -21 -4 -20 17 -32 5 -15 -15 7 -8 10 -15 6
-15 -3 0 8 -22 24 -49 17 -26 30 -57 30 -68 0 -11 7 -26 15 -33 13 -11 15 0
15 94 0 105 0 106 -24 106 -13 0 -27 -7 -30 -16z"/>
<path d="M830 560 c0 -5 5 -10 10 -10 6 0 10 5 10 10 0 6 -4 10 -10 10 -5 0
-10 -4 -10 -10z"/>
<path d="M781 538 c-1 -16 4 -28 9 -28 12 0 12 8 0 35 -8 18 -9 17 -9 -7z"/>
<path d="M858 522 c-10 -2 -18 -8 -18 -14 0 -5 7 -8 15 -4 9 3 15 0 15 -9 0
-21 -21 -30 -32 -14 -7 10 -8 9 -3 -6 4 -11 11 -34 16 -52 6 -18 14 -35 19
-38 6 -4 10 -16 10 -29 0 -34 12 -40 27 -14 l14 23 -6 -23 c-8 -26 9 -26 39 1
11 9 25 16 30 15 18 -4 56 22 56 36 0 24 -34 56 -62 58 -29 2 -36 12 -18 23
15 10 2 25 -16 18 -9 -3 -27 3 -42 14 -15 10 -35 17 -44 15z m42 -47 c0 -8 -2
-15 -4 -15 -2 0 -6 7 -10 15 -3 8 -1 15 4 15 6 0 10 -7 10 -15z"/>
<path d="M1235 484 c9 -9 19 -13 23 -10 3 4 0 11 -8 16 -24 15 -33 11 -15 -6z"/>
<path d="M1103 456 c-9 -11 -8 -15 6 -19 14 -3 17 0 14 14 -6 22 -5 22 -20 5z"/>
<path d="M1217 447 c-6 -16 3 -38 13 -32 4 3 10 -2 13 -10 4 -9 1 -12 -9 -8
-17 6 -19 -8 -3 -24 9 -9 15 -8 26 3 12 12 13 20 3 44 -13 31 -36 46 -43 27z"/>
<path d="M1810 450 c0 -5 7 -10 16 -10 8 0 12 5 9 10 -3 6 -10 10 -16 10 -5 0
-9 -4 -9 -10z"/>
<path d="M814 435 c-10 -8 -14 -14 -9 -15 15 0 40 18 34 24 -3 3 -14 -1 -25
-9z"/>
<path d="M625 429 c-4 -6 -4 -13 -1 -16 3 -4 6 -1 6 6 0 7 5 9 12 5 7 -4 8 -3
4 4 -9 15 -13 15 -21 1z"/>
<path d="M1156 432 c-3 -5 -3 -18 1 -30 4 -17 9 -20 23 -12 9 5 20 6 24 3 3
-3 6 -1 6 5 0 7 -4 12 -9 12 -5 0 -16 7 -25 15 -8 8 -17 11 -20 7z"/>
<path d="M673 405 c0 -17 5 -23 19 -22 23 2 21 39 -3 43 -11 1 -16 -6 -16 -21z"/>
<path d="M1054 406 c-3 -8 -4 -25 -1 -38 4 -20 4 -19 6 6 1 24 3 27 16 16 13
-10 15 -9 15 9 0 24 -28 29 -36 7z"/>
<path d="M1820 410 c0 -5 5 -10 10 -10 6 0 10 5 10 10 0 6 -4 10 -10 10 -5 0
-10 -4 -10 -10z"/>
<path d="M658 345 c-3 -14 -1 -25 3 -25 5 0 9 11 9 25 0 14 -2 25 -4 25 -2 0
-6 -11 -8 -25z"/>
<path d="M821 344 c0 -11 3 -14 6 -6 3 7 2 16 -1 19 -3 4 -6 -2 -5 -13z"/>
<path d="M921 274 c0 -11 3 -14 6 -6 3 7 2 16 -1 19 -3 4 -6 -2 -5 -13z"/>
<path d="M661 254 c0 -11 3 -14 6 -6 3 7 2 16 -1 19 -3 4 -6 -2 -5 -13z"/>
<path d="M380 216 c0 -8 5 -18 10 -21 6 -3 10 3 10 14 0 12 -4 21 -10 21 -5 0
-10 -6 -10 -14z"/>
<path d="M650 214 c0 -8 5 -12 10 -9 6 4 8 11 5 16 -9 14 -15 11 -15 -7z"/>
<path d="M370 166 c0 -27 24 -53 35 -37 5 9 -21 61 -31 61 -2 0 -4 -11 -4 -24z"/>
<path d="M710 133 c0 -5 5 -15 10 -23 8 -12 10 -11 10 8 0 12 -4 22 -10 22 -5
0 -10 -3 -10 -7z"/>
<path d="M360 125 c0 -18 19 -40 26 -32 4 4 0 15 -9 24 -9 10 -17 13 -17 8z"/>
<path d="M420 103 c0 -6 8 -17 18 -24 16 -13 16 -13 2 6 -8 11 -16 22 -17 24
-2 2 -3 0 -3 -6z"/>
<path d="M1825 10 c-3 -5 -1 -10 4 -10 6 0 11 5 11 10 0 6 -2 10 -4 10 -3 0
-8 -4 -11 -10z"/>
</g>
</svg>
