<svg id="svg" version="1.1" xmlns="http://www.w3.org/2000/svg" xmlns:xlink="http://www.w3.org/1999/xlink" width="400" height="401.8604651162791" viewBox="0, 0, 400,401.8604651162791"><g id="svgg"><path id="path0" d="M0.000 200.800 L 0.000 401.600 200.000 401.600 L 400.000 401.600 400.000 200.800 L 400.000 0.000 200.000 0.000 L 0.000 0.000 0.000 200.800 M374.400 5.000 C 374.950 5.314,375.806 5.578,376.302 5.586 C 378.773 5.625,387.473 11.281,389.859 14.400 C 390.111 14.730,390.712 15.450,391.194 16.000 C 392.364 17.335,395.056 23.022,395.409 24.904 C 395.564 25.732,395.850 26.507,396.045 26.628 C 396.251 26.755,396.400 99.768,396.400 200.030 L 396.400 373.214 395.145 376.898 C 392.376 385.028,383.949 392.697,374.430 395.749 C 373.313 396.107,371.545 396.671,370.500 397.002 C 367.716 397.885,23.391 397.720,21.200 396.834 C 13.006 393.523,8.768 389.405,5.834 381.903 C 3.197 375.158,3.400 390.149,3.400 202.400 C 3.400 27.685,3.413 26.027,4.808 24.632 C 5.024 24.416,5.200 23.942,5.200 23.578 C 5.200 21.897,11.654 12.400,12.796 12.400 C 12.956 12.400,13.910 11.676,14.915 10.791 C 16.929 9.018,22.337 6.150,24.451 5.734 C 25.193 5.588,26.340 5.235,27.000 4.950 C 28.887 4.135,372.973 4.185,374.400 5.000 M296.716 92.555 C 293.388 93.149,293.587 92.888,293.872 96.286 L 294.111 99.138 297.755 100.013 C 309.015 102.716,311.983 105.889,314.019 117.400 C 316.415 130.946,316.386 130.649,315.676 134.080 C 315.084 136.940,315.089 137.477,315.741 141.567 C 316.241 144.703,316.367 146.929,316.178 149.287 C 315.972 151.858,316.068 153.131,316.605 154.969 C 317.208 157.032,317.261 158.403,317.022 165.569 C 316.794 172.378,316.857 174.318,317.388 176.797 C 317.978 179.554,317.978 180.112,317.377 183.797 L 316.724 187.800 318.003 195.579 C 319.186 202.778,319.251 203.658,318.877 207.379 C 318.272 213.397,318.677 235.990,319.442 238.910 C 320.224 241.897,319.228 244.000,317.030 244.000 C 316.915 244.000,315.091 241.922,312.977 239.383 C 310.863 236.844,308.204 233.772,307.067 232.557 L 305.000 230.348 303.686 231.011 C 301.518 232.103,300.684 231.232,299.174 226.300 C 298.484 224.045,297.722 221.660,297.482 221.000 C 296.995 219.663,288.143 210.663,284.942 208.251 C 283.476 207.146,282.393 205.827,281.164 203.651 C 276.041 194.574,274.767 193.538,271.000 195.391 C 265.709 197.994,263.345 194.998,263.681 186.116 L 263.850 181.632 260.721 177.716 C 259.000 175.562,256.871 172.900,255.991 171.800 C 251.830 166.602,245.677 158.700,244.573 157.137 C 243.098 155.049,238.427 148.578,236.389 145.800 C 235.582 144.700,232.345 140.200,229.195 135.800 C 226.045 131.400,222.804 126.900,221.994 125.800 C 221.183 124.700,217.124 119.030,212.974 113.200 C 204.693 101.567,200.351 95.942,198.186 94.041 C 196.466 92.532,194.126 92.458,177.600 93.397 C 168.552 93.910,166.067 93.905,155.600 93.354 C 134.570 92.247,131.995 92.639,132.006 96.946 C 132.015 100.434,132.004 100.426,137.085 100.622 C 147.283 101.016,154.952 104.016,162.100 110.407 C 164.590 112.634,164.725 113.060,163.865 116.000 C 163.467 117.362,163.417 119.114,163.662 123.200 C 163.839 126.170,164.155 137.870,164.364 149.200 C 164.731 169.138,165.252 177.969,166.556 186.351 C 167.126 190.013,166.835 192.856,165.772 194.031 C 165.201 194.662,165.217 194.866,165.960 196.322 C 166.734 197.840,166.754 198.213,166.349 203.763 C 165.993 208.644,166.025 210.215,166.545 213.303 C 167.850 221.052,168.014 223.647,167.593 229.919 C 167.251 235.011,167.278 236.190,167.758 237.119 C 168.276 238.120,168.258 238.326,167.575 239.215 C 166.648 240.421,166.616 241.648,167.450 244.000 C 169.321 249.280,166.689 272.915,163.537 279.123 C 160.740 284.634,155.090 288.331,143.896 291.975 C 140.705 293.014,138.475 298.551,140.416 300.617 C 141.535 301.808,142.532 301.782,150.377 300.358 C 154.230 299.659,156.829 299.600,183.887 299.600 L 213.220 299.600 213.610 298.574 C 214.681 295.756,213.184 292.147,210.800 291.803 C 197.564 289.894,190.759 282.472,187.982 266.917 C 187.295 263.064,187.168 259.310,186.807 232.000 C 186.584 215.170,186.217 194.740,185.992 186.600 C 185.499 168.773,185.500 164.301,185.999 162.200 C 186.386 160.569,185.813 154.584,184.569 147.248 C 183.647 141.813,183.751 140.955,185.553 139.153 C 186.407 138.299,187.262 137.602,187.453 137.605 C 188.119 137.614,193.970 146.251,194.827 148.490 C 195.575 150.445,196.279 151.272,200.088 154.674 C 205.296 159.324,205.998 160.057,209.060 164.052 C 210.347 165.731,212.930 169.035,214.800 171.396 C 216.670 173.756,218.650 176.278,219.200 177.000 C 219.750 177.722,221.730 180.242,223.600 182.600 C 225.470 184.958,227.450 187.484,228.000 188.213 C 228.867 189.363,233.278 194.842,244.249 208.400 C 248.122 213.187,249.753 215.440,253.805 221.600 C 257.531 227.265,257.904 227.699,269.350 239.708 C 276.283 246.980,278.731 249.841,285.346 258.400 C 291.912 266.896,306.362 283.240,315.468 292.473 C 323.245 300.357,323.726 300.519,334.200 298.792 C 336.840 298.356,339.135 298.000,339.300 298.000 C 340.119 298.000,339.627 247.144,338.755 241.595 C 337.916 236.263,337.913 236.025,338.524 224.192 C 339.065 213.718,339.072 211.814,338.573 209.197 C 338.145 206.955,338.001 202.673,338.002 192.200 C 338.002 184.500,337.715 171.810,337.363 164.000 C 335.550 123.763,342.086 103.024,357.400 100.421 C 358.940 100.159,361.055 99.763,362.100 99.539 L 364.000 99.134 364.000 96.200 L 364.000 93.266 361.900 92.812 C 357.791 91.924,354.590 91.886,344.062 92.602 C 333.910 93.292,332.701 93.295,318.800 92.658 C 302.225 91.899,300.443 91.891,296.716 92.555 M46.501 112.377 C 44.860 116.300,45.191 116.650,52.400 118.618 C 58.188 120.198,60.700 122.373,63.778 128.471 C 64.742 130.380,66.239 132.900,67.105 134.071 C 68.675 136.192,70.724 143.597,70.961 148.000 C 71.002 148.770,71.507 150.390,72.082 151.600 C 73.172 153.893,73.807 165.910,73.603 180.400 C 73.568 182.930,73.720 185.474,73.942 186.053 C 74.244 186.842,74.153 187.844,73.579 190.053 C 72.914 192.614,72.813 194.478,72.807 204.276 C 72.803 211.355,72.651 215.645,72.400 215.800 C 71.750 216.202,71.935 217.361,73.031 219.755 C 73.905 221.665,74.128 222.961,74.498 228.303 L 74.935 234.600 73.675 237.125 C 72.508 239.465,72.450 239.774,72.873 241.358 C 73.352 243.149,73.282 243.558,71.221 251.000 L 70.446 253.800 71.365 255.400 C 76.384 264.138,76.604 264.758,75.620 267.346 C 75.340 268.083,75.445 268.925,76.020 270.562 C 76.978 273.285,76.980 274.078,76.047 278.512 C 75.142 282.819,75.335 282.637,72.252 282.069 C 68.047 281.294,68.229 281.199,66.964 284.832 C 65.243 289.778,63.384 290.993,55.391 292.400 C 46.237 294.012,45.842 294.184,45.408 296.754 C 45.067 298.769,45.685 300.173,47.186 300.794 C 48.637 301.395,82.992 300.684,86.596 299.979 C 87.937 299.716,89.625 299.730,91.737 300.019 C 93.968 300.324,96.119 300.326,99.141 300.025 C 102.030 299.738,105.009 299.727,108.400 299.991 C 111.150 300.206,117.954 300.386,123.520 300.391 L 133.641 300.400 134.209 299.039 C 134.522 298.291,134.891 296.969,135.030 296.102 L 135.282 294.525 132.141 294.277 C 126.216 293.810,118.588 290.530,114.548 286.713 C 109.976 282.394,106.250 265.351,107.520 254.563 C 108.341 247.592,108.455 227.453,107.686 225.378 C 107.087 223.760,107.088 223.425,107.706 220.915 C 108.292 218.531,108.403 214.036,108.618 184.000 L 108.863 149.800 109.856 145.400 C 110.403 142.980,111.307 138.840,111.866 136.200 C 114.291 124.755,118.188 120.651,128.693 118.481 C 134.847 117.209,134.197 117.660,135.372 113.850 L 136.314 110.796 91.696 110.898 L 47.077 111.000 46.501 112.377 M301.461 223.667 C 300.775 226.229,301.455 227.203,302.654 225.374 C 303.293 224.399,303.286 224.308,302.518 223.541 L 301.711 222.733 301.461 223.667 " stroke="none" fill="#fafbfb" fill-rule="evenodd"></path><path id="path1" d="M31.600 5.558 C 31.270 5.742,29.907 6.000,28.572 6.133 C 27.237 6.265,25.617 6.648,24.972 6.984 C 24.327 7.320,23.395 7.596,22.900 7.598 C 22.405 7.599,22.000 7.780,22.000 8.000 C 22.000 8.220,21.569 8.400,21.043 8.400 C 20.516 8.400,19.982 8.670,19.855 9.000 C 19.729 9.330,19.289 9.600,18.879 9.600 C 18.469 9.600,17.608 10.135,16.967 10.789 C 16.325 11.443,15.620 11.983,15.400 11.989 C 14.400 12.018,8.400 18.816,8.400 19.921 C 8.400 20.130,8.130 20.526,7.800 20.800 C 7.470 21.074,7.200 21.614,7.200 22.000 C 7.200 22.386,6.930 22.926,6.600 23.200 C 6.270 23.474,5.994 24.261,5.987 24.949 C 5.980 25.637,5.710 26.549,5.387 26.976 C 4.497 28.154,4.522 375.399,5.413 376.576 C 5.736 377.004,6.000 377.762,6.000 378.263 C 6.000 379.663,7.942 383.927,10.077 387.215 C 11.592 389.547,14.538 392.400,15.432 392.400 C 15.723 392.400,16.104 392.630,16.280 392.911 C 16.456 393.193,17.410 393.751,18.400 394.152 C 19.390 394.554,20.560 395.082,21.000 395.326 C 23.031 396.454,32.397 396.518,196.000 396.518 C 362.136 396.519,370.501 396.459,371.696 395.264 C 371.951 395.009,372.502 394.800,372.920 394.800 C 373.658 394.800,375.989 393.909,377.200 393.164 C 377.530 392.961,378.070 392.693,378.400 392.569 C 378.730 392.444,379.270 392.174,379.600 391.969 C 379.930 391.763,380.470 391.476,380.800 391.331 C 381.130 391.186,382.030 390.583,382.800 389.992 C 383.570 389.400,384.412 388.845,384.671 388.758 C 388.251 387.555,393.873 378.688,394.914 372.600 C 395.504 369.152,395.518 31.960,394.928 28.400 C 393.900 22.192,388.382 12.400,385.912 12.400 C 385.742 12.400,384.927 11.794,384.101 11.053 C 383.276 10.312,382.195 9.580,381.700 9.426 C 381.205 9.272,380.800 8.978,380.800 8.773 C 380.800 8.568,380.451 8.400,380.024 8.400 C 379.597 8.400,379.136 8.220,379.000 8.000 C 378.864 7.780,378.448 7.599,378.076 7.598 C 377.704 7.596,376.860 7.312,376.200 6.966 C 375.540 6.619,373.740 6.140,372.200 5.901 C 368.801 5.373,32.539 5.034,31.600 5.558 M318.800 92.183 C 332.288 92.674,335.442 92.669,344.200 92.145 C 357.487 91.350,364.152 91.873,364.623 93.750 C 365.330 96.567,364.655 99.388,363.200 99.695 C 352.626 101.919,351.722 102.278,348.445 105.555 C 343.977 110.023,340.194 119.617,339.044 129.400 C 337.033 146.505,336.994 147.912,338.032 165.400 C 338.588 174.771,339.300 208.963,339.132 218.200 C 339.059 222.160,339.040 228.730,339.089 232.800 C 339.138 236.870,339.318 252.980,339.489 268.600 C 339.660 284.220,339.940 297.217,340.112 297.481 C 341.274 299.273,324.688 300.879,321.730 299.261 C 319.918 298.270,304.640 282.068,296.600 272.611 C 295.500 271.318,292.886 268.266,290.792 265.830 C 288.697 263.393,285.907 260.004,284.592 258.297 C 283.276 256.590,281.660 254.503,281.000 253.658 C 280.340 252.814,279.020 251.094,278.067 249.835 C 277.115 248.576,273.589 244.723,270.232 241.273 C 261.188 231.976,256.393 226.744,255.712 225.428 C 255.378 224.784,254.101 222.804,252.875 221.028 C 251.648 219.253,249.976 216.810,249.160 215.600 C 247.417 213.016,246.545 211.891,242.000 206.370 C 240.130 204.098,238.240 201.758,237.800 201.171 C 237.360 200.584,234.700 197.245,231.890 193.752 C 229.079 190.258,226.066 186.500,225.195 185.400 C 224.323 184.300,222.302 181.752,220.705 179.738 C 219.107 177.724,217.080 175.141,216.200 173.997 C 205.585 160.203,205.977 160.654,199.504 154.800 C 195.856 151.500,194.807 150.317,194.608 149.280 C 194.325 147.799,190.640 141.982,187.738 138.435 C 187.333 137.940,185.476 139.399,184.970 140.609 C 184.363 142.064,184.513 143.725,186.458 157.079 C 186.842 159.711,186.831 160.915,186.404 163.179 C 185.955 165.560,185.974 168.911,186.528 184.699 C 186.890 194.985,187.282 216.180,187.401 231.800 C 187.635 262.607,187.783 265.319,189.597 271.987 C 192.491 282.634,198.591 288.944,207.617 290.628 C 209.478 290.976,211.366 291.330,211.813 291.416 C 213.571 291.753,214.767 295.664,213.979 298.500 L 213.562 300.000 184.681 300.007 C 155.487 300.015,152.028 300.157,146.200 301.588 C 136.475 303.976,136.516 293.774,146.245 290.598 C 147.941 290.044,149.524 289.435,149.764 289.244 C 150.004 289.053,151.351 288.481,152.757 287.974 C 157.056 286.423,161.066 282.913,163.189 278.845 C 165.965 273.523,168.558 250.716,167.052 244.868 C 166.230 241.676,166.229 240.233,167.047 238.984 C 167.561 238.200,167.595 237.876,167.210 237.412 C 166.845 236.973,166.794 235.005,167.003 229.514 C 167.239 223.338,167.154 221.173,166.455 215.600 C 165.767 210.105,165.683 208.063,165.952 203.400 C 166.244 198.351,166.202 197.653,165.533 196.307 C 164.805 194.842,164.806 194.786,165.595 193.313 C 166.672 191.304,166.461 186.738,164.795 176.000 C 164.053 171.221,163.111 116.495,163.731 114.200 C 164.079 112.910,163.908 112.643,161.160 110.182 C 154.878 104.556,147.434 101.722,137.884 101.320 C 131.440 101.048,131.497 101.088,131.682 96.934 C 131.898 92.082,133.283 91.812,153.367 92.709 C 166.036 93.275,168.583 93.275,180.767 92.706 C 196.883 91.954,196.624 91.931,199.130 94.344 C 201.082 96.225,205.815 102.103,207.717 105.011 C 208.289 105.885,209.801 108.042,211.078 109.804 C 212.355 111.566,213.670 113.395,214.000 113.868 C 214.330 114.342,216.580 117.461,219.000 120.801 C 221.420 124.140,223.940 127.637,224.600 128.570 C 225.260 129.504,227.780 133.008,230.200 136.356 C 236.833 145.535,237.215 146.066,239.770 149.663 C 243.427 154.811,249.755 163.227,252.931 167.168 C 254.509 169.125,257.690 173.114,260.000 176.032 L 264.200 181.338 264.213 186.769 C 264.234 195.183,265.832 197.235,270.646 195.030 C 274.753 193.150,276.275 194.188,280.697 201.882 C 282.435 204.904,283.774 206.707,285.097 207.807 C 294.876 215.931,297.908 219.573,299.179 224.716 C 300.454 229.876,302.539 232.441,303.800 230.400 C 304.604 229.099,311.324 235.769,317.034 243.532 C 317.087 243.605,317.596 243.359,318.165 242.986 C 319.364 242.200,319.459 241.209,318.632 238.103 C 318.008 235.759,317.720 214.509,318.205 206.600 C 318.423 203.046,318.301 201.046,317.570 196.200 C 316.540 189.364,316.443 186.140,317.154 182.331 C 317.586 180.018,317.561 179.298,316.967 176.931 C 316.380 174.592,316.318 173.002,316.540 165.860 C 316.779 158.154,316.736 157.313,315.976 154.810 C 315.281 152.523,315.209 151.682,315.515 149.401 C 315.769 147.507,315.720 145.670,315.352 143.250 C 314.697 138.934,314.670 136.076,315.260 133.222 C 315.892 130.163,314.972 123.591,312.188 111.267 C 310.978 105.912,304.164 101.334,295.156 99.827 C 293.733 99.588,293.709 99.553,293.459 97.292 C 293.320 96.032,293.098 94.610,292.965 94.134 C 292.633 92.938,293.723 92.434,297.511 92.033 C 301.927 91.566,301.861 91.566,318.800 92.183 M63.200 110.600 C 69.030 110.600,87.930 110.522,105.200 110.426 L 136.600 110.252 136.497 111.226 C 136.265 113.431,134.776 117.524,134.113 117.778 C 133.733 117.924,130.958 118.556,127.948 119.183 C 116.782 121.509,114.783 124.432,110.570 144.600 L 109.567 149.400 109.181 183.600 C 108.858 212.142,108.690 218.283,108.165 220.721 C 107.685 222.952,107.638 223.934,107.968 224.880 C 108.449 226.260,108.523 249.957,108.064 255.476 C 107.742 259.342,108.138 267.286,108.808 270.400 C 111.861 284.591,113.188 286.677,121.784 290.792 C 125.749 292.691,128.028 293.314,133.200 293.913 L 135.800 294.214 135.664 295.607 C 135.590 296.373,135.166 297.847,134.722 298.883 L 133.916 300.766 106.058 300.740 C 88.645 300.723,72.801 300.925,63.800 301.279 C 46.137 301.971,44.800 301.740,44.800 297.992 C 44.800 294.204,45.608 293.673,53.600 292.217 C 63.539 290.406,65.141 289.429,66.616 284.283 L 67.442 281.400 70.021 281.473 C 71.439 281.514,73.082 281.642,73.670 281.757 C 75.485 282.115,76.706 274.333,75.436 270.508 C 74.904 268.908,74.854 268.142,75.185 266.666 C 75.612 264.761,74.976 261.815,73.831 260.400 C 71.334 257.313,69.865 253.888,70.339 252.258 C 72.477 244.892,72.784 243.193,72.333 241.237 C 71.909 239.399,71.951 239.183,73.143 237.100 C 75.036 233.790,74.740 225.512,72.525 219.878 C 71.590 217.500,71.515 216.991,71.928 215.850 C 72.248 214.963,72.400 210.957,72.400 203.370 C 72.400 193.643,72.497 191.858,73.150 189.574 C 73.826 187.212,73.841 186.836,73.307 185.817 C 72.850 184.944,72.768 183.848,72.952 181.042 C 73.553 171.839,72.672 153.563,71.523 151.400 C 70.938 150.300,70.372 148.500,70.265 147.400 C 70.157 146.300,69.871 144.410,69.628 143.200 C 69.386 141.990,69.000 139.979,68.772 138.731 C 68.460 137.028,67.882 135.829,66.459 133.931 C 65.416 132.539,64.181 130.468,63.715 129.330 C 61.814 124.679,58.074 120.782,54.600 119.829 C 46.580 117.630,43.966 116.290,45.141 114.980 C 45.329 114.771,45.720 113.700,46.011 112.600 C 46.685 110.056,46.868 109.951,50.000 110.306 C 51.430 110.468,57.370 110.600,63.200 110.600 M303.085 223.567 L 303.970 224.690 302.848 225.946 C 301.679 227.255,300.069 226.701,300.557 225.158 C 300.654 224.851,300.842 224.105,300.974 223.500 C 301.278 222.112,301.955 222.133,303.085 223.567 " stroke="none" fill="#3c64bc" fill-rule="evenodd"></path><path id="path2" d="M28.423 5.236 C 25.954 5.720,25.426 6.057,27.600 5.761 C 34.222 4.859,33.984 4.906,32.000 4.896 C 31.010 4.892,29.400 5.044,28.423 5.236 M370.000 5.202 C 371.210 5.366,372.920 5.605,373.800 5.733 C 375.183 5.935,375.129 5.893,373.400 5.422 C 372.300 5.122,370.590 4.883,369.600 4.891 C 367.803 4.905,367.804 4.905,370.000 5.202 M23.400 6.614 C 22.740 6.917,22.470 7.164,22.800 7.164 C 23.130 7.164,23.940 6.917,24.600 6.614 C 25.260 6.312,25.530 6.065,25.200 6.065 C 24.870 6.065,24.060 6.312,23.400 6.614 M378.076 7.163 C 381.891 8.791,385.070 10.882,388.319 13.900 C 388.854 14.398,389.200 14.535,389.200 14.251 C 389.200 13.138,377.750 5.980,376.018 6.011 C 375.678 6.017,376.604 6.535,378.076 7.163 M19.676 8.257 C 18.507 8.822,17.627 9.361,17.720 9.454 C 17.909 9.643,22.000 7.660,22.000 7.379 C 22.000 7.129,22.035 7.115,19.676 8.257 M12.001 13.798 C 11.486 14.348,11.139 14.864,11.232 14.946 C 11.324 15.028,11.819 14.578,12.330 13.947 C 13.476 12.535,13.274 12.444,12.001 13.798 M389.803 15.600 C 390.241 16.150,390.722 16.692,390.870 16.805 C 391.019 16.918,391.784 18.353,392.570 19.994 C 393.357 21.635,394.000 22.753,394.000 22.479 C 394.000 21.478,391.250 16.573,390.143 15.600 L 389.006 14.600 389.803 15.600 M9.370 16.944 C 7.692 19.202,5.859 22.393,6.101 22.634 C 6.210 22.743,6.795 21.880,7.401 20.716 C 8.007 19.552,9.042 17.917,9.700 17.082 C 10.358 16.246,10.830 15.501,10.748 15.426 C 10.667 15.350,10.046 16.033,9.370 16.944 M394.860 25.600 C 394.854 25.930,395.091 27.370,395.385 28.800 C 395.712 30.386,395.934 30.932,395.953 30.200 C 395.970 29.540,395.734 28.100,395.428 27.000 C 395.122 25.900,394.867 25.270,394.860 25.600 M4.509 28.400 C 4.509 29.390,4.587 29.795,4.682 29.300 C 4.778 28.805,4.778 27.995,4.682 27.500 C 4.587 27.005,4.509 27.410,4.509 28.400 M4.198 202.000 C 4.198 296.050,4.244 334.525,4.300 287.500 C 4.356 240.475,4.356 163.525,4.300 116.500 C 4.244 69.475,4.198 107.950,4.198 202.000 M396.198 201.000 C 396.198 293.620,396.244 331.570,396.300 285.333 C 396.356 239.096,396.356 163.316,396.300 116.933 C 396.244 70.550,396.198 108.380,396.198 201.000 M353.505 91.883 C 354.002 91.979,354.722 91.975,355.105 91.875 C 355.487 91.775,355.080 91.696,354.200 91.701 C 353.320 91.705,353.007 91.787,353.505 91.883 M314.705 92.283 C 315.202 92.379,315.922 92.375,316.305 92.275 C 316.687 92.175,316.280 92.096,315.400 92.101 C 314.520 92.105,314.207 92.187,314.705 92.283 M147.300 92.676 C 147.685 92.776,148.315 92.776,148.700 92.676 C 149.085 92.575,148.770 92.493,148.000 92.493 C 147.230 92.493,146.915 92.575,147.300 92.676 M184.900 92.676 C 185.285 92.776,185.915 92.776,186.300 92.676 C 186.685 92.575,186.370 92.493,185.600 92.493 C 184.830 92.493,184.515 92.575,184.900 92.676 M325.500 92.682 C 325.995 92.778,326.805 92.778,327.300 92.682 C 327.795 92.587,327.390 92.509,326.400 92.509 C 325.410 92.509,325.005 92.587,325.500 92.682 M338.500 92.676 C 338.885 92.776,339.515 92.776,339.900 92.676 C 340.285 92.575,339.970 92.493,339.200 92.493 C 338.430 92.493,338.115 92.575,338.500 92.676 M154.700 93.082 C 155.195 93.178,156.005 93.178,156.500 93.082 C 156.995 92.987,156.590 92.909,155.600 92.909 C 154.610 92.909,154.205 92.987,154.700 93.082 M177.100 93.082 C 177.595 93.178,178.405 93.178,178.900 93.082 C 179.395 92.987,178.990 92.909,178.000 92.909 C 177.010 92.909,176.605 92.987,177.100 93.082 M161.907 93.490 C 162.626 93.579,163.706 93.577,164.307 93.486 C 164.908 93.395,164.320 93.322,163.000 93.324 C 161.680 93.326,161.188 93.401,161.907 93.490 M170.100 93.487 C 170.705 93.578,171.695 93.578,172.300 93.487 C 172.905 93.395,172.410 93.320,171.200 93.320 C 169.990 93.320,169.495 93.395,170.100 93.487 M131.728 97.200 C 131.728 98.630,131.801 99.215,131.889 98.500 C 131.978 97.785,131.978 96.615,131.889 95.900 C 131.801 95.185,131.728 95.770,131.728 97.200 M293.701 97.800 C 293.705 98.680,293.787 98.993,293.883 98.495 C 293.979 97.998,293.975 97.278,293.875 96.895 C 293.775 96.513,293.696 96.920,293.701 97.800 M308.400 104.925 C 308.400 104.994,308.985 105.579,309.700 106.225 L 311.000 107.400 309.825 106.100 C 308.730 104.888,308.400 104.616,308.400 104.925 M102.100 110.699 C 105.785 110.765,111.815 110.765,115.500 110.699 C 119.185 110.633,116.170 110.579,108.800 110.579 C 101.430 110.579,98.415 110.633,102.100 110.699 M66.700 111.098 C 68.735 111.171,72.065 111.171,74.100 111.098 C 76.135 111.025,74.470 110.966,70.400 110.966 C 66.330 110.966,64.665 111.025,66.700 111.098 M163.293 126.400 C 163.293 127.170,163.375 127.485,163.476 127.100 C 163.576 126.715,163.576 126.085,163.476 125.700 C 163.375 125.315,163.293 125.630,163.293 126.400 M163.693 134.000 C 163.693 134.770,163.775 135.085,163.876 134.700 C 163.976 134.315,163.976 133.685,163.876 133.300 C 163.775 132.915,163.693 133.230,163.693 134.000 M164.180 152.400 C 164.180 159.990,164.234 163.095,164.299 159.300 C 164.365 155.505,164.365 149.295,164.299 145.500 C 164.234 141.705,164.180 144.810,164.180 152.400 M194.800 149.847 C 194.800 150.056,195.835 151.211,197.100 152.414 L 199.400 154.600 197.200 152.209 C 195.990 150.894,194.955 149.739,194.900 149.643 C 194.845 149.546,194.800 149.638,194.800 149.847 M108.960 162.600 C 108.961 165.900,109.022 167.197,109.098 165.482 C 109.173 163.767,109.172 161.067,109.097 159.482 C 109.021 157.897,108.959 159.300,108.960 162.600 M316.893 161.600 C 316.893 162.370,316.975 162.685,317.076 162.300 C 317.176 161.915,317.176 161.285,317.076 160.900 C 316.975 160.515,316.893 160.830,316.893 161.600 M337.693 168.800 C 337.693 169.570,337.775 169.885,337.876 169.500 C 337.976 169.115,337.976 168.485,337.876 168.100 C 337.775 167.715,337.693 168.030,337.693 168.800 M72.893 169.200 C 72.893 169.970,72.975 170.285,73.076 169.900 C 73.176 169.515,73.176 168.885,73.076 168.500 C 72.975 168.115,72.893 168.430,72.893 169.200 M316.514 170.600 C 316.517 171.700,316.595 172.103,316.687 171.495 C 316.779 170.886,316.777 169.986,316.682 169.495 C 316.587 169.003,316.511 169.500,316.514 170.600 M164.501 170.600 C 164.505 171.480,164.587 171.793,164.683 171.295 C 164.779 170.798,164.775 170.078,164.675 169.695 C 164.575 169.313,164.496 169.720,164.501 170.600 M185.720 172.000 C 185.720 173.210,185.795 173.705,185.887 173.100 C 185.978 172.495,185.978 171.505,185.887 170.900 C 185.795 170.295,185.720 170.790,185.720 172.000 M338.124 176.200 C 338.126 177.520,338.201 178.012,338.290 177.293 C 338.379 176.574,338.377 175.494,338.286 174.893 C 338.195 174.292,338.122 174.880,338.124 176.200 M186.093 184.400 C 186.093 185.170,186.175 185.485,186.276 185.100 C 186.376 184.715,186.376 184.085,186.276 183.700 C 186.175 183.315,186.093 183.630,186.093 184.400 M263.728 187.600 C 263.728 189.030,263.801 189.615,263.889 188.900 C 263.978 188.185,263.978 187.015,263.889 186.300 C 263.801 185.585,263.728 186.170,263.728 187.600 M186.524 193.400 C 186.526 194.720,186.601 195.212,186.690 194.493 C 186.779 193.774,186.777 192.694,186.686 192.093 C 186.595 191.492,186.522 192.080,186.524 193.400 M72.577 203.600 C 72.577 210.090,72.632 212.745,72.699 209.500 C 72.766 206.255,72.766 200.945,72.699 197.700 C 72.632 194.455,72.577 197.110,72.577 203.600 M186.984 216.000 C 186.984 225.790,187.036 229.795,187.100 224.900 C 187.163 220.005,187.163 211.995,187.100 207.100 C 187.036 202.205,186.984 206.210,186.984 216.000 M108.554 206.400 C 108.554 209.150,108.618 210.275,108.696 208.900 C 108.774 207.525,108.774 205.275,108.696 203.900 C 108.618 202.525,108.554 203.650,108.554 206.400 M318.493 206.800 C 318.493 207.570,318.575 207.885,318.676 207.500 C 318.776 207.115,318.776 206.485,318.676 206.100 C 318.575 205.715,318.493 206.030,318.493 206.800 M338.901 221.800 C 338.905 222.680,338.987 222.993,339.083 222.495 C 339.179 221.998,339.175 221.278,339.075 220.895 C 338.975 220.513,338.896 220.920,338.901 221.800 M167.314 227.800 C 167.317 228.900,167.395 229.303,167.487 228.695 C 167.579 228.086,167.577 227.186,167.482 226.695 C 167.387 226.203,167.311 226.700,167.314 227.800 M338.520 230.800 C 338.520 232.010,338.595 232.505,338.687 231.900 C 338.778 231.295,338.778 230.305,338.687 229.700 C 338.595 229.095,338.520 229.590,338.520 230.800 M262.000 232.600 C 262.746 233.370,263.447 234.000,263.557 234.000 C 263.667 234.000,263.146 233.370,262.400 232.600 C 261.654 231.830,260.953 231.200,260.843 231.200 C 260.733 231.200,261.254 231.830,262.000 232.600 M166.924 234.600 C 166.926 235.920,167.001 236.412,167.090 235.693 C 167.179 234.974,167.177 233.894,167.086 233.293 C 166.995 232.692,166.922 233.280,166.924 234.600 M268.800 239.800 C 270.217 241.230,271.467 242.400,271.577 242.400 C 271.687 242.400,270.617 241.230,269.200 239.800 C 267.783 238.370,266.533 237.200,266.423 237.200 C 266.313 237.200,267.383 238.370,268.800 239.800 M108.140 249.600 C 108.140 251.470,108.209 252.235,108.293 251.300 C 108.377 250.365,108.377 248.835,108.293 247.900 C 108.209 246.965,108.140 247.730,108.140 249.600 M187.353 253.000 C 187.353 255.640,187.418 256.668,187.497 255.284 C 187.575 253.901,187.574 251.741,187.495 250.484 C 187.416 249.228,187.352 250.360,187.353 253.000 M308.800 286.200 C 309.546 286.970,310.247 287.600,310.357 287.600 C 310.467 287.600,309.946 286.970,309.200 286.200 C 308.454 285.430,307.753 284.800,307.643 284.800 C 307.533 284.800,308.054 285.430,308.800 286.200 M316.800 294.600 C 318.217 296.030,319.467 297.200,319.577 297.200 C 319.687 297.200,318.617 296.030,317.200 294.600 C 315.783 293.170,314.533 292.000,314.423 292.000 C 314.313 292.000,315.383 293.170,316.800 294.600 M133.300 294.276 C 133.685 294.376,134.315 294.376,134.700 294.276 C 135.085 294.175,134.770 294.093,134.000 294.093 C 133.230 294.093,132.915 294.175,133.300 294.276 M105.300 300.276 C 105.685 300.376,106.315 300.376,106.700 300.276 C 107.085 300.175,106.770 300.093,106.000 300.093 C 105.230 300.093,104.915 300.175,105.300 300.276 M68.100 301.087 C 68.705 301.178,69.695 301.178,70.300 301.087 C 70.905 300.995,70.410 300.920,69.200 300.920 C 67.990 300.920,67.495 300.995,68.100 301.087 M50.900 301.487 C 51.505 301.578,52.495 301.578,53.100 301.487 C 53.705 301.395,53.210 301.320,52.000 301.320 C 50.790 301.320,50.295 301.395,50.900 301.487 M395.400 372.000 C 395.246 372.910,395.204 373.738,395.307 373.840 C 395.410 373.943,395.613 373.277,395.760 372.360 C 395.907 371.443,395.948 370.615,395.853 370.520 C 395.758 370.424,395.554 371.090,395.400 372.000 M4.812 377.200 C 4.812 377.530,4.987 378.070,5.200 378.400 C 5.545 378.933,5.588 378.933,5.588 378.400 C 5.588 378.070,5.413 377.530,5.200 377.200 C 4.855 376.667,4.812 376.667,4.812 377.200 M393.632 378.422 C 393.505 380.922,388.326 386.700,382.825 390.481 C 378.782 393.259,378.871 393.597,382.938 390.907 C 388.030 387.540,394.556 380.024,393.870 378.316 C 393.725 377.955,393.654 377.986,393.632 378.422 M6.000 380.943 C 6.000 385.083,16.566 396.000,20.573 396.000 C 21.217 396.000,20.322 395.267,19.393 395.034 C 14.879 393.901,6.800 385.323,6.800 381.663 C 6.800 381.434,6.620 381.136,6.400 381.000 C 6.180 380.864,6.000 380.838,6.000 380.943 M375.400 394.422 C 374.520 394.838,374.070 395.176,374.400 395.173 C 374.730 395.169,375.630 394.822,376.400 394.400 C 378.196 393.417,377.492 393.432,375.400 394.422 M23.000 396.611 C 23.880 396.901,25.320 397.135,26.200 397.131 C 27.481 397.125,27.241 397.017,25.000 396.593 C 21.500 395.931,20.950 395.936,23.000 396.611 M369.391 396.235 C 369.166 396.329,367.906 396.563,366.591 396.754 C 364.662 397.035,364.509 397.104,365.800 397.113 C 366.680 397.119,368.300 396.892,369.400 396.609 C 370.500 396.326,371.040 396.088,370.600 396.079 C 370.160 396.070,369.616 396.140,369.391 396.235 " stroke="none" fill="#7f99ce" fill-rule="evenodd"></path><path id="path3" d="M27.000 4.950 C 26.340 5.235,25.193 5.588,24.451 5.734 C 22.337 6.150,16.929 9.018,14.915 10.791 C 13.910 11.676,12.956 12.400,12.796 12.400 C 11.654 12.400,5.200 21.897,5.200 23.578 C 5.200 23.942,5.024 24.416,4.808 24.632 C 3.413 26.027,3.400 27.685,3.400 202.400 C 3.400 390.149,3.197 375.158,5.834 381.903 C 8.768 389.405,13.006 393.523,21.200 396.834 C 23.391 397.720,367.716 397.885,370.500 397.002 C 371.545 396.671,373.313 396.107,374.430 395.749 C 386.317 391.937,396.524 380.470,396.364 371.107 L 396.328 369.000 395.809 371.860 C 393.552 384.294,384.168 393.144,369.600 396.576 C 364.961 397.669,26.047 397.500,22.210 396.403 C 13.424 393.890,8.434 388.621,5.161 378.400 L 4.200 375.400 4.200 201.600 L 4.200 27.800 5.325 24.553 C 8.628 15.021,17.381 7.565,27.791 5.415 C 32.415 4.459,369.395 4.480,373.721 5.436 C 385.717 8.087,394.655 18.028,395.985 30.200 L 396.291 33.000 396.346 29.924 C 396.376 28.232,396.240 26.749,396.045 26.628 C 395.850 26.507,395.564 25.732,395.409 24.904 C 395.056 23.022,392.364 17.335,391.194 16.000 C 390.712 15.450,390.111 14.730,389.859 14.400 C 387.473 11.281,378.773 5.625,376.302 5.586 C 375.806 5.578,374.950 5.314,374.400 5.000 C 372.973 4.185,28.887 4.135,27.000 4.950 M309.891 92.289 C 310.601 92.377,311.861 92.379,312.691 92.292 C 313.521 92.205,312.940 92.133,311.400 92.131 C 309.860 92.129,309.181 92.200,309.891 92.289 M347.505 92.283 C 348.002 92.379,348.722 92.375,349.105 92.275 C 349.487 92.175,349.080 92.096,348.200 92.101 C 347.320 92.105,347.007 92.187,347.505 92.283 M138.900 92.697 C 140.385 92.774,142.815 92.774,144.300 92.697 C 145.785 92.620,144.570 92.557,141.600 92.557 C 138.630 92.557,137.415 92.620,138.900 92.697 M189.100 92.696 C 190.475 92.774,192.725 92.774,194.100 92.696 C 195.475 92.618,194.350 92.554,191.600 92.554 C 188.850 92.554,187.725 92.618,189.100 92.696 M319.300 92.694 C 320.345 92.776,322.055 92.776,323.100 92.694 C 324.145 92.612,323.290 92.544,321.200 92.544 C 319.110 92.544,318.255 92.612,319.300 92.694 M341.300 92.687 C 341.905 92.778,342.895 92.778,343.500 92.687 C 344.105 92.595,343.610 92.520,342.400 92.520 C 341.190 92.520,340.695 92.595,341.300 92.687 M149.700 93.091 C 150.525 93.178,151.875 93.178,152.700 93.091 C 153.525 93.005,152.850 92.934,151.200 92.934 C 149.550 92.934,148.875 93.005,149.700 93.091 M180.900 93.091 C 181.725 93.178,183.075 93.178,183.900 93.091 C 184.725 93.005,184.050 92.934,182.400 92.934 C 180.750 92.934,180.075 93.005,180.900 93.091 M329.700 93.097 C 331.405 93.172,334.195 93.172,335.900 93.097 C 337.605 93.022,336.210 92.961,332.800 92.961 C 329.390 92.961,327.995 93.022,329.700 93.097 M157.100 93.489 C 157.815 93.578,158.985 93.578,159.700 93.489 C 160.415 93.401,159.830 93.328,158.400 93.328 C 156.970 93.328,156.385 93.401,157.100 93.489 M174.307 93.490 C 175.026 93.579,176.106 93.577,176.707 93.486 C 177.308 93.395,176.720 93.322,175.400 93.324 C 174.080 93.326,173.588 93.401,174.307 93.490 M364.078 96.071 C 364.013 98.619,363.881 99.172,363.300 99.324 C 362.644 99.496,362.645 99.510,363.313 99.554 C 364.292 99.617,364.462 98.963,364.298 95.760 L 364.157 93.000 364.078 96.071 M165.700 93.891 C 166.525 93.978,167.875 93.978,168.700 93.891 C 169.525 93.805,168.850 93.734,167.200 93.734 C 165.550 93.734,164.875 93.805,165.700 93.891 M198.000 93.725 C 198.000 93.794,198.585 94.379,199.300 95.025 L 200.600 96.200 199.425 94.900 C 198.330 93.688,198.000 93.416,198.000 93.725 M134.500 100.687 C 135.105 100.778,136.095 100.778,136.700 100.687 C 137.305 100.595,136.810 100.520,135.600 100.520 C 134.390 100.520,133.895 100.595,134.500 100.687 M146.200 102.000 C 146.640 102.189,147.270 102.344,147.600 102.344 C 147.978 102.344,147.904 102.217,147.400 102.000 C 146.960 101.811,146.330 101.656,146.000 101.656 C 145.622 101.656,145.696 101.783,146.200 102.000 M348.175 104.900 L 347.000 106.200 348.300 105.025 C 349.015 104.379,349.600 103.794,349.600 103.725 C 349.600 103.416,349.270 103.688,348.175 104.900 M152.433 104.149 C 152.845 104.517,155.200 105.600,155.200 105.421 C 155.200 105.190,152.982 104.000,152.553 104.000 C 152.396 104.000,152.342 104.067,152.433 104.149 M162.471 111.000 C 163.279 111.880,164.017 113.140,164.111 113.800 L 164.280 115.000 164.340 113.781 C 164.387 112.822,164.038 112.225,162.700 110.981 L 161.000 109.400 162.471 111.000 M46.880 110.880 C 46.616 111.144,46.400 111.538,46.400 111.756 C 46.400 111.975,46.625 111.860,46.900 111.501 C 47.175 111.143,47.940 110.776,48.600 110.685 L 49.800 110.520 48.580 110.460 C 47.909 110.427,47.144 110.616,46.880 110.880 M125.500 110.698 C 127.535 110.771,130.865 110.771,132.900 110.698 C 134.935 110.625,133.270 110.566,129.200 110.566 C 125.130 110.566,123.465 110.625,125.500 110.698 M83.500 111.099 C 86.855 111.166,92.345 111.166,95.700 111.099 C 99.055 111.032,96.310 110.978,89.600 110.978 C 82.890 110.978,80.145 111.032,83.500 111.099 M45.200 115.957 C 45.200 116.464,46.777 117.356,47.101 117.032 C 47.229 116.905,47.136 116.800,46.895 116.800 C 46.654 116.800,46.174 116.517,45.829 116.171 C 45.483 115.826,45.200 115.729,45.200 115.957 M163.340 122.000 C 163.340 123.870,163.409 124.635,163.493 123.700 C 163.577 122.765,163.577 121.235,163.493 120.300 C 163.409 119.365,163.340 120.130,163.340 122.000 M59.200 122.200 C 59.946 122.970,60.647 123.600,60.757 123.600 C 60.867 123.600,60.346 122.970,59.600 122.200 C 58.854 121.430,58.153 120.800,58.043 120.800 C 57.933 120.800,58.454 121.430,59.200 122.200 M163.734 130.000 C 163.734 131.650,163.805 132.325,163.891 131.500 C 163.978 130.675,163.978 129.325,163.891 128.500 C 163.805 127.675,163.734 128.350,163.734 130.000 M338.493 129.600 C 338.493 130.370,338.575 130.685,338.676 130.300 C 338.776 129.915,338.776 129.285,338.676 128.900 C 338.575 128.515,338.493 128.830,338.493 129.600 M164.128 136.400 C 164.128 137.830,164.201 138.415,164.289 137.700 C 164.378 136.985,164.378 135.815,164.289 135.100 C 164.201 134.385,164.128 134.970,164.128 136.400 M314.914 137.400 C 314.917 138.500,314.995 138.903,315.087 138.295 C 315.179 137.686,315.177 136.786,315.082 136.295 C 314.987 135.803,314.911 136.300,314.914 137.400 M184.414 140.374 C 184.186 140.799,184.026 142.014,184.059 143.074 L 184.118 145.000 184.363 142.800 C 184.498 141.590,184.752 140.375,184.928 140.100 C 185.103 139.825,185.153 139.600,185.038 139.600 C 184.922 139.600,184.642 139.948,184.414 140.374 M109.850 144.850 C 109.517 146.517,109.840 146.840,110.200 145.200 C 110.352 144.509,110.393 143.859,110.291 143.758 C 110.189 143.656,109.991 144.147,109.850 144.850 M336.924 147.800 C 336.926 149.120,337.001 149.612,337.090 148.893 C 337.179 148.174,337.177 147.094,337.086 146.493 C 336.995 145.892,336.922 146.480,336.924 147.800 M108.946 153.000 C 108.947 155.200,109.014 156.049,109.095 154.887 C 109.176 153.724,109.176 151.924,109.093 150.887 C 109.011 149.849,108.945 150.800,108.946 153.000 M315.709 151.600 C 315.709 152.590,315.787 152.995,315.882 152.500 C 315.978 152.005,315.978 151.195,315.882 150.700 C 315.787 150.205,315.709 150.610,315.709 151.600 M71.878 151.795 C 72.244 152.562,72.614 153.119,72.701 153.032 C 72.884 152.849,71.670 150.400,71.396 150.400 C 71.295 150.400,71.512 151.028,71.878 151.795 M336.909 153.600 C 336.909 154.590,336.987 154.995,337.082 154.500 C 337.178 154.005,337.178 153.195,337.082 152.700 C 336.987 152.205,336.909 152.610,336.909 153.600 M199.583 154.500 C 201.241 156.266,201.600 156.584,201.600 156.283 C 201.600 156.219,200.745 155.364,199.700 154.383 L 197.800 152.600 199.583 154.500 M72.966 160.800 C 72.966 164.870,73.025 166.535,73.098 164.500 C 73.171 162.465,73.171 159.135,73.098 157.100 C 73.025 155.065,72.966 156.730,72.966 160.800 M337.314 163.000 C 337.317 164.100,337.395 164.503,337.487 163.895 C 337.579 163.286,337.577 162.386,337.482 161.895 C 337.387 161.403,337.311 161.900,337.314 163.000 M316.909 164.400 C 316.909 165.390,316.987 165.795,317.082 165.300 C 317.178 164.805,317.178 163.995,317.082 163.500 C 316.987 163.005,316.909 163.410,316.909 164.400 M164.531 166.600 C 164.533 168.140,164.605 168.721,164.692 167.891 C 164.779 167.061,164.777 165.801,164.689 165.091 C 164.600 164.381,164.529 165.060,164.531 166.600 M73.293 171.200 C 73.293 171.970,73.375 172.285,73.476 171.900 C 73.576 171.515,73.576 170.885,73.476 170.500 C 73.375 170.115,73.293 170.430,73.293 171.200 M337.720 172.000 C 337.720 173.210,337.795 173.705,337.887 173.100 C 337.978 172.495,337.978 171.505,337.887 170.900 C 337.795 170.295,337.720 170.790,337.720 172.000 M185.728 176.400 C 185.728 177.830,185.801 178.415,185.889 177.700 C 185.978 176.985,185.978 175.815,185.889 175.100 C 185.801 174.385,185.728 174.970,185.728 176.400 M338.181 192.800 C 338.181 200.830,338.234 204.115,338.299 200.100 C 338.365 196.085,338.365 189.515,338.299 185.500 C 338.234 181.485,338.181 184.770,338.181 192.800 M317.693 180.000 C 317.693 180.770,317.775 181.085,317.876 180.700 C 317.976 180.315,317.976 179.685,317.876 179.300 C 317.775 178.915,317.693 179.230,317.693 180.000 M73.314 183.400 C 73.317 184.500,73.395 184.903,73.487 184.295 C 73.579 183.686,73.577 182.786,73.482 182.295 C 73.387 181.803,73.311 182.300,73.314 183.400 M108.570 193.200 C 108.570 197.930,108.628 199.865,108.698 197.500 C 108.769 195.135,108.769 191.265,108.698 188.900 C 108.628 186.535,108.570 188.470,108.570 193.200 M186.124 187.800 C 186.126 189.120,186.201 189.612,186.290 188.893 C 186.379 188.174,186.377 187.094,186.286 186.493 C 186.195 185.892,186.122 186.480,186.124 187.800 M265.903 195.500 C 266.512 196.082,267.296 196.384,268.122 196.354 C 269.394 196.308,269.393 196.307,267.901 196.017 C 267.077 195.857,266.078 195.473,265.682 195.163 C 265.285 194.853,265.385 195.005,265.903 195.500 M186.581 210.600 C 186.581 218.960,186.634 222.437,186.699 218.326 C 186.764 214.216,186.764 207.376,186.700 203.126 C 186.635 198.877,186.582 202.240,186.581 210.600 M166.493 198.800 C 166.493 199.570,166.575 199.885,166.676 199.500 C 166.776 199.115,166.776 198.485,166.676 198.100 C 166.575 197.715,166.493 198.030,166.493 198.800 M318.924 203.800 C 318.926 205.120,319.001 205.612,319.090 204.893 C 319.179 204.174,319.177 203.094,319.086 202.493 C 318.995 201.892,318.922 202.480,318.924 203.800 M166.114 204.200 C 166.117 205.300,166.195 205.703,166.287 205.095 C 166.379 204.486,166.377 203.586,166.282 203.095 C 166.187 202.603,166.111 203.100,166.114 204.200 M318.134 213.200 C 318.134 214.850,318.205 215.525,318.291 214.700 C 318.378 213.875,318.378 212.525,318.291 211.700 C 318.205 210.875,318.134 211.550,318.134 213.200 M292.200 214.800 C 293.506 216.120,294.665 217.200,294.775 217.200 C 294.885 217.200,293.906 216.120,292.600 214.800 C 291.294 213.480,290.135 212.400,290.025 212.400 C 289.915 212.400,290.894 213.480,292.200 214.800 M338.934 217.600 C 338.934 219.250,339.005 219.925,339.091 219.100 C 339.178 218.275,339.178 216.925,339.091 216.100 C 339.005 215.275,338.934 215.950,338.934 217.600 M318.574 226.800 C 318.574 232.410,318.630 234.705,318.699 231.900 C 318.768 229.095,318.768 224.505,318.699 221.700 C 318.630 218.895,318.574 221.190,318.574 226.800 M72.000 218.153 C 72.000 218.582,73.190 220.800,73.421 220.800 C 73.531 220.800,73.323 220.215,72.959 219.500 C 72.217 218.040,72.000 217.736,72.000 218.153 M167.720 224.400 C 167.720 225.610,167.795 226.105,167.887 225.500 C 167.978 224.895,167.978 223.905,167.887 223.300 C 167.795 222.695,167.720 223.190,167.720 224.400 M338.540 225.600 C 338.540 227.470,338.609 228.235,338.693 227.300 C 338.777 226.365,338.777 224.835,338.693 223.900 C 338.609 222.965,338.540 223.730,338.540 225.600 M74.493 230.400 C 74.493 231.170,74.575 231.485,74.676 231.100 C 74.776 230.715,74.776 230.085,74.676 229.700 C 74.575 229.315,74.493 229.630,74.493 230.400 M260.400 230.600 C 261.146 231.370,261.847 232.000,261.957 232.000 C 262.067 232.000,261.546 231.370,260.800 230.600 C 260.054 229.830,259.353 229.200,259.243 229.200 C 259.133 229.200,259.654 229.830,260.400 230.600 M167.314 231.400 C 167.317 232.500,167.395 232.903,167.487 232.295 C 167.579 231.686,167.577 230.786,167.482 230.295 C 167.387 229.803,167.311 230.300,167.314 231.400 M303.824 230.613 C 303.396 230.936,303.225 231.200,303.444 231.200 C 303.662 231.200,304.056 230.984,304.321 230.719 C 304.695 230.345,305.178 230.589,306.501 231.819 L 308.200 233.400 306.619 231.700 C 304.842 229.790,304.888 229.808,303.824 230.613 M338.144 234.400 C 338.144 236.490,338.212 237.345,338.294 236.300 C 338.376 235.255,338.376 233.545,338.294 232.500 C 338.212 231.455,338.144 232.310,338.144 234.400 M108.164 239.800 C 108.163 243.540,108.223 245.124,108.297 243.320 C 108.371 241.515,108.372 238.455,108.298 236.520 C 108.225 234.584,108.164 236.060,108.164 239.800 M186.972 242.800 C 186.972 247.970,187.029 250.085,187.099 247.500 C 187.168 244.915,187.168 240.685,187.099 238.100 C 187.029 235.515,186.972 237.630,186.972 242.800 M265.800 236.400 C 267.106 237.720,268.265 238.800,268.375 238.800 C 268.485 238.800,267.506 237.720,266.200 236.400 C 264.894 235.080,263.735 234.000,263.625 234.000 C 263.515 234.000,264.494 235.080,265.800 236.400 M274.400 245.325 C 274.400 245.394,274.985 245.979,275.700 246.625 L 277.000 247.800 275.825 246.500 C 274.730 245.288,274.400 245.016,274.400 245.325 M107.342 259.000 C 107.341 260.980,107.408 261.840,107.492 260.912 C 107.576 259.984,107.577 258.364,107.495 257.312 C 107.412 256.260,107.343 257.020,107.342 259.000 M167.693 256.800 C 167.693 257.570,167.775 257.885,167.876 257.500 C 167.976 257.115,167.976 256.485,167.876 256.100 C 167.775 255.715,167.693 256.030,167.693 256.800 M187.334 260.400 C 187.334 262.050,187.405 262.725,187.491 261.900 C 187.578 261.075,187.578 259.725,187.491 258.900 C 187.405 258.075,187.334 258.750,187.334 260.400 M74.871 262.100 C 75.145 262.595,75.486 263.900,75.628 265.000 L 75.887 267.000 75.944 265.280 C 75.993 263.763,75.134 261.200,74.576 261.200 C 74.464 261.200,74.596 261.605,74.871 262.100 M107.693 264.800 C 107.693 265.570,107.775 265.885,107.876 265.500 C 107.976 265.115,107.976 264.485,107.876 264.100 C 107.775 263.715,107.693 264.030,107.693 264.800 M76.509 274.000 C 76.509 274.990,76.587 275.395,76.682 274.900 C 76.778 274.405,76.778 273.595,76.682 273.100 C 76.587 272.605,76.509 273.010,76.509 274.000 M163.478 278.605 C 163.112 279.372,162.895 280.000,162.996 280.000 C 163.270 280.000,164.484 277.551,164.301 277.368 C 164.214 277.281,163.844 277.838,163.478 278.605 M302.400 278.925 C 302.400 278.994,302.985 279.579,303.700 280.225 L 305.000 281.400 303.825 280.100 C 302.730 278.888,302.400 278.616,302.400 278.925 M67.867 281.467 C 67.720 281.613,67.603 281.928,67.606 282.167 C 67.610 282.460,67.707 282.453,67.906 282.146 C 68.068 281.897,68.560 281.603,69.000 281.493 C 69.774 281.299,69.773 281.291,68.967 281.246 C 68.508 281.221,68.013 281.320,67.867 281.467 M73.300 282.276 C 73.685 282.376,74.315 282.376,74.700 282.276 C 75.085 282.175,74.770 282.093,74.000 282.093 C 73.230 282.093,72.915 282.175,73.300 282.276 M307.000 284.000 C 307.859 284.880,308.652 285.600,308.762 285.600 C 308.872 285.600,308.259 284.880,307.400 284.000 C 306.541 283.120,305.748 282.400,305.638 282.400 C 305.528 282.400,306.141 283.120,307.000 284.000 M313.600 291.000 C 315.460 292.870,317.072 294.400,317.182 294.400 C 317.292 294.400,315.860 292.870,314.000 291.000 C 312.140 289.130,310.528 287.600,310.418 287.600 C 310.308 287.600,311.740 289.130,313.600 291.000 M319.800 297.200 C 320.659 298.080,321.452 298.800,321.562 298.800 C 321.672 298.800,321.059 298.080,320.200 297.200 C 319.341 296.320,318.548 295.600,318.438 295.600 C 318.328 295.600,318.941 296.320,319.800 297.200 M88.100 299.876 C 88.485 299.976,89.115 299.976,89.500 299.876 C 89.885 299.775,89.570 299.693,88.800 299.693 C 88.030 299.693,87.715 299.775,88.100 299.876 M102.500 299.887 C 103.105 299.978,104.095 299.978,104.700 299.887 C 105.305 299.795,104.810 299.720,103.600 299.720 C 102.390 299.720,101.895 299.795,102.500 299.887 M168.300 299.900 C 176.495 299.960,189.905 299.960,198.100 299.900 C 206.295 299.839,199.590 299.790,183.200 299.790 C 166.810 299.790,160.105 299.839,168.300 299.900 M326.707 299.890 C 327.426 299.979,328.506 299.977,329.107 299.886 C 329.708 299.795,329.120 299.722,327.800 299.724 C 326.480 299.726,325.988 299.801,326.707 299.890 M91.300 300.276 C 91.685 300.376,92.315 300.376,92.700 300.276 C 93.085 300.175,92.770 300.093,92.000 300.093 C 91.230 300.093,90.915 300.175,91.300 300.276 M97.900 300.282 C 98.395 300.378,99.205 300.378,99.700 300.282 C 100.195 300.187,99.790 300.109,98.800 300.109 C 97.810 300.109,97.405 300.187,97.900 300.282 M108.307 300.290 C 109.026 300.379,110.106 300.377,110.707 300.286 C 111.308 300.195,110.720 300.122,109.400 300.124 C 108.080 300.126,107.588 300.201,108.307 300.290 M123.800 300.400 L 113.800 300.621 123.676 300.711 C 129.928 300.767,133.644 300.653,133.800 300.400 C 133.936 300.180,133.992 300.040,133.924 300.089 C 133.856 300.139,129.300 300.278,123.800 300.400 M79.312 300.695 C 80.364 300.777,81.984 300.776,82.912 300.692 C 83.840 300.608,82.980 300.541,81.000 300.542 C 79.020 300.543,78.260 300.612,79.312 300.695 M62.300 301.093 C 63.235 301.177,64.765 301.177,65.700 301.093 C 66.635 301.009,65.870 300.940,64.000 300.940 C 62.130 300.940,61.365 301.009,62.300 301.093 " stroke="none" fill="#a8bcdd" fill-rule="evenodd"></path><path id="path4" d="M117.100 5.100 C 163.135 5.156,238.465 5.156,284.500 5.100 C 330.535 5.044,292.870 4.998,200.800 4.998 C 108.730 4.998,71.065 5.044,117.100 5.100 M29.000 5.600 C 27.844 5.894,27.859 5.907,29.400 5.947 C 30.280 5.969,31.270 5.813,31.600 5.600 C 32.336 5.125,30.868 5.125,29.000 5.600 M369.600 5.600 C 369.930 5.813,371.010 5.969,372.000 5.947 C 373.642 5.909,373.694 5.878,372.600 5.600 C 370.737 5.126,368.867 5.126,369.600 5.600 M24.000 6.763 C 21.519 7.668,20.351 8.371,21.300 8.388 C 21.685 8.395,22.000 8.220,22.000 8.000 C 22.000 7.780,22.378 7.600,22.840 7.600 C 23.301 7.600,24.246 7.342,24.940 7.027 C 25.633 6.712,26.560 6.373,27.000 6.274 C 27.611 6.135,27.564 6.094,26.800 6.100 C 26.250 6.104,24.990 6.402,24.000 6.763 M374.400 6.267 C 374.730 6.380,375.567 6.726,376.260 7.036 C 376.954 7.346,377.773 7.600,378.080 7.600 C 378.388 7.600,378.840 7.800,379.085 8.045 C 379.330 8.290,379.761 8.413,380.043 8.319 C 380.657 8.114,375.496 5.986,374.496 6.032 C 373.950 6.056,373.929 6.107,374.400 6.267 M19.023 9.033 C 18.374 9.507,18.354 9.600,18.900 9.600 C 19.259 9.600,19.671 9.408,19.816 9.173 C 20.240 8.487,19.861 8.420,19.023 9.033 M380.800 8.743 C 380.800 9.154,382.012 9.722,382.292 9.442 C 382.389 9.344,382.093 9.064,381.634 8.818 C 381.175 8.573,380.800 8.539,380.800 8.743 M16.095 10.712 C 11.640 14.425,9.361 17.061,7.262 20.925 C 5.846 23.533,5.734 23.919,6.600 23.200 C 6.930 22.926,7.200 22.386,7.200 22.000 C 7.200 21.614,7.470 21.074,7.800 20.800 C 8.130 20.526,8.400 20.130,8.400 19.921 C 8.400 18.816,14.400 12.018,15.400 11.989 C 15.620 11.983,16.325 11.443,16.967 10.789 C 18.424 9.304,17.845 9.253,16.095 10.712 M383.573 10.549 C 384.108 11.131,385.188 11.974,385.973 12.422 L 387.400 13.237 385.800 11.813 C 383.626 9.880,382.226 9.085,383.573 10.549 M387.600 13.522 C 387.600 13.763,387.830 14.104,388.111 14.280 C 388.948 14.804,390.926 17.641,392.170 20.100 C 392.810 21.365,393.405 22.328,393.493 22.241 C 393.741 21.992,391.285 17.307,390.290 16.131 C 388.321 13.804,387.600 13.104,387.600 13.522 M393.630 23.400 C 393.628 24.237,394.761 26.536,394.786 25.746 C 394.794 25.496,394.537 24.686,394.216 23.946 C 393.812 23.017,393.631 22.848,393.630 23.400 M5.654 25.076 C 5.625 25.558,5.420 26.064,5.200 26.200 C 4.980 26.336,4.800 26.747,4.800 27.113 C 4.800 27.635,4.934 27.586,5.427 26.883 C 5.772 26.390,5.976 25.585,5.881 25.094 L 5.709 24.200 5.654 25.076 M395.093 28.800 C 395.419 31.577,395.388 369.418,395.062 372.400 L 394.821 374.600 395.385 372.200 C 396.232 368.593,396.246 33.104,395.399 29.200 L 394.835 26.600 395.093 28.800 M4.598 202.400 C 4.598 297.330,4.644 336.165,4.700 288.700 C 4.756 241.235,4.756 163.565,4.700 116.100 C 4.644 68.635,4.598 107.470,4.598 202.400 M301.305 91.887 C 301.914 91.979,302.814 91.977,303.305 91.882 C 303.797 91.787,303.300 91.711,302.200 91.714 C 301.100 91.717,300.697 91.795,301.305 91.887 M139.705 92.287 C 140.314 92.379,141.214 92.377,141.705 92.282 C 142.197 92.187,141.700 92.111,140.600 92.114 C 139.500 92.117,139.097 92.195,139.705 92.287 M191.700 92.287 C 192.305 92.378,193.295 92.378,193.900 92.287 C 194.505 92.195,194.010 92.120,192.800 92.120 C 191.590 92.120,191.095 92.195,191.700 92.287 M317.300 92.276 C 317.685 92.376,318.315 92.376,318.700 92.276 C 319.085 92.175,318.770 92.093,318.000 92.093 C 317.230 92.093,316.915 92.175,317.300 92.276 M328.705 92.683 C 329.202 92.779,329.922 92.775,330.305 92.675 C 330.687 92.575,330.280 92.496,329.400 92.501 C 328.520 92.505,328.207 92.587,328.705 92.683 M157.905 93.083 C 158.402 93.179,159.122 93.175,159.505 93.075 C 159.887 92.975,159.480 92.896,158.600 92.901 C 157.720 92.905,157.407 92.987,157.905 93.083 M166.100 93.487 C 166.705 93.578,167.695 93.578,168.300 93.487 C 168.905 93.395,168.410 93.320,167.200 93.320 C 165.990 93.320,165.495 93.395,166.100 93.487 M364.534 96.400 C 364.534 98.050,364.605 98.725,364.691 97.900 C 364.778 97.075,364.778 95.725,364.691 94.900 C 364.605 94.075,364.534 94.750,364.534 96.400 M132.354 100.915 C 132.528 101.089,134.455 101.178,136.635 101.113 L 140.600 100.995 136.318 100.798 C 133.963 100.689,132.179 100.742,132.354 100.915 M132.587 110.291 C 134.781 110.378,136.307 110.621,136.517 110.917 C 136.762 111.260,136.814 111.227,136.698 110.800 C 136.569 110.323,135.762 110.195,132.768 110.174 L 129.000 110.148 132.587 110.291 M79.124 110.699 C 82.273 110.767,87.313 110.767,90.324 110.699 C 93.336 110.631,90.760 110.576,84.600 110.576 C 78.440 110.576,75.976 110.632,79.124 110.699 M55.900 111.096 C 57.275 111.174,59.525 111.174,60.900 111.096 C 62.275 111.018,61.150 110.954,58.400 110.954 C 55.650 110.954,54.525 111.018,55.900 111.096 M337.714 139.800 C 337.717 140.900,337.795 141.303,337.887 140.695 C 337.979 140.086,337.977 139.186,337.882 138.695 C 337.787 138.203,337.711 138.700,337.714 139.800 M337.309 144.400 C 337.309 145.390,337.387 145.795,337.482 145.300 C 337.578 144.805,337.578 143.995,337.482 143.500 C 337.387 143.005,337.309 143.410,337.309 144.400 M70.509 148.400 C 70.509 149.390,70.587 149.795,70.682 149.300 C 70.778 148.805,70.778 147.995,70.682 147.500 C 70.587 147.005,70.509 147.410,70.509 148.400 M109.354 154.000 C 109.354 156.750,109.418 157.875,109.496 156.500 C 109.574 155.125,109.574 152.875,109.496 151.500 C 109.418 150.125,109.354 151.250,109.354 154.000 M199.200 154.525 C 199.200 154.594,199.785 155.179,200.500 155.825 L 201.800 157.000 200.625 155.700 C 199.530 154.488,199.200 154.216,199.200 154.525 M337.324 157.000 C 337.326 158.320,337.401 158.812,337.490 158.093 C 337.579 157.374,337.577 156.294,337.486 155.693 C 337.395 155.092,337.322 155.680,337.324 157.000 M316.909 158.800 C 316.909 159.790,316.987 160.195,317.082 159.700 C 317.178 159.205,317.178 158.395,317.082 157.900 C 316.987 157.405,316.909 157.810,316.909 158.800 M337.740 164.400 C 337.740 166.270,337.809 167.035,337.893 166.100 C 337.977 165.165,337.977 163.635,337.893 162.700 C 337.809 161.765,337.740 162.530,337.740 164.400 M316.534 166.000 C 316.534 167.650,316.605 168.325,316.691 167.500 C 316.778 166.675,316.778 165.325,316.691 164.500 C 316.605 163.675,316.534 164.350,316.534 166.000 M185.731 167.400 C 185.733 168.940,185.805 169.521,185.892 168.691 C 185.979 167.861,185.977 166.601,185.889 165.891 C 185.800 165.181,185.729 165.860,185.731 167.400 M164.101 167.400 C 164.105 168.280,164.187 168.593,164.283 168.095 C 164.379 167.598,164.375 166.878,164.275 166.495 C 164.175 166.113,164.096 166.520,164.101 167.400 M108.981 183.400 C 108.981 191.760,109.034 195.237,109.099 191.126 C 109.164 187.016,109.164 180.176,109.100 175.926 C 109.035 171.677,108.982 175.040,108.981 183.400 M338.124 171.800 C 338.126 173.120,338.201 173.612,338.290 172.893 C 338.379 172.174,338.377 171.094,338.286 170.493 C 338.195 169.892,338.122 170.480,338.124 171.800 M316.509 174.000 C 316.509 174.990,316.587 175.395,316.682 174.900 C 316.778 174.405,316.778 173.595,316.682 173.100 C 316.587 172.605,316.509 173.010,316.509 174.000 M73.337 176.600 C 73.339 178.360,73.409 179.030,73.493 178.089 C 73.578 177.149,73.577 175.709,73.491 174.889 C 73.405 174.070,73.336 174.840,73.337 176.600 M164.901 176.200 C 164.905 177.080,164.987 177.393,165.083 176.895 C 165.179 176.398,165.175 175.678,165.075 175.295 C 164.975 174.913,164.896 175.320,164.901 176.200 M186.150 179.000 C 186.151 181.420,186.216 182.358,186.296 181.085 C 186.376 179.812,186.375 177.832,186.294 176.685 C 186.214 175.538,186.149 176.580,186.150 179.000 M338.580 192.800 C 338.580 200.610,338.634 203.805,338.699 199.900 C 338.765 195.995,338.765 189.605,338.699 185.700 C 338.634 181.795,338.580 184.990,338.580 192.800 M72.901 182.200 C 72.905 183.080,72.987 183.393,73.083 182.895 C 73.179 182.398,73.175 181.678,73.075 181.295 C 72.975 180.913,72.896 181.320,72.901 182.200 M186.537 188.200 C 186.539 189.960,186.609 190.630,186.693 189.689 C 186.778 188.749,186.777 187.309,186.691 186.489 C 186.605 185.670,186.536 186.440,186.537 188.200 M316.528 187.600 C 316.528 189.030,316.601 189.615,316.689 188.900 C 316.778 188.185,316.778 187.015,316.689 186.300 C 316.601 185.585,316.528 186.170,316.528 187.600 M186.909 196.800 C 186.909 197.790,186.987 198.195,187.082 197.700 C 187.178 197.205,187.178 196.395,187.082 195.900 C 186.987 195.405,186.909 195.810,186.909 196.800 M318.514 203.800 C 318.517 204.900,318.595 205.303,318.687 204.695 C 318.779 204.086,318.777 203.186,318.682 202.695 C 318.587 202.203,318.511 202.700,318.514 203.800 M108.546 215.000 C 108.547 217.200,108.614 218.049,108.695 216.887 C 108.776 215.724,108.776 213.924,108.693 212.887 C 108.611 211.849,108.545 212.800,108.546 215.000 M317.709 212.800 C 317.709 213.790,317.787 214.195,317.882 213.700 C 317.978 213.205,317.978 212.395,317.882 211.900 C 317.787 211.405,317.709 211.810,317.709 212.800 M293.000 215.200 C 294.306 216.520,295.465 217.600,295.575 217.600 C 295.685 217.600,294.706 216.520,293.400 215.200 C 292.094 213.880,290.935 212.800,290.825 212.800 C 290.715 212.800,291.694 213.880,293.000 215.200 M318.173 226.800 C 318.173 232.190,318.230 234.395,318.299 231.700 C 318.368 229.005,318.368 224.595,318.299 221.900 C 318.230 219.205,318.173 221.410,318.173 226.800 M167.314 224.200 C 167.317 225.300,167.395 225.703,167.487 225.095 C 167.579 224.486,167.577 223.586,167.482 223.095 C 167.387 222.603,167.311 223.100,167.314 224.200 M338.893 224.400 C 338.893 225.170,338.975 225.485,339.076 225.100 C 339.176 224.715,339.176 224.085,339.076 223.700 C 338.975 223.315,338.893 223.630,338.893 224.400 M259.200 229.800 C 259.946 230.570,260.647 231.200,260.757 231.200 C 260.867 231.200,260.346 230.570,259.600 229.800 C 258.854 229.030,258.153 228.400,258.043 228.400 C 257.933 228.400,258.454 229.030,259.200 229.800 M166.893 231.200 C 166.893 231.970,166.975 232.285,167.076 231.900 C 167.176 231.515,167.176 230.885,167.076 230.500 C 166.975 230.115,166.893 230.430,166.893 231.200 M338.528 235.200 C 338.528 236.630,338.601 237.215,338.689 236.500 C 338.778 235.785,338.778 234.615,338.689 233.900 C 338.601 233.185,338.528 233.770,338.528 235.200 M264.800 235.800 C 265.546 236.570,266.247 237.200,266.357 237.200 C 266.467 237.200,265.946 236.570,265.200 235.800 C 264.454 235.030,263.753 234.400,263.643 234.400 C 263.533 234.400,264.054 235.030,264.800 235.800 M187.346 244.600 C 187.347 246.800,187.414 247.649,187.495 246.487 C 187.576 245.324,187.576 243.524,187.493 242.487 C 187.411 241.449,187.345 242.400,187.346 244.600 M167.742 250.600 C 167.741 252.580,167.808 253.440,167.892 252.512 C 167.976 251.584,167.977 249.964,167.895 248.912 C 167.812 247.860,167.743 248.620,167.742 250.600 M167.293 256.800 C 167.293 257.570,167.375 257.885,167.476 257.500 C 167.576 257.115,167.576 256.485,167.476 256.100 C 167.375 255.715,167.293 256.030,167.293 256.800 M107.693 257.200 C 107.693 257.970,107.775 258.285,107.876 257.900 C 107.976 257.515,107.976 256.885,107.876 256.500 C 107.775 256.115,107.693 256.430,107.693 257.200 M107.701 260.600 C 107.705 261.480,107.787 261.793,107.883 261.295 C 107.979 260.798,107.975 260.078,107.875 259.695 C 107.775 259.313,107.696 259.720,107.701 260.600 M76.114 273.800 C 76.117 274.900,76.195 275.303,76.287 274.695 C 76.379 274.086,76.377 273.186,76.282 272.695 C 76.187 272.203,76.111 272.700,76.114 273.800 M311.800 289.600 C 313.106 290.920,314.265 292.000,314.375 292.000 C 314.485 292.000,313.506 290.920,312.200 289.600 C 310.894 288.280,309.735 287.200,309.625 287.200 C 309.515 287.200,310.494 288.280,311.800 289.600 M44.846 297.676 C 44.821 298.708,44.942 299.641,45.116 299.748 C 45.290 299.856,45.370 299.282,45.293 298.472 C 45.059 295.998,44.895 295.707,44.846 297.676 M139.270 298.430 C 139.168 301.091,140.325 302.099,143.250 301.897 L 145.400 301.748 143.162 301.674 C 140.453 301.584,139.720 300.929,139.498 298.399 L 139.340 296.600 139.270 298.430 M102.705 300.283 C 103.202 300.379,103.922 300.375,104.305 300.275 C 104.687 300.175,104.280 300.096,103.400 300.101 C 102.520 300.105,102.207 300.187,102.705 300.283 M71.900 301.082 C 72.395 301.178,73.205 301.178,73.700 301.082 C 74.195 300.987,73.790 300.909,72.800 300.909 C 71.810 300.909,71.405 300.987,71.900 301.082 M56.115 301.496 C 57.388 301.576,59.368 301.575,60.515 301.494 C 61.662 301.414,60.620 301.349,58.200 301.350 C 55.780 301.351,54.842 301.416,56.115 301.496 M394.085 375.773 C 393.818 376.359,393.607 377.144,393.616 377.519 C 393.624 377.893,393.899 377.584,394.226 376.830 C 394.927 375.214,394.794 374.217,394.085 375.773 M5.014 376.600 C 5.167 377.040,5.445 378.042,5.632 378.826 C 6.025 380.481,7.201 382.885,7.183 382.000 C 7.177 381.670,6.914 380.950,6.600 380.400 C 6.286 379.850,6.022 378.939,6.014 378.376 C 6.006 377.814,5.715 377.004,5.367 376.576 C 4.744 375.811,4.739 375.811,5.014 376.600 M392.703 379.500 C 391.594 382.042,386.218 388.238,384.671 388.758 C 384.412 388.845,383.544 389.430,382.742 390.058 C 381.941 390.686,381.108 391.200,380.891 391.200 C 380.675 391.200,380.274 391.470,380.000 391.800 C 379.726 392.130,379.186 392.400,378.800 392.400 C 378.414 392.400,377.874 392.670,377.600 393.000 C 375.852 395.106,383.979 390.098,387.758 386.740 C 389.497 385.194,393.600 379.564,393.600 378.722 C 393.600 378.061,393.167 378.436,392.703 379.500 M7.200 382.988 C 7.200 383.308,8.841 386.117,10.011 387.798 C 11.847 390.436,16.400 394.285,16.400 393.199 C 16.400 392.969,15.950 392.609,15.400 392.400 C 13.286 391.596,9.674 387.375,8.128 383.900 C 7.698 382.934,7.200 382.444,7.200 382.988 M17.433 394.126 C 17.890 394.470,18.747 394.872,19.336 395.020 C 19.926 395.168,20.506 395.449,20.627 395.644 C 20.748 395.840,21.152 395.995,21.524 395.988 C 22.347 395.973,21.335 395.294,19.400 394.562 C 18.740 394.312,17.840 393.972,17.400 393.805 C 16.639 393.516,16.640 393.532,17.433 394.126 M374.800 394.233 C 374.250 394.539,373.506 394.791,373.146 394.794 C 372.786 394.797,371.976 395.069,371.346 395.398 C 370.716 395.726,370.466 395.996,370.792 395.998 C 371.464 396.000,376.800 394.018,376.800 393.765 C 376.800 393.447,375.791 393.683,374.800 394.233 M23.800 396.400 C 25.663 396.874,27.533 396.874,26.800 396.400 C 26.470 396.187,25.390 396.031,24.400 396.053 C 22.758 396.091,22.706 396.122,23.800 396.400 M365.200 396.400 C 364.468 396.873,366.741 396.873,368.600 396.400 C 369.644 396.134,369.540 396.089,367.800 396.053 C 366.700 396.031,365.530 396.187,365.200 396.400 M111.700 397.100 C 158.065 397.156,233.935 397.156,280.300 397.100 C 326.665 397.044,288.730 396.998,196.000 396.998 C 103.270 396.998,65.335 397.044,111.700 397.100 " stroke="none" fill="#587ec4" fill-rule="evenodd"></path></g></svg>