<svg id="svg" version="1.1" xmlns="http://www.w3.org/2000/svg" xmlns:xlink="http://www.w3.org/1999/xlink" width="400" height="401.8604651162791" viewBox="0, 0, 400,401.8604651162791"><g id="svgg"><path id="path0" d="M0.000 200.800 L 0.000 401.600 200.000 401.600 L 400.000 401.600 400.000 200.800 L 400.000 0.000 200.000 0.000 L 0.000 0.000 0.000 200.800 M372.600 4.791 C 376.684 5.700,377.986 6.132,380.534 7.420 C 387.206 10.793,392.050 16.063,394.485 22.600 C 396.555 28.155,396.400 13.772,396.400 200.255 C 396.400 389.684,396.598 372.670,394.323 378.810 C 391.923 385.285,382.206 393.310,373.600 395.924 C 367.718 397.711,379.465 397.600,196.206 397.600 C 28.242 397.600,24.453 397.583,22.152 396.835 C 11.741 393.451,6.424 387.127,4.029 375.280 C 3.728 373.792,3.600 322.257,3.600 202.397 C 3.600 34.061,3.651 26.533,4.806 25.000 C 4.972 24.780,5.239 23.970,5.400 23.200 C 6.358 18.611,14.038 10.508,20.213 7.571 C 23.167 6.166,24.496 5.719,28.400 4.816 C 30.337 4.368,370.589 4.343,372.600 4.791 M297.800 92.263 C 297.140 92.341,295.915 92.594,295.078 92.825 L 293.556 93.245 293.830 96.123 C 294.162 99.608,293.579 99.066,298.231 100.218 C 308.888 102.857,312.005 106.152,313.823 116.703 C 314.382 119.946,315.108 123.932,315.435 125.560 C 316.217 129.439,316.223 132.154,315.456 134.737 C 314.872 136.702,314.886 137.162,315.658 141.657 C 316.352 145.695,316.419 146.925,316.069 149.279 C 315.706 151.727,315.756 152.422,316.463 154.710 C 317.213 157.137,317.253 157.969,316.996 165.767 C 316.764 172.797,316.824 174.652,317.357 176.916 C 317.939 179.390,317.940 179.979,317.373 183.506 C 316.698 187.700,316.729 188.190,318.242 197.326 C 319.149 202.801,319.188 203.563,318.745 207.326 C 318.482 209.567,318.288 212.030,318.314 212.800 C 318.341 213.570,318.523 219.690,318.719 226.400 C 318.927 233.506,319.268 239.181,319.536 239.991 C 320.129 241.783,319.890 242.456,318.333 243.376 L 317.066 244.125 316.233 243.132 C 315.544 242.311,308.486 234.104,305.883 231.097 C 305.193 230.301,305.111 230.294,303.774 230.932 C 301.360 232.083,300.650 231.256,298.832 225.179 C 297.160 219.590,293.684 215.325,285.168 208.414 C 283.503 207.063,282.337 205.556,280.383 202.228 C 275.908 194.605,274.596 193.665,270.860 195.404 C 267.722 196.865,266.504 196.604,264.793 194.107 C 263.857 192.741,263.798 192.338,263.766 187.029 L 263.731 181.400 259.366 175.937 C 248.802 162.719,246.125 159.221,239.209 149.600 C 235.176 143.990,231.211 138.500,230.398 137.400 C 228.813 135.256,221.524 125.093,211.604 111.200 C 197.078 90.855,198.863 92.012,183.560 93.018 C 170.962 93.846,163.553 93.849,150.069 93.033 C 134.249 92.074,132.000 92.588,132.000 97.161 C 132.000 100.256,132.506 101.029,134.298 100.678 C 140.408 99.480,152.384 103.047,159.200 108.095 C 164.368 111.923,164.908 112.859,163.787 116.038 C 163.258 117.537,163.234 118.688,163.615 124.388 C 163.858 128.025,164.210 139.910,164.399 150.800 C 164.724 169.587,165.178 177.402,166.444 186.000 C 167.024 189.938,166.932 191.473,166.007 193.360 C 165.295 194.810,165.286 195.005,165.876 196.147 C 166.415 197.190,166.470 198.366,166.241 203.987 C 166.031 209.131,166.109 211.378,166.589 214.105 C 167.707 220.458,167.896 223.670,167.519 229.956 C 167.245 234.518,167.272 236.408,167.622 237.254 C 168.012 238.194,167.981 238.569,167.448 239.384 C 166.642 240.613,166.629 241.816,167.400 244.000 C 168.185 246.224,168.190 255.099,167.410 260.800 C 164.548 281.711,162.640 284.661,148.399 290.201 C 142.112 292.647,140.764 293.625,140.027 296.279 C 138.526 301.683,140.108 302.283,150.800 300.365 C 154.658 299.674,157.372 299.612,184.110 299.606 L 213.220 299.600 213.610 298.574 C 214.447 296.371,214.015 294.462,212.130 292.034 C 212.059 291.942,210.876 291.714,209.501 291.526 C 201.256 290.399,194.834 285.582,191.144 277.757 C 187.603 270.248,187.300 266.905,186.810 230.000 C 186.584 212.950,186.216 192.880,185.993 185.400 C 185.487 168.465,185.491 164.947,186.021 162.477 C 186.455 160.451,186.011 155.694,184.546 146.699 C 183.706 141.536,185.031 137.480,187.514 137.616 C 188.281 137.657,194.222 146.671,194.826 148.709 C 195.309 150.340,199.668 154.880,203.800 158.056 C 204.460 158.563,205.205 159.253,205.456 159.589 C 208.952 164.270,237.673 200.464,243.396 207.400 C 247.022 211.795,252.015 218.736,255.013 223.548 C 256.576 226.059,263.300 233.589,272.382 243.000 C 276.523 247.291,278.478 249.638,286.326 259.743 C 294.368 270.096,318.254 296.313,321.704 298.574 C 323.460 299.725,328.510 299.831,334.244 298.838 C 336.909 298.377,339.204 298.000,339.344 298.000 C 340.113 298.000,339.595 246.183,338.779 241.400 C 337.907 236.291,337.907 236.438,338.845 219.958 C 339.235 213.098,339.210 211.761,338.645 209.279 C 338.114 206.944,338.000 203.819,338.000 191.625 C 338.000 183.476,337.720 170.732,337.378 163.304 C 335.886 130.914,340.365 110.257,350.400 103.248 C 352.940 101.474,354.127 101.043,358.800 100.198 C 364.584 99.152,364.000 99.597,364.000 96.240 L 364.000 93.295 362.100 92.804 C 358.774 91.944,353.649 91.881,343.591 92.577 C 334.522 93.204,332.779 93.208,319.950 92.627 C 306.907 92.037,300.575 91.932,297.800 92.263 M46.483 112.400 C 46.156 113.170,45.868 114.420,45.844 115.177 L 45.800 116.554 50.600 118.077 C 58.839 120.690,60.910 122.356,63.929 128.800 C 64.702 130.450,65.928 132.542,66.653 133.450 C 68.579 135.861,70.800 143.496,70.800 147.709 C 70.800 148.586,71.290 150.193,71.964 151.528 L 73.127 153.833 73.372 169.759 C 73.507 178.518,73.774 185.981,73.965 186.342 C 74.183 186.756,74.040 188.039,73.579 189.800 C 72.954 192.189,72.843 194.285,72.823 204.076 C 72.809 211.270,72.651 215.645,72.400 215.800 C 71.756 216.198,71.931 217.346,73.007 219.779 C 73.833 221.644,74.098 223.161,74.473 228.155 L 74.930 234.254 73.603 237.132 C 72.464 239.605,72.342 240.154,72.738 241.024 C 73.422 242.526,73.326 243.322,71.799 248.764 C 70.218 254.396,70.037 253.339,73.624 259.400 C 75.820 263.112,75.960 263.717,75.610 268.000 C 75.547 268.770,75.818 270.277,76.212 271.350 C 76.892 273.201,76.894 273.489,76.256 277.091 C 75.340 282.260,75.163 282.541,73.070 282.142 C 72.151 281.967,70.614 281.819,69.653 281.812 L 67.907 281.800 66.964 284.590 C 65.166 289.912,63.334 291.045,54.000 292.612 C 47.008 293.786,45.972 294.275,45.468 296.641 C 45.037 298.663,45.663 300.286,47.093 300.855 C 48.392 301.372,84.407 300.637,86.897 300.043 C 87.819 299.823,89.651 299.846,91.667 300.104 C 93.903 300.389,96.344 300.394,99.370 300.120 C 101.852 299.895,105.383 299.853,107.400 300.024 C 109.380 300.193,116.094 300.346,122.320 300.365 L 133.641 300.400 134.209 299.039 C 134.522 298.291,134.892 296.969,135.030 296.101 L 135.282 294.524 132.207 294.264 C 123.614 293.538,114.492 288.427,111.951 282.914 C 107.892 274.110,107.153 266.605,107.960 242.400 C 108.404 229.114,108.388 227.601,107.789 225.593 C 107.190 223.588,107.185 223.168,107.739 220.993 C 108.250 218.985,108.390 213.093,108.609 184.400 L 108.870 150.200 109.847 145.800 C 110.384 143.380,111.275 139.240,111.827 136.600 C 113.064 130.687,116.193 124.266,118.985 121.913 C 120.307 120.798,124.684 119.302,129.400 118.353 C 134.667 117.294,134.234 117.620,135.402 113.835 L 136.349 110.765 91.713 110.882 L 47.077 111.000 46.483 112.400 M301.237 224.252 C 300.712 226.152,301.234 226.855,302.391 225.809 C 303.402 224.893,303.412 224.315,302.429 223.426 C 301.683 222.751,301.644 222.778,301.237 224.252 " stroke="none" fill="#fafafb" fill-rule="evenodd"></path><path id="path1" d="M33.729 5.631 C 33.512 5.848,32.449 6.116,31.367 6.225 C 27.202 6.646,26.011 6.859,25.786 7.223 C 25.658 7.430,24.863 7.600,24.019 7.600 C 23.025 7.600,22.405 7.811,22.255 8.200 C 22.129 8.530,21.681 8.800,21.262 8.800 C 20.842 8.800,20.274 9.070,20.000 9.400 C 19.726 9.730,19.173 10.000,18.771 10.000 C 18.369 10.000,17.896 10.242,17.720 10.537 C 17.544 10.833,16.590 11.645,15.600 12.342 C 12.229 14.716,12.000 14.912,12.000 15.427 C 12.000 15.711,11.772 16.181,11.494 16.471 C 9.309 18.756,6.705 23.391,6.199 25.900 C 6.055 26.615,5.773 27.200,5.573 27.200 C 5.356 27.200,5.209 97.397,5.208 201.600 C 5.207 311.113,5.347 376.000,5.585 376.000 C 5.793 376.000,6.073 376.675,6.206 377.500 C 6.339 378.325,6.707 379.478,7.024 380.062 C 7.341 380.646,7.600 381.411,7.600 381.762 C 7.600 382.113,7.780 382.400,8.000 382.400 C 8.220 382.400,8.400 382.779,8.400 383.242 C 8.400 383.706,8.940 384.767,9.600 385.600 C 10.260 386.433,10.800 387.311,10.800 387.550 C 10.800 388.567,17.063 393.600,18.329 393.600 C 18.588 393.600,18.800 393.780,18.800 394.000 C 18.800 394.220,19.256 394.400,19.814 394.400 C 20.372 394.400,21.227 394.658,21.714 394.972 C 22.201 395.287,23.828 395.624,25.328 395.721 C 26.829 395.818,28.260 396.100,28.508 396.348 C 29.148 396.988,362.842 396.998,363.482 396.358 C 363.725 396.115,365.487 395.819,367.397 395.700 C 369.788 395.550,370.935 395.314,371.078 394.941 C 371.209 394.600,371.934 394.400,373.043 394.400 C 374.009 394.400,374.800 394.223,374.800 394.008 C 374.800 393.792,375.293 393.491,375.896 393.340 C 376.499 393.189,377.232 392.825,377.525 392.533 C 377.818 392.240,378.404 392.000,378.829 392.000 C 379.253 392.000,379.601 391.865,379.603 391.700 C 379.605 391.430,381.740 390.048,382.208 390.014 C 382.314 390.006,382.733 389.667,383.140 389.260 C 383.547 388.853,384.447 388.269,385.140 387.963 C 385.833 387.656,386.400 387.269,386.400 387.102 C 386.400 386.697,387.915 385.200,388.326 385.200 C 388.506 385.200,389.057 384.480,389.552 383.600 C 390.047 382.720,390.583 382.000,390.744 382.000 C 390.904 382.000,391.370 381.190,391.778 380.200 C 392.187 379.210,392.673 378.400,392.860 378.400 C 393.047 378.400,393.200 377.873,393.200 377.229 C 393.200 376.584,393.470 375.787,393.800 375.457 C 394.200 375.057,394.400 374.057,394.400 372.457 C 394.400 370.857,394.600 369.857,395.000 369.457 C 395.911 368.546,395.913 33.892,395.002 32.146 C 394.659 31.486,394.404 29.934,394.402 28.487 C 394.401 26.625,394.245 25.915,393.800 25.745 C 393.409 25.595,393.200 24.972,393.200 23.957 C 393.200 23.101,393.034 22.400,392.832 22.400 C 392.629 22.400,392.345 21.860,392.200 21.200 C 392.055 20.540,391.771 20.000,391.568 20.000 C 391.366 20.000,391.200 19.670,391.200 19.267 C 391.200 18.863,390.665 18.008,390.011 17.367 C 389.357 16.725,388.817 15.795,388.811 15.300 C 388.805 14.772,388.552 14.400,388.200 14.400 C 387.870 14.400,387.600 14.223,387.600 14.008 C 387.600 13.792,387.150 13.502,386.600 13.364 C 386.050 13.226,385.600 12.953,385.600 12.757 C 385.600 12.560,385.357 12.400,385.060 12.400 C 384.763 12.400,384.106 11.860,383.600 11.200 C 383.094 10.540,382.369 10.000,381.989 10.000 C 381.609 10.000,381.089 9.748,380.833 9.439 C 380.577 9.131,379.925 8.767,379.384 8.632 C 378.843 8.496,378.400 8.208,378.400 7.992 C 378.400 7.777,377.781 7.600,377.024 7.600 C 376.267 7.600,375.542 7.430,375.414 7.223 C 375.190 6.860,373.437 6.531,370.326 6.266 C 369.515 6.197,368.606 5.937,368.306 5.688 C 367.584 5.089,34.328 5.032,33.729 5.631 M320.938 92.166 C 332.143 92.587,335.901 92.582,342.738 92.135 C 354.240 91.384,358.000 91.267,358.000 91.661 C 358.000 91.847,358.621 92.000,359.380 92.000 C 360.139 92.000,361.669 92.195,362.780 92.433 L 364.800 92.866 364.800 96.186 C 364.800 99.816,364.676 99.981,361.924 99.995 C 361.332 99.998,360.749 100.159,360.629 100.353 C 360.509 100.548,359.376 100.836,358.112 100.994 C 355.668 101.299,351.929 102.545,351.100 103.331 C 350.825 103.592,350.001 104.299,349.269 104.903 C 340.200 112.382,336.626 132.399,338.159 167.137 C 338.511 175.133,338.800 187.393,338.800 194.383 C 338.800 201.372,338.970 207.985,339.177 209.077 C 339.665 211.654,339.659 213.306,339.114 225.996 C 338.712 235.346,338.738 237.228,339.332 241.996 C 340.223 249.150,340.383 297.965,339.517 298.422 C 338.192 299.121,328.385 300.407,326.154 300.174 C 321.425 299.680,320.618 299.043,308.456 286.200 C 307.479 285.168,293.849 269.676,290.332 265.600 C 289.668 264.830,288.665 263.708,288.103 263.107 C 287.541 262.506,286.883 261.667,286.640 261.244 C 286.125 260.341,280.935 253.670,276.868 248.681 C 276.135 247.782,272.430 243.797,268.634 239.824 C 258.496 229.213,256.173 226.674,255.603 225.582 C 255.086 224.593,251.624 219.366,249.400 216.218 C 248.740 215.284,247.841 213.998,247.402 213.360 C 246.963 212.722,244.892 210.130,242.800 207.600 C 237.639 201.358,235.909 199.208,235.200 198.156 C 234.870 197.666,233.439 195.855,232.019 194.132 C 230.600 192.410,228.655 190.010,227.697 188.800 C 226.739 187.590,225.560 186.132,225.077 185.559 C 224.595 184.987,223.480 183.577,222.600 182.425 C 219.871 178.853,217.204 175.446,216.282 174.356 C 215.797 173.781,214.770 172.476,214.000 171.454 C 209.173 165.051,204.177 159.125,202.150 157.400 C 197.130 153.127,194.895 150.777,194.641 149.503 C 194.405 148.324,188.898 139.711,187.794 138.795 C 187.109 138.226,184.962 140.043,184.700 141.412 C 184.506 142.427,184.998 146.574,186.219 154.200 C 186.653 156.913,186.776 159.230,186.600 161.400 C 186.258 165.626,186.347 176.856,186.811 188.000 C 187.018 192.950,187.199 204.830,187.215 214.400 C 187.231 223.970,187.404 239.270,187.601 248.400 L 187.958 265.000 189.325 270.400 C 192.409 282.576,198.504 288.960,208.777 290.772 L 212.568 291.441 213.716 293.396 C 214.409 294.574,214.781 295.677,214.655 296.175 C 214.539 296.629,214.292 297.630,214.106 298.400 L 213.768 299.800 183.184 300.060 C 154.355 300.305,149.200 300.474,149.200 301.175 C 149.200 301.336,148.975 301.486,148.700 301.510 C 139.738 302.280,139.231 302.114,139.222 298.400 C 139.212 294.516,141.207 292.060,145.410 290.780 C 146.945 290.312,148.560 289.710,149.000 289.441 C 149.440 289.173,150.700 288.627,151.800 288.228 C 156.321 286.591,159.656 284.009,162.245 280.141 C 165.535 275.226,168.754 251.874,167.052 245.268 C 166.233 242.085,166.208 239.457,166.992 238.807 C 167.450 238.426,167.485 238.132,167.145 237.498 C 166.845 236.937,166.790 234.398,166.970 229.440 C 167.201 223.100,167.113 221.280,166.268 214.800 C 165.736 210.730,165.441 207.130,165.611 206.800 C 166.329 205.404,166.052 197.670,165.225 196.049 C 164.434 194.498,164.434 194.493,165.230 193.773 C 165.669 193.375,165.940 192.820,165.832 192.538 C 165.723 192.256,165.828 191.906,166.065 191.760 C 166.538 191.467,166.214 185.251,165.598 182.800 C 164.683 179.166,164.303 172.230,163.983 153.400 C 163.793 142.180,163.467 129.558,163.259 125.351 C 162.957 119.220,162.991 117.235,163.432 115.351 L 163.983 113.000 161.891 111.111 C 154.665 104.583,147.780 101.813,137.600 101.336 C 131.399 101.046,131.614 101.191,131.606 97.300 C 131.600 94.509,132.308 92.824,133.500 92.792 C 133.665 92.788,134.970 92.610,136.400 92.397 C 138.216 92.127,143.221 92.204,153.000 92.652 C 163.886 93.151,168.735 93.205,174.800 92.896 C 189.417 92.150,194.599 92.026,196.200 92.385 C 198.722 92.950,203.363 98.287,211.200 109.631 C 211.970 110.746,213.455 112.807,214.500 114.211 C 215.545 115.616,216.400 116.931,216.400 117.133 C 216.400 117.336,216.694 117.746,217.053 118.044 C 217.412 118.342,218.087 119.151,218.553 119.842 C 220.715 123.048,223.004 126.248,223.481 126.731 C 223.769 127.023,224.213 127.653,224.468 128.131 C 224.722 128.609,225.413 129.630,226.002 130.400 C 226.592 131.170,227.908 132.970,228.926 134.400 C 229.945 135.830,231.239 137.630,231.802 138.400 C 233.474 140.685,238.768 148.011,242.200 152.789 C 243.960 155.239,245.592 157.459,245.827 157.722 C 246.061 157.985,246.600 158.740,247.025 159.400 C 247.449 160.060,249.831 163.120,252.318 166.200 C 254.806 169.280,257.236 172.317,257.720 172.949 C 258.204 173.582,259.230 174.866,260.000 175.805 C 260.770 176.743,262.066 178.354,262.879 179.385 L 264.359 181.259 264.303 186.530 C 264.217 194.744,266.017 197.221,270.443 194.978 C 274.739 192.801,277.298 194.666,281.528 203.055 C 282.542 205.065,283.655 206.293,287.683 209.840 C 293.141 214.647,293.794 215.293,296.439 218.509 C 297.910 220.296,298.416 221.331,298.968 223.672 C 300.344 229.516,301.700 231.416,303.681 230.279 C 305.287 229.358,305.497 229.531,311.820 237.000 C 317.592 243.817,317.175 243.472,318.419 242.465 C 319.322 241.734,319.338 241.628,318.830 239.752 C 318.488 238.488,318.186 233.430,317.973 225.400 C 317.793 218.580,317.626 212.820,317.602 212.600 C 317.577 212.380,317.782 210.363,318.057 208.118 C 318.566 203.955,317.660 192.433,316.744 191.420 C 316.232 190.854,316.328 184.882,316.865 183.878 C 317.501 182.690,317.526 177.249,316.898 176.860 C 316.337 176.514,316.142 171.688,316.320 162.600 C 316.395 158.764,316.268 156.095,315.969 155.200 C 315.711 154.430,315.453 151.190,315.395 148.000 C 315.338 144.810,315.120 140.940,314.911 139.400 C 314.626 137.298,314.673 135.894,315.098 133.767 C 315.597 131.276,315.590 130.457,315.035 126.967 C 314.689 124.785,314.323 122.460,314.222 121.800 C 313.799 119.026,312.077 110.538,311.787 109.800 C 311.316 108.599,308.785 105.200,308.362 105.200 C 308.159 105.200,307.241 104.655,306.322 103.990 C 305.404 103.324,303.110 102.318,301.226 101.754 C 299.342 101.190,297.440 100.577,297.000 100.393 C 296.560 100.209,295.550 99.951,294.757 99.821 L 293.313 99.585 293.088 96.295 C 292.964 94.485,292.924 92.942,293.000 92.867 C 293.327 92.540,296.466 92.040,299.800 91.785 C 301.780 91.633,303.474 91.440,303.565 91.356 C 303.656 91.272,304.556 91.305,305.565 91.430 C 306.574 91.554,313.492 91.885,320.938 92.166 M51.800 110.372 C 53.120 110.540,72.740 110.541,95.400 110.375 C 118.060 110.209,136.672 110.143,136.759 110.229 C 137.058 110.522,135.089 117.195,134.578 117.618 C 134.298 117.851,131.578 118.544,128.534 119.160 C 120.296 120.826,119.300 121.470,115.825 127.375 C 113.906 130.636,113.473 131.762,112.783 135.289 C 112.341 137.550,111.813 139.760,111.610 140.200 C 109.861 143.991,109.604 148.606,109.391 179.951 C 109.153 214.953,109.045 218.693,108.198 221.400 C 107.627 223.227,107.629 223.548,108.226 225.116 C 108.804 226.635,108.847 228.362,108.604 240.116 C 108.120 263.471,108.140 265.463,108.909 269.800 C 111.361 283.637,113.639 287.207,122.400 290.946 C 123.830 291.557,125.360 292.220,125.800 292.421 C 126.988 292.963,129.830 293.509,133.100 293.824 C 136.399 294.142,136.388 294.125,135.366 297.627 C 134.356 301.085,135.225 300.886,121.751 300.741 C 106.107 300.572,97.539 300.571,86.600 300.735 C 81.185 300.816,79.590 300.879,71.000 301.352 C 61.887 301.853,48.499 302.018,47.508 301.641 C 44.710 300.577,43.790 296.820,45.765 294.522 C 46.764 293.360,46.899 293.322,55.347 291.797 C 63.150 290.389,65.309 288.909,66.545 284.121 C 67.400 280.804,67.363 280.824,71.581 281.431 C 75.209 281.952,74.669 282.357,75.392 278.574 C 76.155 274.590,76.157 272.945,75.401 270.804 C 74.978 269.603,74.875 268.333,75.049 266.454 C 75.321 263.529,75.062 262.718,72.606 258.800 C 69.436 253.743,69.508 255.157,71.957 246.038 C 72.665 243.403,72.693 242.900,72.206 241.489 C 71.619 239.784,71.967 238.496,73.716 235.897 C 74.902 234.135,74.051 223.522,72.441 220.000 C 71.561 218.077,71.344 215.806,72.000 215.400 C 72.252 215.244,72.400 210.848,72.400 203.534 C 72.400 194.292,72.528 191.422,73.025 189.502 C 73.499 187.675,73.546 186.835,73.221 186.044 C 72.965 185.423,72.826 182.568,72.876 179.000 C 73.061 165.947,72.303 152.606,71.300 151.249 C 70.754 150.511,70.400 149.459,70.400 148.574 C 70.400 147.772,70.144 146.099,69.831 144.858 C 69.518 143.616,69.154 141.700,69.021 140.600 C 68.698 137.918,68.150 136.577,66.407 134.200 C 65.600 133.100,64.287 130.850,63.490 129.200 C 60.673 123.375,57.809 120.721,52.917 119.406 C 44.639 117.179,44.192 116.810,45.537 113.315 C 45.942 112.262,46.386 111.085,46.524 110.700 C 46.802 109.926,47.796 109.864,51.800 110.372 M302.878 223.075 C 304.247 224.386,304.253 224.683,302.945 226.171 C 301.158 228.205,300.090 226.483,300.968 222.984 C 301.280 221.741,301.497 221.752,302.878 223.075 " stroke="none" fill="#0c6cc4" fill-rule="evenodd"></path><path id="path2" d="M116.067 5.100 C 162.414 5.156,238.374 5.156,284.867 5.100 C 331.360 5.044,293.440 4.998,200.600 4.998 C 107.760 4.998,69.720 5.044,116.067 5.100 M28.000 5.600 L 27.000 5.920 28.000 5.913 C 28.550 5.909,29.540 5.768,30.200 5.600 L 31.400 5.295 30.200 5.287 C 29.540 5.283,28.550 5.424,28.000 5.600 M371.200 5.600 C 371.750 5.776,372.740 5.917,373.400 5.913 L 374.600 5.905 373.400 5.600 C 372.740 5.432,371.750 5.291,371.200 5.287 L 370.200 5.280 371.200 5.600 M376.346 6.616 C 377.086 6.937,377.806 7.194,377.946 7.186 C 378.466 7.157,376.176 6.028,375.600 6.030 C 375.270 6.031,375.606 6.294,376.346 6.616 M379.600 7.779 C 379.600 7.889,380.140 8.259,380.800 8.600 C 381.460 8.941,382.000 9.131,382.000 9.021 C 382.000 8.911,381.460 8.541,380.800 8.200 C 380.140 7.859,379.600 7.669,379.600 7.779 M18.624 9.013 C 18.196 9.336,18.027 9.600,18.247 9.600 C 18.467 9.600,18.996 9.336,19.424 9.013 C 19.851 8.690,20.020 8.425,19.800 8.425 C 19.580 8.425,19.051 8.690,18.624 9.013 M16.000 10.849 C 14.606 12.071,14.605 12.072,15.888 11.219 C 16.596 10.748,17.282 10.191,17.412 9.981 C 17.797 9.357,17.477 9.554,16.000 10.849 M388.000 13.725 C 388.000 13.794,388.585 14.379,389.300 15.025 L 390.600 16.200 389.425 14.900 C 388.330 13.688,388.000 13.416,388.000 13.725 M8.502 18.500 C 7.786 19.404,7.109 20.904,7.535 20.640 C 7.927 20.398,9.274 18.000,9.018 18.000 C 8.952 18.000,8.720 18.225,8.502 18.500 M394.012 24.000 C 394.012 24.330,394.187 24.870,394.400 25.200 C 394.745 25.733,394.788 25.733,394.788 25.200 C 394.788 24.870,394.613 24.330,394.400 24.000 C 394.055 23.467,394.012 23.467,394.012 24.000 M394.868 27.000 C 394.862 27.660,395.011 28.560,395.200 29.000 C 395.670 30.094,395.670 28.267,395.200 26.800 C 394.888 25.825,394.879 25.830,394.868 27.000 M4.598 202.000 C 4.598 297.590,4.644 336.695,4.700 288.900 C 4.756 241.105,4.756 162.895,4.700 115.100 C 4.644 67.305,4.598 106.410,4.598 202.000 M302.707 91.890 C 303.426 91.979,304.506 91.977,305.107 91.886 C 305.708 91.795,305.120 91.722,303.800 91.724 C 302.480 91.726,301.988 91.801,302.707 91.890 M352.691 91.889 C 353.401 91.977,354.661 91.979,355.491 91.892 C 356.321 91.805,355.740 91.733,354.200 91.731 C 352.660 91.729,351.981 91.800,352.691 91.889 M191.700 92.276 C 192.085 92.376,192.715 92.376,193.100 92.276 C 193.485 92.175,193.170 92.093,192.400 92.093 C 191.630 92.093,191.315 92.175,191.700 92.276 M316.100 92.276 C 316.485 92.376,317.115 92.376,317.500 92.276 C 317.885 92.175,317.570 92.093,316.800 92.093 C 316.030 92.093,315.715 92.175,316.100 92.276 M148.500 92.676 C 148.885 92.776,149.515 92.776,149.900 92.676 C 150.285 92.575,149.970 92.493,149.200 92.493 C 148.430 92.493,148.115 92.575,148.500 92.676 M183.300 92.676 C 183.685 92.776,184.315 92.776,184.700 92.676 C 185.085 92.575,184.770 92.493,184.000 92.493 C 183.230 92.493,182.915 92.575,183.300 92.676 M327.500 92.682 C 327.995 92.778,328.805 92.778,329.300 92.682 C 329.795 92.587,329.390 92.509,328.400 92.509 C 327.410 92.509,327.005 92.587,327.500 92.682 M156.705 93.083 C 157.202 93.179,157.922 93.175,158.305 93.075 C 158.687 92.975,158.280 92.896,157.400 92.901 C 156.520 92.905,156.207 92.987,156.705 93.083 M175.700 93.076 C 176.085 93.176,176.715 93.176,177.100 93.076 C 177.485 92.975,177.170 92.893,176.400 92.893 C 175.630 92.893,175.315 92.975,175.700 93.076 M165.300 93.494 C 166.345 93.576,168.055 93.576,169.100 93.494 C 170.145 93.412,169.290 93.344,167.200 93.344 C 165.110 93.344,164.255 93.412,165.300 93.494 M131.734 97.200 C 131.734 98.850,131.805 99.525,131.891 98.700 C 131.978 97.875,131.978 96.525,131.891 95.700 C 131.805 94.875,131.734 95.550,131.734 97.200 M293.693 98.400 C 293.693 99.170,293.775 99.485,293.876 99.100 C 293.976 98.715,293.976 98.085,293.876 97.700 C 293.775 97.315,293.693 97.630,293.693 98.400 M90.476 110.699 C 93.268 110.767,97.948 110.768,100.876 110.699 C 103.804 110.631,101.520 110.575,95.800 110.574 C 90.080 110.574,87.684 110.630,90.476 110.699 M59.317 111.097 C 60.811 111.174,63.151 111.174,64.517 111.096 C 65.882 111.018,64.660 110.955,61.800 110.955 C 58.940 110.956,57.822 111.020,59.317 111.097 M163.693 135.200 C 163.693 135.970,163.775 136.285,163.876 135.900 C 163.976 135.515,163.976 134.885,163.876 134.500 C 163.775 134.115,163.693 134.430,163.693 135.200 M164.180 154.200 C 164.180 161.680,164.234 164.683,164.299 160.874 C 164.365 157.065,164.365 150.945,164.299 147.274 C 164.233 143.603,164.179 146.720,164.180 154.200 M186.501 160.200 C 186.505 161.080,186.587 161.393,186.683 160.895 C 186.779 160.398,186.775 159.678,186.675 159.295 C 186.575 158.913,186.496 159.320,186.501 160.200 M185.701 170.600 C 185.705 171.480,185.787 171.793,185.883 171.295 C 185.979 170.798,185.975 170.078,185.875 169.695 C 185.775 169.313,185.696 169.720,185.701 170.600 M164.493 171.600 C 164.493 172.370,164.575 172.685,164.676 172.300 C 164.776 171.915,164.776 171.285,164.676 170.900 C 164.575 170.515,164.493 170.830,164.493 171.600 M338.120 174.000 C 338.120 175.210,338.195 175.705,338.287 175.100 C 338.378 174.495,338.378 173.505,338.287 172.900 C 338.195 172.295,338.120 172.790,338.120 174.000 M72.901 183.800 C 72.905 184.680,72.987 184.993,73.083 184.495 C 73.179 183.998,73.175 183.278,73.075 182.895 C 72.975 182.513,72.896 182.920,72.901 183.800 M186.524 191.400 C 186.526 192.720,186.601 193.212,186.690 192.493 C 186.779 191.774,186.777 190.694,186.686 190.093 C 186.595 189.492,186.522 190.080,186.524 191.400 M186.981 211.400 C 186.981 219.540,187.034 222.813,187.100 218.674 C 187.165 214.534,187.165 207.874,187.099 203.874 C 187.034 199.873,186.981 203.260,186.981 211.400 M108.540 210.000 C 108.540 211.870,108.609 212.635,108.693 211.700 C 108.777 210.765,108.777 209.235,108.693 208.300 C 108.609 207.365,108.540 208.130,108.540 210.000 M317.693 212.800 C 317.693 213.570,317.775 213.885,317.876 213.500 C 317.976 213.115,317.976 212.485,317.876 212.100 C 317.775 211.715,317.693 212.030,317.693 212.800 M339.293 214.400 C 339.293 215.170,339.375 215.485,339.476 215.100 C 339.576 214.715,339.576 214.085,339.476 213.700 C 339.375 213.315,339.293 213.630,339.293 214.400 M318.173 226.400 C 318.173 231.790,318.230 233.995,318.299 231.300 C 318.368 228.605,318.368 224.195,318.299 221.500 C 318.230 218.805,318.173 221.010,318.173 226.400 M167.342 224.600 C 167.341 226.580,167.408 227.440,167.492 226.512 C 167.576 225.584,167.577 223.964,167.495 222.912 C 167.412 221.860,167.343 222.620,167.342 224.600 M338.901 223.400 C 338.905 224.280,338.987 224.593,339.083 224.095 C 339.179 223.598,339.175 222.878,339.075 222.495 C 338.975 222.113,338.896 222.520,338.901 223.400 M166.901 232.600 C 166.905 233.480,166.987 233.793,167.083 233.295 C 167.179 232.798,167.175 232.078,167.075 231.695 C 166.975 231.313,166.896 231.720,166.901 232.600 M338.520 233.200 C 338.520 234.410,338.595 234.905,338.687 234.300 C 338.778 233.695,338.778 232.705,338.687 232.100 C 338.595 231.495,338.520 231.990,338.520 233.200 M267.000 238.000 C 267.859 238.880,268.652 239.600,268.762 239.600 C 268.872 239.600,268.259 238.880,267.400 238.000 C 266.541 237.120,265.748 236.400,265.638 236.400 C 265.528 236.400,266.141 237.120,267.000 238.000 M187.351 248.000 C 187.351 250.530,187.416 251.565,187.496 250.300 C 187.575 249.035,187.575 246.965,187.496 245.700 C 187.416 244.435,187.351 245.470,187.351 248.000 M316.200 294.000 C 318.612 296.420,320.676 298.400,320.786 298.400 C 320.896 298.400,319.012 296.420,316.600 294.000 C 314.188 291.580,312.124 289.600,312.014 289.600 C 311.904 289.600,313.788 291.580,316.200 294.000 M87.905 300.283 C 88.402 300.379,89.122 300.375,89.505 300.275 C 89.887 300.175,89.480 300.096,88.600 300.101 C 87.720 300.105,87.407 300.187,87.905 300.283 M102.500 300.287 C 103.105 300.378,104.095 300.378,104.700 300.287 C 105.305 300.195,104.810 300.120,103.600 300.120 C 102.390 300.120,101.895 300.195,102.500 300.287 M70.500 301.087 C 71.105 301.178,72.095 301.178,72.700 301.087 C 73.305 300.995,72.810 300.920,71.600 300.920 C 70.390 300.920,69.895 300.995,70.500 301.087 M395.265 371.417 C 395.009 371.978,394.815 373.104,394.834 373.919 C 394.863 375.211,394.934 375.093,395.388 373.000 C 395.973 370.303,395.944 369.928,395.265 371.417 M392.254 380.722 C 391.057 382.449,390.813 383.406,391.940 381.954 C 392.781 380.870,393.708 379.200,393.468 379.200 C 393.381 379.200,392.834 379.885,392.254 380.722 M7.682 384.300 C 7.938 384.905,8.389 385.668,8.684 385.996 C 8.979 386.323,8.851 385.828,8.401 384.896 C 7.493 383.018,6.949 382.566,7.682 384.300 M386.774 387.431 C 386.486 387.778,384.844 388.978,383.125 390.098 C 381.406 391.217,380.071 392.204,380.157 392.290 C 380.385 392.518,386.062 388.642,386.962 387.645 C 387.381 387.180,387.628 386.800,387.511 386.800 C 387.394 386.800,387.062 387.084,386.774 387.431 M10.391 388.788 C 10.857 389.441,11.442 390.102,11.691 390.256 C 11.941 390.411,11.641 389.876,11.025 389.068 C 9.688 387.315,9.184 387.092,10.391 388.788 M375.549 394.265 C 375.047 394.874,375.085 394.887,376.000 394.411 C 377.341 393.714,377.442 393.600,376.716 393.600 C 376.376 393.600,375.851 393.899,375.549 394.265 M19.600 395.400 C 20.150 395.714,20.780 395.972,21.000 395.972 C 21.220 395.972,20.950 395.714,20.400 395.400 C 19.850 395.086,19.220 394.828,19.000 394.828 C 18.780 394.828,19.050 395.086,19.600 395.400 M23.000 396.503 C 23.941 396.888,60.941 396.995,194.600 397.000 L 365.000 397.006 195.000 396.767 C 101.500 396.636,24.280 396.413,23.400 396.271 C 21.835 396.018,21.826 396.023,23.000 396.503 M367.000 396.285 C 365.121 396.737,365.747 397.056,367.863 396.724 C 369.132 396.525,370.253 396.281,370.352 396.181 C 370.582 395.951,368.062 396.030,367.000 396.285 " stroke="none" fill="#7692cc" fill-rule="evenodd"></path><path id="path3" d="M28.400 4.816 C 20.674 6.603,17.061 8.557,11.785 13.800 C 8.932 16.636,5.811 21.230,5.400 23.200 C 5.239 23.970,4.935 24.815,4.723 25.078 C 4.512 25.341,4.397 25.971,4.469 26.478 C 4.569 27.183,4.723 26.976,5.124 25.600 C 8.153 15.199,17.674 7.173,29.334 5.193 C 34.347 4.341,372.140 4.872,375.000 5.735 C 385.856 9.014,392.600 16.069,395.378 27.058 C 396.152 30.117,396.347 369.023,395.577 372.880 C 393.260 384.489,383.304 393.469,369.321 396.563 C 364.892 397.543,27.477 397.539,23.079 396.558 C 14.172 394.574,7.742 387.777,4.953 377.400 C 4.221 374.679,4.200 369.698,4.200 201.000 C 4.200 105.520,4.078 28.210,3.930 29.200 C 3.451 32.385,3.549 372.907,4.029 375.280 C 6.424 387.127,11.741 393.451,22.152 396.835 C 24.453 397.583,28.242 397.600,196.206 397.600 C 379.465 397.600,367.718 397.711,373.600 395.924 C 382.206 393.310,391.923 385.285,394.323 378.810 C 396.598 372.670,396.400 389.684,396.400 200.255 C 396.400 13.772,396.555 28.155,394.485 22.600 C 392.050 16.063,387.206 10.793,380.534 7.420 C 377.986 6.132,376.684 5.700,372.600 4.791 C 370.589 4.343,30.337 4.368,28.400 4.816 M311.107 92.290 C 311.826 92.379,312.906 92.377,313.507 92.286 C 314.108 92.195,313.520 92.122,312.200 92.124 C 310.880 92.126,310.388 92.201,311.107 92.290 M347.105 92.283 C 347.602 92.379,348.322 92.375,348.705 92.275 C 349.087 92.175,348.680 92.096,347.800 92.101 C 346.920 92.105,346.607 92.187,347.105 92.283 M143.700 92.687 C 144.305 92.778,145.295 92.778,145.900 92.687 C 146.505 92.595,146.010 92.520,144.800 92.520 C 143.590 92.520,143.095 92.595,143.700 92.687 M187.305 92.687 C 187.914 92.779,188.814 92.777,189.305 92.682 C 189.797 92.587,189.300 92.511,188.200 92.514 C 187.100 92.517,186.697 92.595,187.305 92.687 M320.900 92.691 C 321.725 92.778,323.075 92.778,323.900 92.691 C 324.725 92.605,324.050 92.534,322.400 92.534 C 320.750 92.534,320.075 92.605,320.900 92.691 M340.700 92.682 C 341.195 92.778,342.005 92.778,342.500 92.682 C 342.995 92.587,342.590 92.509,341.600 92.509 C 340.610 92.509,340.205 92.587,340.700 92.682 M150.700 93.089 C 151.415 93.178,152.585 93.178,153.300 93.089 C 154.015 93.001,153.430 92.928,152.000 92.928 C 150.570 92.928,149.985 93.001,150.700 93.089 M180.307 93.090 C 181.026 93.179,182.106 93.177,182.707 93.086 C 183.308 92.995,182.720 92.922,181.400 92.924 C 180.080 92.926,179.588 93.001,180.307 93.090 M330.900 93.096 C 332.165 93.175,334.235 93.175,335.500 93.096 C 336.765 93.016,335.730 92.951,333.200 92.951 C 330.670 92.951,329.635 93.016,330.900 93.096 M158.100 93.487 C 158.705 93.578,159.695 93.578,160.300 93.487 C 160.905 93.395,160.410 93.320,159.200 93.320 C 157.990 93.320,157.495 93.395,158.100 93.487 M174.105 93.487 C 174.714 93.579,175.614 93.577,176.105 93.482 C 176.597 93.387,176.100 93.311,175.000 93.314 C 173.900 93.317,173.497 93.395,174.105 93.487 M198.800 94.600 C 199.546 95.370,200.247 96.000,200.357 96.000 C 200.467 96.000,199.946 95.370,199.200 94.600 C 198.454 93.830,197.753 93.200,197.643 93.200 C 197.533 93.200,198.054 93.830,198.800 94.600 M364.078 96.067 C 364.027 98.083,363.829 99.202,363.500 99.335 C 363.108 99.493,363.111 99.544,363.513 99.568 C 364.285 99.616,364.453 98.797,364.298 95.760 L 364.157 93.000 364.078 96.067 M166.100 93.887 C 166.705 93.978,167.695 93.978,168.300 93.887 C 168.905 93.795,168.410 93.720,167.200 93.720 C 165.990 93.720,165.495 93.795,166.100 93.887 M46.880 110.880 C 46.616 111.144,46.400 111.538,46.400 111.756 C 46.400 111.975,46.625 111.859,46.900 111.499 C 47.175 111.139,48.030 110.774,48.800 110.686 L 50.200 110.528 48.780 110.464 C 47.999 110.429,47.144 110.616,46.880 110.880 M125.500 110.698 C 127.535 110.771,130.865 110.771,132.900 110.698 C 134.935 110.625,133.270 110.566,129.200 110.566 C 125.130 110.566,123.465 110.625,125.500 110.698 M80.100 111.099 C 83.125 111.167,88.075 111.167,91.100 111.099 C 94.125 111.031,91.650 110.975,85.600 110.975 C 79.550 110.975,77.075 111.031,80.100 111.099 M163.465 112.000 C 163.720 112.330,164.008 113.140,164.105 113.800 L 164.280 115.000 164.340 113.749 C 164.377 112.977,164.132 112.288,163.700 111.949 C 163.091 111.471,163.060 111.478,163.465 112.000 M163.324 123.400 C 163.326 124.720,163.401 125.212,163.490 124.493 C 163.579 123.774,163.577 122.694,163.486 122.093 C 163.395 121.492,163.322 122.080,163.324 123.400 M163.720 130.800 C 163.720 132.010,163.795 132.505,163.887 131.900 C 163.978 131.295,163.978 130.305,163.887 129.700 C 163.795 129.095,163.720 129.590,163.720 130.800 M164.120 137.200 C 164.120 138.410,164.195 138.905,164.287 138.300 C 164.378 137.695,164.378 136.705,164.287 136.100 C 164.195 135.495,164.120 135.990,164.120 137.200 M184.109 142.800 C 184.109 143.790,184.187 144.195,184.282 143.700 C 184.378 143.205,184.378 142.395,184.282 141.900 C 184.187 141.405,184.109 141.810,184.109 142.800 M316.114 146.600 C 316.117 147.700,316.195 148.103,316.287 147.495 C 316.379 146.886,316.377 145.986,316.282 145.495 C 316.187 145.003,316.111 145.500,316.114 146.600 M336.948 150.400 C 336.948 152.710,337.014 153.655,337.095 152.500 C 337.176 151.345,337.176 149.455,337.095 148.300 C 337.014 147.145,336.948 148.090,336.948 150.400 M108.954 154.400 C 108.954 157.150,109.018 158.275,109.096 156.900 C 109.174 155.525,109.174 153.275,109.096 151.900 C 109.018 150.525,108.954 151.650,108.954 154.400 M72.966 160.800 C 72.966 164.870,73.025 166.535,73.098 164.500 C 73.171 162.465,73.171 159.135,73.098 157.100 C 73.025 155.065,72.966 156.730,72.966 160.800 M337.309 162.400 C 337.309 163.390,337.387 163.795,337.482 163.300 C 337.578 162.805,337.578 161.995,337.482 161.500 C 337.387 161.005,337.309 161.410,337.309 162.400 M316.901 163.800 C 316.905 164.680,316.987 164.993,317.083 164.495 C 317.179 163.998,317.175 163.278,317.075 162.895 C 316.975 162.513,316.896 162.920,316.901 163.800 M164.514 167.800 C 164.517 168.900,164.595 169.303,164.687 168.695 C 164.779 168.086,164.777 167.186,164.682 166.695 C 164.587 166.203,164.511 166.700,164.514 167.800 M337.714 171.000 C 337.717 172.100,337.795 172.503,337.887 171.895 C 337.979 171.286,337.977 170.386,337.882 169.895 C 337.787 169.403,337.711 169.900,337.714 171.000 M185.728 175.600 C 185.728 177.030,185.801 177.615,185.889 176.900 C 185.978 176.185,185.978 175.015,185.889 174.300 C 185.801 173.585,185.728 174.170,185.728 175.600 M338.181 192.800 C 338.181 200.830,338.234 204.115,338.299 200.100 C 338.365 196.085,338.365 189.515,338.299 185.500 C 338.234 181.485,338.181 184.770,338.181 192.800 M73.293 182.400 C 73.293 183.170,73.375 183.485,73.476 183.100 C 73.576 182.715,73.576 182.085,73.476 181.700 C 73.375 181.315,73.293 181.630,73.293 182.400 M186.114 187.000 C 186.117 188.100,186.195 188.503,186.287 187.895 C 186.379 187.286,186.377 186.386,186.282 185.895 C 186.187 185.403,186.111 185.900,186.114 187.000 M108.567 196.000 C 108.567 200.290,108.626 202.045,108.698 199.900 C 108.770 197.755,108.770 194.245,108.698 192.100 C 108.626 189.955,108.567 191.710,108.567 196.000 M72.574 203.400 C 72.575 209.120,72.631 211.404,72.699 208.476 C 72.768 205.548,72.767 200.868,72.699 198.076 C 72.630 195.284,72.574 197.680,72.574 203.400 M186.580 208.600 C 186.580 216.080,186.634 219.083,186.699 215.274 C 186.765 211.465,186.765 205.345,186.699 201.674 C 186.633 198.003,186.579 201.120,186.580 208.600 M166.109 203.600 C 166.109 204.590,166.187 204.995,166.282 204.500 C 166.378 204.005,166.378 203.195,166.282 202.700 C 166.187 202.205,166.109 202.610,166.109 203.600 M318.909 203.600 C 318.909 204.590,318.987 204.995,319.082 204.500 C 319.178 204.005,319.178 203.195,319.082 202.700 C 318.987 202.205,318.909 202.610,318.909 203.600 M292.200 214.800 C 293.506 216.120,294.665 217.200,294.775 217.200 C 294.885 217.200,293.906 216.120,292.600 214.800 C 291.294 213.480,290.135 212.400,290.025 212.400 C 289.915 212.400,290.894 213.480,292.200 214.800 M318.093 215.200 C 318.093 215.970,318.175 216.285,318.276 215.900 C 318.376 215.515,318.376 214.885,318.276 214.500 C 318.175 214.115,318.093 214.430,318.093 215.200 M338.920 218.800 C 338.920 220.010,338.995 220.505,339.087 219.900 C 339.178 219.295,339.178 218.305,339.087 217.700 C 338.995 217.095,338.920 217.590,338.920 218.800 M318.573 227.000 C 318.573 232.500,318.630 234.805,318.699 232.123 C 318.768 229.441,318.768 224.941,318.699 222.123 C 318.630 219.305,318.574 221.500,318.573 227.000 M72.028 218.200 C 72.028 218.420,72.286 219.050,72.600 219.600 C 72.914 220.150,73.172 220.420,73.172 220.200 C 73.172 219.980,72.914 219.350,72.600 218.800 C 72.286 218.250,72.028 217.980,72.028 218.200 M338.534 226.400 C 338.534 228.050,338.605 228.725,338.691 227.900 C 338.778 227.075,338.778 225.725,338.691 224.900 C 338.605 224.075,338.534 224.750,338.534 226.400 M259.983 230.100 C 260.964 231.145,261.819 232.000,261.883 232.000 C 262.184 232.000,261.866 231.641,260.100 229.983 L 258.200 228.200 259.983 230.100 M167.301 231.000 C 167.305 231.880,167.387 232.193,167.483 231.695 C 167.579 231.198,167.575 230.478,167.475 230.095 C 167.375 229.713,167.296 230.120,167.301 231.000 M305.600 230.925 C 305.600 230.994,306.185 231.579,306.900 232.225 L 308.200 233.400 307.025 232.100 C 305.930 230.888,305.600 230.616,305.600 230.925 M338.134 234.800 C 338.134 236.450,338.205 237.125,338.291 236.300 C 338.378 235.475,338.378 234.125,338.291 233.300 C 338.205 232.475,338.134 233.150,338.134 234.800 M186.967 240.400 C 186.967 244.690,187.026 246.445,187.098 244.300 C 187.170 242.155,187.170 238.645,187.098 236.500 C 187.026 234.355,186.967 236.110,186.967 240.400 M265.200 235.800 C 266.395 237.010,267.463 238.000,267.573 238.000 C 267.683 238.000,266.795 237.010,265.600 235.800 C 264.405 234.590,263.337 233.600,263.227 233.600 C 263.117 233.600,264.005 234.590,265.200 235.800 M108.161 242.000 C 108.161 245.410,108.222 246.805,108.297 245.100 C 108.372 243.395,108.372 240.605,108.297 238.900 C 108.222 237.195,108.161 238.590,108.161 242.000 M275.000 246.000 C 275.859 246.880,276.652 247.600,276.762 247.600 C 276.872 247.600,276.259 246.880,275.400 246.000 C 274.541 245.120,273.748 244.400,273.638 244.400 C 273.528 244.400,274.141 245.120,275.000 246.000 M167.693 256.400 C 167.693 257.170,167.775 257.485,167.876 257.100 C 167.976 256.715,167.976 256.085,167.876 255.700 C 167.775 255.315,167.693 255.630,167.693 256.400 M187.331 259.400 C 187.333 260.940,187.405 261.521,187.492 260.691 C 187.579 259.861,187.577 258.601,187.489 257.891 C 187.400 257.181,187.329 257.860,187.331 259.400 M107.314 259.000 C 107.317 260.100,107.395 260.503,107.487 259.895 C 107.579 259.286,107.577 258.386,107.482 257.895 C 107.387 257.403,107.311 257.900,107.314 259.000 M75.701 265.000 C 75.705 265.880,75.787 266.193,75.883 265.695 C 75.979 265.198,75.975 264.478,75.875 264.095 C 75.775 263.713,75.696 264.120,75.701 265.000 M291.200 266.125 C 291.200 266.194,291.785 266.779,292.500 267.425 L 293.800 268.600 292.625 267.300 C 291.530 266.088,291.200 265.816,291.200 266.125 M76.501 273.800 C 76.505 274.680,76.587 274.993,76.683 274.495 C 76.779 273.998,76.775 273.278,76.675 272.895 C 76.575 272.513,76.496 272.920,76.501 273.800 M306.800 283.800 C 307.546 284.570,308.247 285.200,308.357 285.200 C 308.467 285.200,307.946 284.570,307.200 283.800 C 306.454 283.030,305.753 282.400,305.643 282.400 C 305.533 282.400,306.054 283.030,306.800 283.800 M194.400 283.325 C 194.400 283.394,194.985 283.979,195.700 284.625 L 197.000 285.800 195.825 284.500 C 194.730 283.288,194.400 283.016,194.400 283.325 M311.400 288.800 C 312.706 290.120,313.865 291.200,313.975 291.200 C 314.085 291.200,313.106 290.120,311.800 288.800 C 310.494 287.480,309.335 286.400,309.225 286.400 C 309.115 286.400,310.094 287.480,311.400 288.800 M168.470 299.900 C 176.539 299.960,189.859 299.960,198.070 299.900 C 206.282 299.839,199.680 299.790,183.400 299.790 C 167.120 299.790,160.402 299.839,168.470 299.900 M326.700 299.889 C 327.415 299.978,328.585 299.978,329.300 299.889 C 330.015 299.801,329.430 299.728,328.000 299.728 C 326.570 299.728,325.985 299.801,326.700 299.889 M98.900 300.276 C 99.285 300.376,99.915 300.376,100.300 300.276 C 100.685 300.175,100.370 300.093,99.600 300.093 C 98.830 300.093,98.515 300.175,98.900 300.276 M107.500 300.282 C 107.995 300.378,108.805 300.378,109.300 300.282 C 109.795 300.187,109.390 300.109,108.400 300.109 C 107.410 300.109,107.005 300.187,107.500 300.282 M123.600 300.400 L 113.400 300.621 123.476 300.710 C 129.861 300.767,133.643 300.653,133.800 300.400 C 133.936 300.180,133.992 300.040,133.924 300.090 C 133.856 300.139,129.210 300.279,123.600 300.400 M80.291 300.689 C 81.001 300.777,82.261 300.779,83.091 300.692 C 83.921 300.605,83.340 300.533,81.800 300.531 C 80.260 300.529,79.581 300.600,80.291 300.689 M63.700 301.091 C 64.525 301.178,65.875 301.178,66.700 301.091 C 67.525 301.005,66.850 300.934,65.200 300.934 C 63.550 300.934,62.875 301.005,63.700 301.091 " stroke="none" fill="#8fa8d6" fill-rule="evenodd"></path><path id="path4" d="M375.600 6.762 C 375.600 7.094,377.241 7.692,377.484 7.449 C 377.550 7.384,377.153 7.125,376.602 6.874 C 376.051 6.623,375.600 6.572,375.600 6.762 M382.800 9.672 C 382.800 9.788,383.250 10.369,383.800 10.962 C 384.350 11.556,384.800 11.883,384.800 11.690 C 384.800 11.497,384.350 10.917,383.800 10.400 C 383.250 9.883,382.800 9.556,382.800 9.672 M392.253 20.785 C 392.582 21.445,393.007 22.081,393.198 22.199 C 393.389 22.317,393.276 21.874,392.947 21.215 C 392.618 20.555,392.193 19.919,392.002 19.801 C 391.811 19.683,391.924 20.126,392.253 20.785 M7.462 21.131 C 7.098 21.534,6.800 22.149,6.800 22.498 C 6.800 22.848,6.616 23.225,6.390 23.337 C 6.165 23.449,6.210 23.494,6.490 23.437 C 6.771 23.380,7.064 22.989,7.141 22.567 C 7.219 22.145,7.562 21.485,7.903 21.100 C 8.245 20.715,8.434 20.400,8.324 20.400 C 8.214 20.400,7.826 20.729,7.462 21.131 M394.806 30.500 C 394.809 30.775,394.967 31.244,395.156 31.543 C 395.399 31.926,395.500 31.779,395.500 31.043 C 395.500 30.469,395.343 30.000,395.150 30.000 C 394.957 30.000,394.803 30.225,394.806 30.500 M134.700 101.082 C 135.195 101.178,136.005 101.178,136.500 101.082 C 136.995 100.987,136.590 100.909,135.600 100.909 C 134.610 100.909,134.205 100.987,134.700 101.082 M126.905 110.287 C 127.514 110.379,128.414 110.377,128.905 110.282 C 129.397 110.187,128.900 110.111,127.800 110.114 C 126.700 110.117,126.297 110.195,126.905 110.287 M82.307 110.690 C 83.026 110.779,84.106 110.777,84.707 110.686 C 85.308 110.595,84.720 110.522,83.400 110.524 C 82.080 110.526,81.588 110.601,82.307 110.690 M337.693 163.600 C 337.693 164.370,337.775 164.685,337.876 164.300 C 337.976 163.915,337.976 163.285,337.876 162.900 C 337.775 162.515,337.693 162.830,337.693 163.600 M316.514 165.800 C 316.517 166.900,316.595 167.303,316.687 166.695 C 316.779 166.086,316.777 165.186,316.682 164.695 C 316.587 164.203,316.511 164.700,316.514 165.800 M108.944 177.600 C 108.944 179.690,109.012 180.545,109.094 179.500 C 109.176 178.455,109.176 176.745,109.094 175.700 C 109.012 174.655,108.944 175.510,108.944 177.600 M186.124 179.400 C 186.126 180.720,186.201 181.212,186.290 180.493 C 186.379 179.774,186.377 178.694,186.286 178.093 C 186.195 177.492,186.122 178.080,186.124 179.400 M108.951 186.000 C 108.951 188.530,109.016 189.565,109.096 188.300 C 109.175 187.035,109.175 184.965,109.096 183.700 C 109.016 182.435,108.951 183.470,108.951 186.000 M270.000 241.310 C 270.000 241.371,271.395 242.766,273.100 244.410 L 276.200 247.400 273.210 244.300 C 270.433 241.421,270.000 241.017,270.000 241.310 M339.773 255.400 C 339.773 260.680,339.830 262.785,339.899 260.077 C 339.968 257.369,339.968 253.049,339.899 250.477 C 339.829 247.905,339.772 250.120,339.773 255.400 M339.782 281.000 C 339.782 289.800,339.835 293.343,339.900 288.873 C 339.964 284.404,339.964 277.204,339.899 272.873 C 339.835 268.543,339.782 272.200,339.782 281.000 M7.160 382.200 C 7.834 383.505,8.388 384.228,8.385 383.800 C 8.383 383.580,8.014 382.950,7.564 382.400 C 7.021 381.736,6.885 381.669,7.160 382.200 M385.200 388.200 C 384.926 388.530,384.465 388.800,384.175 388.800 C 383.885 388.800,383.540 388.973,383.410 389.184 C 383.266 389.416,383.639 389.405,384.354 389.156 C 385.004 388.929,385.635 388.487,385.755 388.172 C 386.039 387.434,385.827 387.444,385.200 388.200 M364.226 396.358 C 364.105 396.554,364.437 396.689,364.964 396.658 C 365.492 396.626,365.840 396.465,365.738 396.300 C 365.482 395.885,364.495 395.923,364.226 396.358 " stroke="none" fill="#157cd4" fill-rule="evenodd"></path><path id="path5" d="M4.198 201.600 C 4.198 295.210,4.244 333.505,4.300 286.700 C 4.356 239.895,4.356 163.305,4.300 116.500 C 4.244 69.695,4.198 107.990,4.198 201.600 M161.700 93.476 C 162.085 93.576,162.715 93.576,163.100 93.476 C 163.485 93.375,163.170 93.293,162.400 93.293 C 161.630 93.293,161.315 93.375,161.700 93.476 M171.300 93.476 C 171.685 93.576,172.315 93.576,172.700 93.476 C 173.085 93.375,172.770 93.293,172.000 93.293 C 171.230 93.293,170.915 93.375,171.300 93.476 M109.900 110.698 C 112.155 110.770,115.845 110.770,118.100 110.698 C 120.355 110.627,118.510 110.569,114.000 110.569 C 109.490 110.569,107.645 110.627,109.900 110.698 M68.700 111.095 C 69.855 111.176,71.745 111.176,72.900 111.095 C 74.055 111.014,73.110 110.948,70.800 110.948 C 68.490 110.948,67.545 111.014,68.700 111.095 M108.914 161.000 C 108.917 162.100,108.995 162.503,109.087 161.895 C 109.179 161.286,109.177 160.386,109.082 159.895 C 108.987 159.403,108.911 159.900,108.914 161.000 M338.093 177.200 C 338.093 177.970,338.175 178.285,338.276 177.900 C 338.376 177.515,338.376 176.885,338.276 176.500 C 338.175 176.115,338.093 176.430,338.093 177.200 M263.720 187.600 C 263.720 188.810,263.795 189.305,263.887 188.700 C 263.978 188.095,263.978 187.105,263.887 186.500 C 263.795 185.895,263.720 186.390,263.720 187.600 M108.509 205.200 C 108.509 206.190,108.587 206.595,108.682 206.100 C 108.778 205.605,108.778 204.795,108.682 204.300 C 108.587 203.805,108.509 204.210,108.509 205.200 M186.942 229.400 C 186.941 231.380,187.008 232.240,187.092 231.312 C 187.176 230.384,187.177 228.764,187.095 227.712 C 187.012 226.660,186.943 227.420,186.942 229.400 M270.000 241.000 C 270.746 241.770,271.447 242.400,271.557 242.400 C 271.667 242.400,271.146 241.770,270.400 241.000 C 269.654 240.230,268.953 239.600,268.843 239.600 C 268.733 239.600,269.254 240.230,270.000 241.000 M108.109 249.600 C 108.109 250.590,108.187 250.995,108.282 250.500 C 108.378 250.005,108.378 249.195,108.282 248.700 C 108.187 248.205,108.109 248.610,108.109 249.600 M187.324 254.600 C 187.326 255.920,187.401 256.412,187.490 255.693 C 187.579 254.974,187.577 253.894,187.486 253.293 C 187.395 252.692,187.322 253.280,187.324 254.600 M133.300 294.276 C 133.685 294.376,134.315 294.376,134.700 294.276 C 135.085 294.175,134.770 294.093,134.000 294.093 C 133.230 294.093,132.915 294.175,133.300 294.276 M388.778 385.900 L 387.400 387.400 388.900 386.022 C 390.296 384.738,390.584 384.400,390.278 384.400 C 390.212 384.400,389.537 385.075,388.778 385.900 " stroke="none" fill="#84a4d4" fill-rule="evenodd"></path><path id="path6" d="M32.267 5.467 C 32.120 5.613,32.000 5.866,32.000 6.029 C 32.000 6.414,33.546 6.010,33.830 5.552 C 34.081 5.145,32.666 5.068,32.267 5.467 M27.083 6.279 C 25.880 6.591,24.158 7.595,24.820 7.598 C 25.161 7.599,25.611 7.436,25.820 7.235 C 26.029 7.035,27.010 6.694,28.000 6.478 C 28.990 6.262,29.350 6.087,28.800 6.089 C 28.250 6.091,27.477 6.177,27.083 6.279 M372.800 6.400 C 374.168 6.838,375.219 6.838,374.200 6.400 C 373.760 6.211,373.040 6.062,372.600 6.068 C 371.957 6.077,371.996 6.143,372.800 6.400 M19.800 9.200 C 19.664 9.420,19.214 9.600,18.800 9.600 C 18.386 9.600,17.952 9.754,17.836 9.942 C 17.488 10.504,19.537 9.958,20.037 9.356 C 20.290 9.050,20.397 8.800,20.273 8.800 C 20.149 8.800,19.936 8.980,19.800 9.200 M380.732 9.256 C 381.231 9.920,383.354 10.573,382.964 9.942 C 382.848 9.754,382.439 9.600,382.056 9.600 C 381.673 9.600,381.108 9.375,380.799 9.100 C 380.327 8.679,380.317 8.704,380.732 9.256 M16.400 11.400 C 16.126 11.730,15.727 12.000,15.514 12.000 C 15.301 12.000,14.669 12.360,14.109 12.800 C 12.384 14.157,13.743 13.683,15.828 12.200 C 16.911 11.430,17.595 10.800,17.348 10.800 C 17.100 10.800,16.674 11.070,16.400 11.400 M383.893 11.600 C 384.270 12.040,384.793 12.400,385.056 12.400 C 385.318 12.400,385.614 12.625,385.712 12.900 C 385.810 13.175,386.023 13.277,386.185 13.127 C 386.641 12.704,386.037 12.000,385.219 12.000 C 384.816 12.000,384.382 11.730,384.255 11.400 C 384.129 11.070,383.841 10.800,383.616 10.800 C 383.392 10.800,383.516 11.160,383.893 11.600 M11.397 15.715 C 11.175 15.982,10.693 16.670,10.324 17.244 C 9.956 17.818,9.351 18.592,8.980 18.963 C 8.609 19.334,8.391 19.724,8.497 19.830 C 8.602 19.935,9.202 19.342,9.830 18.511 C 10.457 17.680,11.203 16.762,11.486 16.471 C 11.768 16.181,12.000 15.776,12.000 15.571 C 12.000 15.094,11.892 15.120,11.397 15.715 M388.811 15.876 C 388.817 16.054,389.389 16.740,390.082 17.400 L 391.341 18.600 390.452 17.312 C 389.521 15.964,388.792 15.326,388.811 15.876 M392.400 21.951 C 392.400 22.198,392.580 22.400,392.800 22.400 C 393.020 22.400,393.200 23.101,393.200 23.957 C 393.200 25.072,393.399 25.590,393.900 25.781 C 394.461 25.995,394.501 25.948,394.100 25.544 C 393.825 25.267,393.600 24.468,393.600 23.769 C 393.600 23.070,393.330 22.274,393.000 22.000 C 392.585 21.656,392.400 21.641,392.400 21.951 M6.500 23.465 C 6.225 23.576,6.025 24.237,6.054 24.933 C 6.102 26.029,6.134 26.065,6.293 25.200 C 6.394 24.650,6.661 23.975,6.887 23.700 C 7.324 23.169,7.288 23.147,6.500 23.465 M394.478 29.506 C 394.574 30.884,394.892 32.234,395.185 32.506 C 395.621 32.910,395.657 32.854,395.386 32.200 C 395.203 31.760,395.008 30.526,394.952 29.458 C 394.896 28.390,394.727 27.400,394.577 27.258 C 394.427 27.116,394.382 28.128,394.478 29.506 M4.800 202.000 C 4.800 296.893,4.891 374.442,5.003 374.330 C 5.270 374.063,5.272 29.939,5.005 29.672 C 4.892 29.559,4.800 107.107,4.800 202.000 M395.744 36.800 C 395.744 38.890,395.812 39.745,395.894 38.700 C 395.976 37.655,395.976 35.945,395.894 34.900 C 395.812 33.855,395.744 34.710,395.744 36.800 M395.693 42.000 C 395.693 42.770,395.775 43.085,395.876 42.700 C 395.976 42.315,395.976 41.685,395.876 41.300 C 395.775 40.915,395.693 41.230,395.693 42.000 M395.709 45.200 C 395.709 46.190,395.787 46.595,395.882 46.100 C 395.978 45.605,395.978 44.795,395.882 44.300 C 395.787 43.805,395.709 44.210,395.709 45.200 M395.693 48.800 C 395.693 49.570,395.775 49.885,395.876 49.500 C 395.976 49.115,395.976 48.485,395.876 48.100 C 395.775 47.715,395.693 48.030,395.693 48.800 M395.746 57.400 C 395.747 59.600,395.814 60.449,395.895 59.287 C 395.976 58.124,395.976 56.324,395.893 55.287 C 395.811 54.249,395.745 55.200,395.746 57.400 M395.714 63.800 C 395.717 64.900,395.795 65.303,395.887 64.695 C 395.979 64.086,395.977 63.186,395.882 62.695 C 395.787 62.203,395.711 62.700,395.714 63.800 M395.693 67.200 C 395.693 67.970,395.775 68.285,395.876 67.900 C 395.976 67.515,395.976 66.885,395.876 66.500 C 395.775 66.115,395.693 66.430,395.693 67.200 M395.714 70.600 C 395.717 71.700,395.795 72.103,395.887 71.495 C 395.979 70.886,395.977 69.986,395.882 69.495 C 395.787 69.003,395.711 69.500,395.714 70.600 M395.709 76.800 C 395.709 77.790,395.787 78.195,395.882 77.700 C 395.978 77.205,395.978 76.395,395.882 75.900 C 395.787 75.405,395.709 75.810,395.709 76.800 M395.693 80.400 C 395.693 81.170,395.775 81.485,395.876 81.100 C 395.976 80.715,395.976 80.085,395.876 79.700 C 395.775 79.315,395.693 79.630,395.693 80.400 M395.714 84.200 C 395.717 85.300,395.795 85.703,395.887 85.095 C 395.979 84.486,395.977 83.586,395.882 83.095 C 395.787 82.603,395.711 83.100,395.714 84.200 M395.731 89.000 C 395.733 90.540,395.805 91.121,395.892 90.291 C 395.979 89.461,395.977 88.201,395.889 87.491 C 395.800 86.781,395.729 87.460,395.731 89.000 M353.500 91.482 C 353.995 91.578,354.805 91.578,355.300 91.482 C 355.795 91.387,355.390 91.309,354.400 91.309 C 353.410 91.309,353.005 91.387,353.500 91.482 M395.724 94.200 C 395.726 95.520,395.801 96.012,395.890 95.293 C 395.979 94.574,395.977 93.494,395.886 92.893 C 395.795 92.292,395.722 92.880,395.724 94.200 M364.542 96.200 C 364.541 98.180,364.608 99.040,364.692 98.112 C 364.776 97.184,364.777 95.564,364.695 94.512 C 364.612 93.460,364.543 94.220,364.542 96.200 M293.314 97.800 C 293.317 98.900,293.395 99.303,293.487 98.695 C 293.579 98.086,293.577 97.186,293.482 96.695 C 293.387 96.203,293.311 96.700,293.314 97.800 M395.709 101.200 C 395.709 102.190,395.787 102.595,395.882 102.100 C 395.978 101.605,395.978 100.795,395.882 100.300 C 395.787 99.805,395.709 100.210,395.709 101.200 M359.400 100.400 L 358.200 100.705 359.276 100.753 C 359.868 100.779,360.464 100.620,360.600 100.400 C 360.736 100.180,360.792 100.021,360.724 100.047 C 360.656 100.073,360.060 100.232,359.400 100.400 M395.714 105.000 C 395.717 106.100,395.795 106.503,395.887 105.895 C 395.979 105.286,395.977 104.386,395.882 103.895 C 395.787 103.403,395.711 103.900,395.714 105.000 M395.714 109.000 C 395.717 110.100,395.795 110.503,395.887 109.895 C 395.979 109.286,395.977 108.386,395.882 107.895 C 395.787 107.403,395.711 107.900,395.714 109.000 M160.800 110.200 C 161.546 110.970,162.247 111.600,162.357 111.600 C 162.467 111.600,161.946 110.970,161.200 110.200 C 160.454 109.430,159.753 108.800,159.643 108.800 C 159.533 108.800,160.054 109.430,160.800 110.200 M123.105 110.283 C 123.602 110.379,124.322 110.375,124.705 110.275 C 125.087 110.175,124.680 110.096,123.800 110.101 C 122.920 110.105,122.607 110.187,123.105 110.283 M131.100 110.293 C 132.035 110.377,133.565 110.377,134.500 110.293 C 135.435 110.209,134.670 110.140,132.800 110.140 C 130.930 110.140,130.165 110.209,131.100 110.293 M65.891 110.689 C 66.601 110.777,67.861 110.779,68.691 110.692 C 69.521 110.605,68.940 110.533,67.400 110.531 C 65.860 110.529,65.181 110.600,65.891 110.689 M73.900 110.696 C 75.275 110.774,77.525 110.774,78.900 110.696 C 80.275 110.618,79.150 110.554,76.400 110.554 C 73.650 110.554,72.525 110.618,73.900 110.696 M395.709 114.000 C 395.709 114.990,395.787 115.395,395.882 114.900 C 395.978 114.405,395.978 113.595,395.882 113.100 C 395.787 112.605,395.709 113.010,395.709 114.000 M395.728 118.800 C 395.728 120.230,395.801 120.815,395.889 120.100 C 395.978 119.385,395.978 118.215,395.889 117.500 C 395.801 116.785,395.728 117.370,395.728 118.800 M395.693 123.200 C 395.693 123.970,395.775 124.285,395.876 123.900 C 395.976 123.515,395.976 122.885,395.876 122.500 C 395.775 122.115,395.693 122.430,395.693 123.200 M395.728 130.400 C 395.728 131.830,395.801 132.415,395.889 131.700 C 395.978 130.985,395.978 129.815,395.889 129.100 C 395.801 128.385,395.728 128.970,395.728 130.400 M395.693 134.800 C 395.693 135.570,395.775 135.885,395.876 135.500 C 395.976 135.115,395.976 134.485,395.876 134.100 C 395.775 133.715,395.693 134.030,395.693 134.800 M395.709 138.400 C 395.709 139.390,395.787 139.795,395.882 139.300 C 395.978 138.805,395.978 137.995,395.882 137.500 C 395.787 137.005,395.709 137.410,395.709 138.400 M395.709 142.000 C 395.709 142.990,395.787 143.395,395.882 142.900 C 395.978 142.405,395.978 141.595,395.882 141.100 C 395.787 140.605,395.709 141.010,395.709 142.000 M337.693 142.000 C 337.693 142.770,337.775 143.085,337.876 142.700 C 337.976 142.315,337.976 141.685,337.876 141.300 C 337.775 140.915,337.693 141.230,337.693 142.000 M395.709 145.600 C 395.709 146.590,395.787 146.995,395.882 146.500 C 395.978 146.005,395.978 145.195,395.882 144.700 C 395.787 144.205,395.709 144.610,395.709 145.600 M337.362 151.000 C 337.362 154.520,337.424 155.906,337.498 154.081 C 337.572 152.256,337.572 149.376,337.497 147.681 C 337.422 145.986,337.361 147.480,337.362 151.000 M315.693 146.800 C 315.693 147.570,315.775 147.885,315.876 147.500 C 315.976 147.115,315.976 146.485,315.876 146.100 C 315.775 145.715,315.693 146.030,315.693 146.800 M395.693 149.200 C 395.693 149.970,395.775 150.285,395.876 149.900 C 395.976 149.515,395.976 148.885,395.876 148.500 C 395.775 148.115,395.693 148.430,395.693 149.200 M196.000 151.800 C 196.746 152.570,197.447 153.200,197.557 153.200 C 197.667 153.200,197.146 152.570,196.400 151.800 C 195.654 151.030,194.953 150.400,194.843 150.400 C 194.733 150.400,195.254 151.030,196.000 151.800 M185.693 152.000 C 185.693 152.770,185.775 153.085,185.876 152.700 C 185.976 152.315,185.976 151.685,185.876 151.300 C 185.775 150.915,185.693 151.230,185.693 152.000 M395.740 154.400 C 395.740 156.270,395.809 157.035,395.893 156.100 C 395.977 155.165,395.977 153.635,395.893 152.700 C 395.809 151.765,395.740 152.530,395.740 154.400 M109.370 161.200 C 109.370 165.930,109.428 167.865,109.498 165.500 C 109.569 163.135,109.569 159.265,109.498 156.900 C 109.428 154.535,109.370 156.470,109.370 161.200 M72.562 161.000 C 72.562 164.520,72.624 165.906,72.698 164.081 C 72.772 162.256,72.772 159.376,72.697 157.681 C 72.622 155.986,72.561 157.480,72.562 161.000 M316.540 160.800 C 316.540 162.670,316.609 163.435,316.693 162.500 C 316.777 161.565,316.777 160.035,316.693 159.100 C 316.609 158.165,316.540 158.930,316.540 160.800 M337.724 160.200 C 337.726 161.520,337.801 162.012,337.890 161.293 C 337.979 160.574,337.977 159.494,337.886 158.893 C 337.795 158.292,337.722 158.880,337.724 160.200 M395.709 166.000 C 395.709 166.990,395.787 167.395,395.882 166.900 C 395.978 166.405,395.978 165.595,395.882 165.100 C 395.787 164.605,395.709 165.010,395.709 166.000 M186.101 167.800 C 186.105 168.680,186.187 168.993,186.283 168.495 C 186.379 167.998,186.375 167.278,186.275 166.895 C 186.175 166.513,186.096 166.920,186.101 167.800 M338.109 169.200 C 338.109 170.190,338.187 170.595,338.282 170.100 C 338.378 169.605,338.378 168.795,338.282 168.300 C 338.187 167.805,338.109 168.210,338.109 169.200 M395.701 169.800 C 395.705 170.680,395.787 170.993,395.883 170.495 C 395.979 169.998,395.975 169.278,395.875 168.895 C 395.775 168.513,395.696 168.920,395.701 169.800 M316.120 170.800 C 316.120 172.010,316.195 172.505,316.287 171.900 C 316.378 171.295,316.378 170.305,316.287 169.700 C 316.195 169.095,316.120 169.590,316.120 170.800 M186.146 173.400 C 186.147 175.600,186.214 176.449,186.295 175.287 C 186.376 174.124,186.376 172.324,186.293 171.287 C 186.211 170.249,186.145 171.200,186.146 173.400 M395.714 173.400 C 395.717 174.500,395.795 174.903,395.887 174.295 C 395.979 173.686,395.977 172.786,395.882 172.295 C 395.787 171.803,395.711 172.300,395.714 173.400 M395.734 178.400 C 395.734 180.050,395.805 180.725,395.891 179.900 C 395.978 179.075,395.978 177.725,395.891 176.900 C 395.805 176.075,395.734 176.750,395.734 178.400 M164.893 178.000 C 164.893 178.770,164.975 179.085,165.076 178.700 C 165.176 178.315,165.176 177.685,165.076 177.300 C 164.975 176.915,164.893 177.230,164.893 178.000 M338.580 192.600 C 338.580 200.300,338.634 203.393,338.699 199.474 C 338.765 195.555,338.765 189.255,338.699 185.474 C 338.634 181.693,338.580 184.900,338.580 192.600 M165.293 180.800 C 165.293 181.570,165.375 181.885,165.476 181.500 C 165.576 181.115,165.576 180.485,165.476 180.100 C 165.375 179.715,165.293 180.030,165.293 180.800 M395.744 185.600 C 395.744 187.690,395.812 188.545,395.894 187.500 C 395.976 186.455,395.976 184.745,395.894 183.700 C 395.812 182.655,395.744 183.510,395.744 185.600 M186.520 184.800 C 186.520 186.010,186.595 186.505,186.687 185.900 C 186.778 185.295,186.778 184.305,186.687 183.700 C 186.595 183.095,186.520 183.590,186.520 184.800 M395.693 190.800 C 395.693 191.570,395.775 191.885,395.876 191.500 C 395.976 191.115,395.976 190.485,395.876 190.100 C 395.775 189.715,395.693 190.030,395.693 190.800 M108.978 204.200 C 108.978 211.020,109.032 213.866,109.099 210.525 C 109.166 207.184,109.166 201.604,109.099 198.125 C 109.033 194.646,108.978 197.380,108.978 204.200 M395.714 195.800 C 395.717 196.900,395.795 197.303,395.887 196.695 C 395.979 196.086,395.977 195.186,395.882 194.695 C 395.787 194.203,395.711 194.700,395.714 195.800 M395.746 201.800 C 395.747 204.000,395.814 204.849,395.895 203.687 C 395.976 202.524,395.976 200.724,395.893 199.687 C 395.811 198.649,395.745 199.600,395.746 201.800 M395.742 209.400 C 395.741 211.380,395.808 212.240,395.892 211.312 C 395.976 210.384,395.977 208.764,395.895 207.712 C 395.812 206.660,395.743 207.420,395.742 209.400 M395.693 214.800 C 395.693 215.570,395.775 215.885,395.876 215.500 C 395.976 215.115,395.976 214.485,395.876 214.100 C 395.775 213.715,395.693 214.030,395.693 214.800 M395.720 218.800 C 395.720 220.010,395.795 220.505,395.887 219.900 C 395.978 219.295,395.978 218.305,395.887 217.700 C 395.795 217.095,395.720 217.590,395.720 218.800 M395.709 222.800 C 395.709 223.790,395.787 224.195,395.882 223.700 C 395.978 223.205,395.978 222.395,395.882 221.900 C 395.787 221.405,395.709 221.810,395.709 222.800 M301.235 222.100 C 301.328 222.155,302.033 222.740,302.802 223.400 L 304.200 224.600 303.025 223.300 C 302.379 222.585,301.674 222.000,301.458 222.000 C 301.243 222.000,301.143 222.045,301.235 222.100 M73.720 225.200 C 73.720 226.410,73.795 226.905,73.887 226.300 C 73.978 225.695,73.978 224.705,73.887 224.100 C 73.795 223.495,73.720 223.990,73.720 225.200 M108.575 238.000 C 108.575 243.830,108.631 246.215,108.699 243.300 C 108.767 240.385,108.767 235.615,108.699 232.700 C 108.631 229.785,108.575 232.170,108.575 238.000 M395.748 233.200 C 395.748 235.510,395.814 236.455,395.895 235.300 C 395.976 234.145,395.976 232.255,395.895 231.100 C 395.814 229.945,395.748 230.890,395.748 233.200 M395.724 241.000 C 395.726 242.320,395.801 242.812,395.890 242.093 C 395.979 241.374,395.977 240.294,395.886 239.693 C 395.795 239.092,395.722 239.680,395.724 241.000 M187.293 242.400 C 187.293 243.170,187.375 243.485,187.476 243.100 C 187.576 242.715,187.576 242.085,187.476 241.700 C 187.375 241.315,187.293 241.630,187.293 242.400 M395.693 244.800 C 395.693 245.570,395.775 245.885,395.876 245.500 C 395.976 245.115,395.976 244.485,395.876 244.100 C 395.775 243.715,395.693 244.030,395.693 244.800 M395.720 248.400 C 395.720 249.610,395.795 250.105,395.887 249.500 C 395.978 248.895,395.978 247.905,395.887 247.300 C 395.795 246.695,395.720 247.190,395.720 248.400 M395.701 254.200 C 395.705 255.080,395.787 255.393,395.883 254.895 C 395.979 254.398,395.975 253.678,395.875 253.295 C 395.775 252.913,395.696 253.320,395.701 254.200 M395.737 259.000 C 395.739 260.760,395.809 261.430,395.893 260.489 C 395.978 259.549,395.977 258.109,395.891 257.289 C 395.805 256.470,395.736 257.240,395.737 259.000 M395.714 264.600 C 395.717 265.700,395.795 266.103,395.887 265.495 C 395.979 264.886,395.977 263.986,395.882 263.495 C 395.787 263.003,395.711 263.500,395.714 264.600 M395.693 268.000 C 395.693 268.770,395.775 269.085,395.876 268.700 C 395.976 268.315,395.976 267.685,395.876 267.300 C 395.775 266.915,395.693 267.230,395.693 268.000 M108.487 268.400 C 108.483 268.950,108.624 269.850,108.800 270.400 C 109.231 271.744,109.231 270.292,108.800 268.600 C 108.526 267.522,108.494 267.502,108.487 268.400 M292.000 267.725 C 292.000 267.794,292.585 268.379,293.300 269.025 L 294.600 270.200 293.425 268.900 C 292.330 267.688,292.000 267.416,292.000 267.725 M294.800 270.925 C 294.800 270.994,295.385 271.579,296.100 272.225 L 297.400 273.400 296.225 272.100 C 295.130 270.888,294.800 270.616,294.800 270.925 M395.748 277.600 C 395.748 279.910,395.814 280.855,395.895 279.700 C 395.976 278.545,395.976 276.655,395.895 275.500 C 395.814 274.345,395.748 275.290,395.748 277.600 M159.578 283.500 L 158.200 285.000 159.700 283.622 C 161.096 282.338,161.384 282.000,161.078 282.000 C 161.012 282.000,160.337 282.675,159.578 283.500 M395.693 283.600 C 395.693 284.370,395.775 284.685,395.876 284.300 C 395.976 283.915,395.976 283.285,395.876 282.900 C 395.775 282.515,395.693 282.830,395.693 283.600 M114.400 286.200 C 115.146 286.970,115.847 287.600,115.957 287.600 C 116.067 287.600,115.546 286.970,114.800 286.200 C 114.054 285.430,113.353 284.800,113.243 284.800 C 113.133 284.800,113.654 285.430,114.400 286.200 M395.709 287.200 C 395.709 288.190,395.787 288.595,395.882 288.100 C 395.978 287.605,395.978 286.795,395.882 286.300 C 395.787 285.805,395.709 286.210,395.709 287.200 M395.693 290.400 C 395.693 291.170,395.775 291.485,395.876 291.100 C 395.976 290.715,395.976 290.085,395.876 289.700 C 395.775 289.315,395.693 289.630,395.693 290.400 M214.352 295.687 C 214.537 296.798,214.593 296.855,214.719 296.054 C 214.801 295.533,214.703 294.943,214.501 294.741 C 214.279 294.519,214.221 294.893,214.352 295.687 M395.714 296.200 C 395.717 297.300,395.795 297.703,395.887 297.095 C 395.979 296.486,395.977 295.586,395.882 295.095 C 395.787 294.603,395.711 295.100,395.714 296.200 M317.200 295.325 C 317.200 295.394,317.785 295.979,318.500 296.625 L 319.800 297.800 318.625 296.500 C 317.530 295.288,317.200 295.016,317.200 295.325 M395.720 300.400 C 395.720 301.610,395.795 302.105,395.887 301.500 C 395.978 300.895,395.978 299.905,395.887 299.300 C 395.795 298.695,395.720 299.190,395.720 300.400 M60.880 301.498 C 62.794 301.571,66.034 301.571,68.080 301.498 C 70.126 301.426,68.560 301.366,64.600 301.365 C 60.640 301.365,58.966 301.424,60.880 301.498 M49.913 301.895 C 51.076 301.976,52.876 301.976,53.913 301.893 C 54.951 301.811,54.000 301.745,51.800 301.746 C 49.600 301.747,48.751 301.814,49.913 301.895 M395.693 306.000 C 395.693 306.770,395.775 307.085,395.876 306.700 C 395.976 306.315,395.976 305.685,395.876 305.300 C 395.775 304.915,395.693 305.230,395.693 306.000 M395.709 309.200 C 395.709 310.190,395.787 310.595,395.882 310.100 C 395.978 309.605,395.978 308.795,395.882 308.300 C 395.787 307.805,395.709 308.210,395.709 309.200 M395.731 314.200 C 395.733 315.740,395.805 316.321,395.892 315.491 C 395.979 314.661,395.977 313.401,395.889 312.691 C 395.800 311.981,395.729 312.660,395.731 314.200 M395.734 320.400 C 395.734 322.050,395.805 322.725,395.891 321.900 C 395.978 321.075,395.978 319.725,395.891 318.900 C 395.805 318.075,395.734 318.750,395.734 320.400 M395.701 329.000 C 395.705 329.880,395.787 330.193,395.883 329.695 C 395.979 329.198,395.975 328.478,395.875 328.095 C 395.775 327.713,395.696 328.120,395.701 329.000 M395.724 335.400 C 395.726 336.720,395.801 337.212,395.890 336.493 C 395.979 335.774,395.977 334.694,395.886 334.093 C 395.795 333.492,395.722 334.080,395.724 335.400 M395.740 341.200 C 395.740 343.070,395.809 343.835,395.893 342.900 C 395.977 341.965,395.977 340.435,395.893 339.500 C 395.809 338.565,395.740 339.330,395.740 341.200 M395.737 347.800 C 395.739 349.560,395.809 350.230,395.893 349.289 C 395.978 348.349,395.977 346.909,395.891 346.089 C 395.805 345.270,395.736 346.040,395.737 347.800 M395.724 355.800 C 395.726 357.120,395.801 357.612,395.890 356.893 C 395.979 356.174,395.977 355.094,395.886 354.493 C 395.795 353.892,395.722 354.480,395.724 355.800 M395.740 361.600 C 395.740 363.470,395.809 364.235,395.893 363.300 C 395.977 362.365,395.977 360.835,395.893 359.900 C 395.809 358.965,395.740 359.730,395.740 361.600 M395.709 367.200 C 395.709 368.190,395.787 368.595,395.882 368.100 C 395.978 367.605,395.978 366.795,395.882 366.300 C 395.787 365.805,395.709 366.210,395.709 367.200 M394.578 370.145 C 394.448 370.664,394.416 371.699,394.507 372.445 C 394.648 373.605,394.681 373.538,394.736 371.980 C 394.771 370.979,395.016 369.944,395.280 369.680 C 395.645 369.315,395.647 369.200,395.288 369.200 C 395.028 369.200,394.709 369.625,394.578 370.145 M393.443 375.833 C 393.309 376.181,393.200 376.901,393.200 377.433 C 393.200 377.965,393.058 378.400,392.883 378.400 C 392.709 378.400,392.289 379.013,391.949 379.762 C 391.466 380.828,391.448 381.080,391.866 380.919 C 392.160 380.807,392.400 380.433,392.400 380.089 C 392.400 379.745,392.646 379.179,392.946 378.831 C 393.246 378.484,393.595 377.525,393.721 376.700 C 393.962 375.121,393.850 374.772,393.443 375.833 M6.073 378.200 C 6.047 378.860,6.284 379.742,6.600 380.159 C 6.916 380.576,7.087 381.059,6.981 381.231 C 6.874 381.404,6.970 381.658,7.193 381.796 C 7.792 382.166,7.688 381.104,7.034 380.171 C 6.723 379.726,6.390 378.831,6.294 378.182 L 6.120 377.000 6.073 378.200 M389.653 383.400 C 389.199 384.170,388.968 384.800,389.139 384.800 C 389.311 384.800,389.752 384.170,390.119 383.400 C 390.487 382.630,390.718 382.000,390.633 382.000 C 390.548 382.000,390.107 382.630,389.653 383.400 M8.411 384.700 C 8.405 384.975,8.580 385.200,8.800 385.200 C 9.020 385.200,9.200 385.380,9.200 385.600 C 9.200 385.820,9.560 386.360,10.000 386.800 C 11.211 388.011,10.937 387.188,9.600 385.600 C 8.952 384.830,8.417 384.425,8.411 384.700 M381.243 390.423 C 380.717 390.861,380.371 391.305,380.475 391.408 C 380.579 391.512,381.086 391.148,381.601 390.598 C 382.724 389.404,382.562 389.325,381.243 390.423 M14.000 391.600 C 14.550 392.030,15.168 392.386,15.374 392.391 C 15.580 392.396,16.165 392.791,16.674 393.270 C 17.183 393.748,17.600 393.973,17.599 393.770 C 17.598 393.343,13.978 390.796,13.392 390.809 C 13.176 390.814,13.450 391.170,14.000 391.600 M18.400 394.200 C 18.674 394.530,19.315 394.800,19.825 394.800 C 20.335 394.800,20.864 394.980,21.000 395.200 C 21.136 395.420,21.541 395.600,21.900 395.600 C 22.448 395.600,22.428 395.505,21.776 395.013 C 21.349 394.690,20.505 394.420,19.900 394.413 C 19.295 394.406,18.800 394.220,18.800 394.000 C 18.800 393.780,18.598 393.600,18.351 393.600 C 18.041 393.600,18.056 393.785,18.400 394.200 M371.034 395.057 C 370.841 395.558,370.904 395.612,371.296 395.286 C 371.579 395.052,372.528 394.786,373.405 394.697 L 375.000 394.534 373.143 394.467 C 371.747 394.417,371.223 394.563,371.034 395.057 M24.100 395.876 C 24.485 395.976,25.115 395.976,25.500 395.876 C 25.885 395.775,25.570 395.693,24.800 395.693 C 24.030 395.693,23.715 395.775,24.100 395.876 M27.438 395.939 C 27.310 396.146,27.499 396.429,27.860 396.568 C 28.744 396.907,28.950 396.623,28.245 396.038 C 27.903 395.754,27.577 395.714,27.438 395.939 M366.500 395.887 C 367.105 395.978,368.095 395.978,368.700 395.887 C 369.305 395.795,368.810 395.720,367.600 395.720 C 366.390 395.720,365.895 395.795,366.500 395.887 " stroke="none" fill="#1474cc" fill-rule="evenodd"></path><path id="path7" d="M108.934 167.600 C 108.934 169.250,109.005 169.925,109.091 169.100 C 109.178 168.275,109.178 166.925,109.091 166.100 C 109.005 165.275,108.934 165.950,108.934 167.600 M185.701 167.800 C 185.705 168.680,185.787 168.993,185.883 168.495 C 185.979 167.998,185.975 167.278,185.875 166.895 C 185.775 166.513,185.696 166.920,185.701 167.800 M316.524 170.600 C 316.526 171.920,316.601 172.412,316.690 171.693 C 316.779 170.974,316.777 169.894,316.686 169.293 C 316.595 168.692,316.522 169.280,316.524 170.600 M108.509 214.800 C 108.509 215.790,108.587 216.195,108.682 215.700 C 108.778 215.205,108.778 214.395,108.682 213.900 C 108.587 213.405,108.509 213.810,108.509 214.800 " stroke="none" fill="#2487e4" fill-rule="evenodd"></path><path id="path8" d="M10.175 16.668 C 9.559 17.476,9.259 18.011,9.509 17.856 C 10.021 17.540,11.753 15.200,11.475 15.200 C 11.376 15.200,10.791 15.861,10.175 16.668 M391.200 18.247 C 391.200 18.467,391.464 18.996,391.787 19.424 C 392.110 19.851,392.375 20.020,392.375 19.800 C 392.375 19.580,392.110 19.051,391.787 18.624 C 391.464 18.196,391.200 18.027,391.200 18.247 M108.914 172.200 C 108.917 173.300,108.995 173.703,109.087 173.095 C 109.179 172.486,109.177 171.586,109.082 171.095 C 108.987 170.603,108.911 171.100,108.914 172.200 M167.701 251.800 C 167.705 252.680,167.787 252.993,167.883 252.495 C 167.979 251.998,167.975 251.278,167.875 250.895 C 167.775 250.513,167.696 250.920,167.701 251.800 M141.905 301.883 C 142.402 301.979,143.122 301.975,143.505 301.875 C 143.887 301.775,143.480 301.696,142.600 301.701 C 141.720 301.705,141.407 301.787,141.905 301.883 M365.200 396.406 C 364.778 396.682,365.015 396.723,366.000 396.542 C 367.725 396.225,368.051 395.998,366.767 396.006 C 366.235 396.009,365.530 396.189,365.200 396.406 " stroke="none" fill="#1c80dc" fill-rule="evenodd"></path></g></svg>