<svg xmlns="http://www.w3.org/2000/svg" xmlns:xlink="http://www.w3.org/1999/xlink" aria-hidden="true" role="img" width="1em" height="1em" preserveAspectRatio="xMidYMid meet" viewBox="0 0 36 36"><path class="clr-i-solid clr-i-solid-path-1" d="M6 9v22a2.93 2.93 0 0 0 2.86 3h18.23A2.93 2.93 0 0 0 30 31V9zm9 20h-2V14h2zm8 0h-2V14h2z" fill="#e8e9e9"/><path class="clr-i-solid clr-i-solid-path-2" d="M30.73 5H23V4a2 2 0 0 0-2-2h-6.2A2 2 0 0 0 13 4v1H5a1 1 0 1 0 0 2h25.73a1 1 0 0 0 0-2z" fill="#e8e9e9"/></svg>