<svg xmlns="http://www.w3.org/2000/svg" xmlns:xlink="http://www.w3.org/1999/xlink" aria-hidden="true" role="img" width="1em" height="1em" preserveAspectRatio="xMidYMid meet" viewBox="0 0 256 256"><path d="M205.5 100.1l-17-29.4a21.9 21.9 0 0 0-30-8.1a21.5 21.5 0 0 0-9.6 11.4l-17.6-30.3a21.9 21.9 0 0 0-30-8.1A21.5 21.5 0 0 0 91.7 47a22.1 22.1 0 0 0-29.6-7.3a21.9 21.9 0 0 0-10.2 13.4a20.9 20.9 0 0 0-.4 9.6a26.5 26.5 0 0 0-11.1 3.4a26.1 26.1 0 0 0-9.5 35.6l2 3.4a24.3 24.3 0 0 0-9.7 3.3a26 26 0 0 0-9.5 35.5l37 64.1a80 80 0 0 0 146.6-19.3l.3-1.3a76.5 76.5 0 0 0 7.9-87.3zm-23.7 84.5a63.3 63.3 0 0 1-29.8 38.8A64 64 0 0 1 64.6 200l-37-64.1a10 10 0 0 1 11.2-14.7a10.3 10.3 0 0 1 6.1 4.7l24 41.6a8.2 8.2 0 0 0 6.9 4a8 8 0 0 0 6.9-12l-38-65.8a10 10 0 0 1 17.4-10l38 65.8a8 8 0 1 0 13.8-8l-30-52a10.1 10.1 0 0 1 3.7-13.7a10 10 0 0 1 13.6 3.7l42 72.8a8.2 8.2 0 0 0 7 4a8.6 8.6 0 0 0 4-1.1a8 8 0 0 0 2.9-10.9l-16-27.8a9.9 9.9 0 0 1-1-7.5a9.6 9.6 0 0 1 4.7-6.1a9.4 9.4 0 0 1 7.5-1a9.8 9.8 0 0 1 6.1 4.6l17 29.5a63.5 63.5 0 0 1 6.4 48.6zM165 24.7l4.1-15.5a8 8 0 1 1 15.5 4.1l-4.2 15.5a7.9 7.9 0 0 1-7.7 5.9l-2.1-.2a8 8 0 0 1-5.6-9.8zm26.3 9.2l9.2-13.1a8.1 8.1 0 0 1 11.2-2a8 8 0 0 1 1.9 11.2l-9.2 13.1a7.9 7.9 0 0 1-11.1 1.9a8 8 0 0 1-2-11.1zm43.9 21.6l-13.1 9.2a8.6 8.6 0 0 1-4.6 1.4a8 8 0 0 1-4.6-14.5l13.1-9.2a8 8 0 0 1 11.2 1.9a8.1 8.1 0 0 1-2 11.2z" fill="#6dae4f"/></svg>