<svg id="svg" version="1.1" xmlns="http://www.w3.org/2000/svg" xmlns:xlink="http://www.w3.org/1999/xlink" width="400" height="399.14529914529913" viewBox="0, 0, 400,399.14529914529913"><g id="svgg"><path id="path0" d="M335.466 68.162 C 335.454 96.439,325.533 127.915,305.712 162.557 C 304.294 165.036,303.134 167.153,303.134 167.261 C 303.134 167.469,304.912 168.236,314.658 172.229 C 317.941 173.575,322.290 175.468,324.322 176.436 C 326.524 177.485,328.061 178.069,328.123 177.881 C 329.964 172.359,337.204 165.242,340.981 165.242 C 345.166 165.242,347.188 170.267,344.116 173.031 C 343.435 173.644,342.076 174.884,341.097 175.786 L 339.316 177.426 339.316 179.178 C 339.316 181.396,339.781 182.461,341.400 183.956 C 345.380 187.633,350.539 184.815,348.862 179.881 C 347.747 176.600,349.602 172.869,352.349 172.869 C 361.725 172.869,360.143 188.306,350.294 192.915 L 348.467 193.770 350.038 195.959 C 366.445 218.823,355.026 254.677,315.178 305.413 L 311.933 309.544 316.009 305.402 C 367.348 253.230,390.565 190.954,379.733 134.473 C 373.610 102.547,355.953 71.508,337.552 60.328 C 336.585 59.740,335.721 59.259,335.632 59.259 C 335.543 59.259,335.468 63.266,335.466 68.162 " stroke="none" fill="#fce37b" fill-rule="evenodd"></path><path id="path1" d="M259.544 19.857 C 195.929 24.804,107.640 88.846,55.777 167.664 C 50.270 176.033,44.238 186.193,41.316 192.023 L 40.388 193.875 42.487 191.877 C 52.662 182.193,58.900 176.480,67.403 169.058 L 73.776 163.495 75.637 159.881 C 79.231 152.901,82.748 150.386,85.470 152.849 C 86.017 153.344,86.078 153.323,87.532 152.169 C 103.550 139.461,119.192 128.187,132.336 119.874 C 135.835 117.661,136.497 117.117,137.723 115.442 C 143.878 107.038,153.334 101.720,159.153 103.388 C 160.909 103.892,162.061 102.842,162.873 100.000 C 166.926 85.810,177.835 78.252,188.261 82.410 C 190.853 83.443,192.633 87.253,191.196 88.690 C 190.461 89.425,191.028 89.390,193.234 88.565 C 239.928 71.094,279.528 72.899,309.061 93.846 C 310.519 94.880,311.757 95.726,311.813 95.726 C 311.981 95.726,313.630 88.678,314.247 85.328 C 322.388 41.065,301.915 16.563,259.544 19.857 M180.342 92.868 C 179.480 93.643,178.879 94.283,179.007 94.290 C 179.260 94.303,185.230 91.788,185.437 91.581 C 185.508 91.511,184.742 91.454,183.737 91.456 C 181.949 91.459,181.875 91.490,180.342 92.868 " stroke="none" fill="#bc7c13" fill-rule="evenodd"></path><path id="path2" d="M265.171 19.584 C 266.150 19.640,267.753 19.640,268.732 19.584 C 269.712 19.529,268.910 19.483,266.952 19.483 C 264.993 19.483,264.192 19.529,265.171 19.584 M259.191 19.860 C 259.546 19.928,260.059 19.925,260.331 19.854 C 260.603 19.783,260.313 19.727,259.687 19.730 C 259.060 19.733,258.837 19.791,259.191 19.860 M301.425 29.993 C 301.425 30.036,302.418 31.030,303.632 32.201 L 305.840 34.330 303.711 32.123 C 301.733 30.072,301.425 29.785,301.425 29.993 M315.736 61.538 C 315.736 62.087,315.794 62.311,315.866 62.037 C 315.938 61.763,315.938 61.314,315.866 61.040 C 315.794 60.766,315.736 60.990,315.736 61.538 M316.043 67.379 C 316.044 68.319,316.097 68.669,316.161 68.157 C 316.224 67.645,316.223 66.876,316.158 66.448 C 316.093 66.020,316.041 66.439,316.043 67.379 M315.736 73.789 C 315.736 74.338,315.794 74.562,315.866 74.288 C 315.938 74.014,315.938 73.565,315.866 73.291 C 315.794 73.016,315.736 73.241,315.736 73.789 M241.311 77.060 C 226.270 78.400,209.990 82.295,193.234 88.565 C 191.941 89.049,190.883 89.366,190.883 89.270 C 190.883 89.174,190.531 89.453,190.100 89.889 C 189.134 90.866,187.027 91.839,186.293 91.647 C 185.993 91.568,184.290 92.133,182.502 92.903 C 180.717 93.673,179.139 94.302,178.994 94.302 C 178.743 94.302,178.784 95.369,179.091 96.836 C 179.170 97.211,179.996 98.311,180.927 99.281 L 182.620 101.044 184.259 100.826 C 186.087 100.582,188.063 98.875,188.412 97.237 C 189.068 94.156,192.959 92.422,195.471 94.091 C 200.805 97.636,195.659 107.570,187.183 110.087 C 181.544 111.761,176.097 110.068,172.574 105.546 L 171.588 104.280 171.393 106.485 C 170.504 116.561,165.324 127.782,160.510 130.059 C 155.587 132.388,149.034 129.897,145.645 124.407 L 144.599 122.711 142.513 126.984 C 140.297 131.521,140.583 130.569,137.098 145.029 C 134.314 156.582,130.806 161.352,124.619 161.999 C 120.122 162.469,114.709 159.563,112.701 155.601 C 111.867 153.955,111.725 153.882,111.095 154.781 C 109.934 156.437,109.033 160.032,108.260 166.097 C 107.931 168.682,107.541 171.334,107.395 171.990 C 107.248 172.646,106.868 175.035,106.551 177.298 C 105.102 187.618,102.621 192.356,97.558 194.471 C 92.669 196.514,85.744 194.382,82.038 189.692 L 80.952 188.319 80.475 189.957 C 79.466 193.423,79.145 195.556,79.316 197.673 C 79.794 203.611,82.125 215.594,84.460 224.121 C 85.325 227.281,86.164 230.742,86.323 231.813 C 88.436 246.006,88.846 250.428,88.325 253.374 C 86.954 261.113,81.726 268.091,77.299 268.091 C 71.573 268.091,70.004 262.972,74.637 259.407 C 79.857 255.390,80.909 247.563,77.581 237.513 C 76.846 235.292,76.212 233.430,76.173 233.373 C 76.133 233.317,75.706 233.552,75.224 233.896 C 72.485 235.846,67.913 236.299,64.174 234.990 L 62.108 234.267 62.108 235.255 C 62.108 236.590,62.740 239.018,64.239 243.447 C 68.763 256.814,67.064 269.129,60.114 273.356 C 50.526 279.187,39.317 273.307,39.283 262.427 C 39.254 253.322,49.991 244.889,53.783 251.039 C 55.404 253.669,54.468 256.213,51.368 257.599 C 46.515 259.768,47.734 266.451,52.843 265.685 C 57.406 265.001,58.457 259.325,55.984 248.718 C 51.539 229.655,51.385 226.004,54.669 217.513 C 57.746 209.553,65.637 203.532,68.948 206.616 L 69.569 207.195 69.506 204.381 C 69.472 202.833,69.464 199.030,69.489 195.928 C 69.514 192.827,69.467 190.181,69.385 190.047 C 68.316 188.318,70.964 171.384,73.207 165.609 C 73.674 164.405,74.029 163.398,73.994 163.370 C 73.754 163.178,56.957 178.260,47.183 187.445 C 43.753 190.668,40.827 193.270,40.680 193.227 C 40.534 193.184,40.488 193.269,40.579 193.416 C 40.670 193.563,40.630 193.727,40.491 193.779 C 40.351 193.832,39.180 195.990,37.887 198.575 C 17.046 240.261,12.745 278.519,26.582 299.143 C 37.481 315.387,62.268 320.391,94.115 312.776 C 97.531 311.959,97.764 311.860,97.616 311.292 C 97.529 310.958,96.947 309.209,96.323 307.407 C 82.741 268.189,117.187 198.305,175.214 147.352 C 223.494 104.958,278.300 84.421,309.537 97.020 C 311.338 97.746,311.509 97.712,311.775 96.580 C 311.925 95.936,311.655 95.665,309.034 93.828 C 290.261 80.673,266.583 74.810,241.311 77.060 M182.123 81.393 C 182.397 81.465,182.845 81.465,183.120 81.393 C 183.394 81.321,183.170 81.263,182.621 81.263 C 182.073 81.263,181.848 81.321,182.123 81.393 M120.637 92.379 L 119.801 93.305 120.726 92.468 C 121.590 91.688,121.783 91.453,121.563 91.453 C 121.514 91.453,121.098 91.870,120.637 92.379 M117.079 95.655 L 116.097 96.724 117.165 95.742 C 117.753 95.202,118.234 94.721,118.234 94.673 C 118.234 94.456,117.993 94.661,117.079 95.655 M112.101 100.356 L 110.114 102.422 112.179 100.435 C 113.316 99.342,114.245 98.413,114.245 98.369 C 114.245 98.160,113.946 98.438,112.101 100.356 M161.168 102.976 L 160.084 103.619 160.836 104.111 C 161.250 104.382,161.652 104.540,161.731 104.461 C 161.854 104.338,162.402 102.234,162.292 102.306 C 162.269 102.321,161.763 102.622,161.168 102.976 M141.440 110.897 L 140.313 112.108 141.524 110.982 C 142.650 109.935,142.866 109.687,142.650 109.687 C 142.604 109.687,142.059 110.231,141.440 110.897 M99.137 113.319 L 97.293 115.242 99.217 113.399 C 100.274 112.385,101.140 111.519,101.140 111.475 C 101.140 111.266,100.850 111.533,99.137 113.319 M156.351 112.532 C 153.120 113.506,151.974 116.713,154.098 118.837 C 155.862 120.601,156.515 120.074,158.445 115.333 C 159.431 112.908,159.429 113.044,158.488 112.607 C 157.629 112.208,157.448 112.202,156.351 112.532 M134.758 118.305 C 119.042 128.299,104.244 138.911,87.532 152.169 C 86.040 153.353,86.030 153.356,85.398 152.819 C 85.048 152.522,85.289 152.867,85.933 153.585 C 88.065 155.963,88.222 157.909,86.462 160.167 C 84.436 162.768,81.883 167.889,80.878 171.368 C 80.665 172.105,80.874 171.961,82.410 170.308 C 85.363 167.128,89.375 163.906,90.842 163.537 C 93.349 162.906,96.468 164.236,97.350 166.315 L 97.802 167.379 98.593 163.471 C 100.695 153.088,103.741 146.886,109.373 141.527 C 114.712 136.445,123.860 133.499,128.320 135.425 C 129.675 136.010,129.321 136.647,130.913 130.769 C 132.242 125.866,133.966 121.613,135.901 118.468 C 136.366 117.712,136.716 117.101,136.678 117.111 C 136.641 117.120,135.776 117.657,134.758 118.305 M94.287 118.447 L 93.305 119.516 94.373 118.534 C 94.961 117.994,95.442 117.513,95.442 117.465 C 95.442 117.248,95.201 117.453,94.287 118.447 M91.293 121.724 L 90.456 122.650 91.382 121.813 C 91.891 121.353,92.308 120.936,92.308 120.887 C 92.308 120.667,92.073 120.861,91.293 121.724 M123.515 144.008 C 119.528 145.078,118.690 149.316,121.895 152.208 C 123.801 153.928,125.268 153.785,126.268 151.781 C 127.258 149.797,128.490 145.800,128.490 144.572 L 128.490 143.590 126.709 143.609 C 125.730 143.620,124.293 143.799,123.515 144.008 M96.720 170.763 C 96.458 171.163,95.454 171.933,94.489 172.473 C 87.454 176.415,85.329 185.146,91.053 186.587 C 94.074 187.348,94.516 186.334,96.815 173.362 C 97.426 169.914,97.418 169.698,96.720 170.763 M70.260 211.796 C 70.163 212.182,69.495 212.986,68.775 213.585 C 64.486 217.147,63.713 218.389,63.727 221.694 C 63.750 227.026,69.904 229.844,71.215 225.124 C 71.640 223.594,71.576 221.011,71.042 218.097 C 70.664 216.039,70.636 215.300,70.899 214.318 C 71.331 212.700,71.311 211.822,70.831 211.423 C 70.516 211.162,70.400 211.238,70.260 211.796 M5.987 299.494 C 5.974 300.111,8.046 304.894,10.836 310.684 C 20.823 331.412,38.194 353.132,56.410 367.667 C 57.585 368.605,58.611 369.437,58.689 369.517 C 58.768 369.597,59.449 370.110,60.203 370.657 C 60.957 371.205,61.919 371.921,62.340 372.249 C 73.911 381.260,93.239 390.508,109.402 394.768 C 124.913 398.856,147.485 400.353,160.629 398.165 C 161.051 398.095,162.486 397.898,163.818 397.727 C 192.864 393.995,225.503 379.888,257.692 357.154 C 263.012 353.396,274.119 345.029,274.929 344.168 C 275.007 344.085,275.712 343.509,276.496 342.887 C 277.279 342.266,277.984 341.689,278.063 341.605 C 278.141 341.521,278.782 340.987,279.487 340.416 C 280.192 339.846,281.090 339.101,281.481 338.761 C 281.873 338.421,282.453 337.926,282.771 337.661 C 289.009 332.458,299.339 323.119,304.554 317.966 C 306.579 315.965,306.005 316.402,302.279 319.698 C 238.980 375.687,154.066 382.355,67.250 338.154 C 62.157 335.562,60.922 335.042,59.842 335.037 C 59.130 335.034,57.140 334.844,55.421 334.616 C 33.079 331.643,16.816 320.732,7.646 302.564 C 6.736 300.762,5.990 299.381,5.987 299.494 " stroke="none" fill="#de9e1c" fill-rule="evenodd"></path><path id="path3" d="M256.838 0.745 C 145.616 11.748,0.511 162.723,0.434 267.521 C 0.372 350.940,93.315 358.345,195.854 283.092 C 312.931 197.170,372.240 59.007,311.676 13.277 C 307.360 10.018,304.667 8.489,297.578 5.273 C 288.669 1.232,271.360 -0.692,256.838 0.745 M277.363 20.061 C 308.000 24.572,321.081 47.400,314.516 84.900 C 313.908 88.371,311.821 97.158,311.415 97.958 C 311.282 98.219,310.186 101.446,308.980 105.128 C 294.427 149.543,266.084 192.043,222.927 234.162 C 139.161 315.914,37.041 342.701,20.975 287.136 C 5.927 235.089,58.679 140.962,138.889 76.737 C 188.688 36.862,242.338 14.904,277.363 20.061 M337.296 166.680 C 334.126 168.582,332.483 170.242,330.577 173.468 C 325.276 182.443,324.634 187.030,327.757 193.622 C 331.197 200.883,330.911 210.229,327.011 218.033 C 326.221 219.615,324.590 221.303,323.654 221.508 C 320.958 222.101,317.443 218.055,318.937 216.080 C 319.167 215.776,319.359 215.323,319.364 215.073 C 319.386 213.964,323.187 211.119,324.663 211.106 C 326.619 211.090,328.775 208.469,328.775 206.107 C 328.775 199.659,318.418 200.654,312.642 207.657 C 307.763 213.571,306.399 219.378,306.007 235.897 C 305.611 252.561,303.530 257.030,295.955 257.489 C 288.463 257.942,287.939 249.558,295.137 244.406 C 299.375 241.373,300.055 236.645,296.488 235.025 C 294.372 234.065,292.054 234.727,288.077 237.427 C 287.238 237.996,286.519 238.462,286.478 238.462 C 286.311 238.462,287.163 233.820,287.737 231.606 C 289.452 224.989,292.388 218.986,296.687 213.302 C 299.485 209.603,299.832 207.191,297.892 204.935 C 297.055 203.962,294.220 203.658,292.539 204.360 C 289.515 205.624,281.712 218.053,278.936 226.028 C 276.167 233.980,275.593 239.221,276.028 252.564 C 276.227 258.661,275.601 275.508,275.114 277.195 C 273.181 283.882,268.317 287.627,263.416 286.202 C 257.464 284.472,257.309 277.400,263.205 276.602 C 267.581 276.011,268.618 269.721,264.667 267.735 C 262.883 266.839,258.802 267.287,256.717 268.608 C 247.612 274.377,240.234 289.524,238.096 306.838 C 237.662 310.348,237.435 310.574,234.143 310.773 C 230.022 311.022,227.545 308.902,227.545 305.128 C 227.545 302.579,229.847 299.129,231.830 298.706 C 236.976 297.609,238.466 293.593,235.058 290.010 C 232.335 287.148,223.887 290.412,218.839 296.278 C 212.866 303.218,209.117 314.884,209.117 326.532 C 209.117 333.666,207.525 336.274,203.524 335.698 C 196.307 334.658,197.140 324.696,204.632 322.452 C 207.040 321.730,208.818 319.300,208.396 317.307 C 207.337 312.294,203.850 311.357,197.863 314.479 C 190.829 318.146,184.652 330.188,184.610 340.313 C 184.602 342.346,183.660 346.827,183.044 347.768 C 181.435 350.224,159.690 359.213,146.724 362.784 C 144.765 363.323,143.355 363.838,143.590 363.928 C 144.721 364.360,157.770 365.985,163.960 366.464 C 167.401 366.730,185.799 356.602,188.579 352.912 C 190.380 350.522,192.023 345.117,192.023 341.585 C 192.023 340.235,192.102 340.216,193.322 341.287 C 198.598 345.920,207.753 345.700,212.433 340.829 C 215.747 337.380,217.241 332.633,217.656 324.231 C 217.875 319.776,218.805 314.256,219.533 313.077 C 219.599 312.971,220.647 313.875,221.863 315.087 C 228.766 321.966,239.980 322.252,245.179 315.681 C 246.046 314.586,246.154 314.257,246.159 312.709 C 246.173 307.823,247.308 301.444,249.181 295.726 C 250.871 290.569,250.641 290.785,252.564 292.543 C 259.959 299.301,272.296 297.967,279.460 289.636 L 280.715 288.177 280.520 290.456 C 279.653 300.581,276.795 307.343,271.093 312.763 C 267.739 315.951,267.189 318.087,269.160 320.271 C 271.728 323.117,273.588 322.949,277.688 319.498 C 289.503 309.556,293.364 294.487,290.010 271.403 C 289.338 266.781,289.214 267.178,291.168 267.707 C 298.480 269.684,306.466 266.991,310.455 261.203 C 315.086 254.484,316.249 249.813,316.446 237.137 L 316.583 228.263 318.241 229.086 C 331.415 235.622,344.058 215.239,339.029 195.574 C 338.363 192.970,338.343 193.022,339.771 193.621 C 343.722 195.276,350.139 193.900,353.644 190.646 C 360.887 183.921,360.081 172.869,352.349 172.869 C 349.602 172.869,347.747 176.600,348.862 179.881 C 350.539 184.815,345.380 187.633,341.400 183.956 C 339.781 182.461,339.316 181.396,339.316 179.178 L 339.316 177.426 341.097 175.786 C 342.076 174.884,343.435 173.644,344.116 173.031 C 347.191 170.264,345.165 165.242,340.975 165.242 C 339.940 165.242,339.228 165.521,337.296 166.680 " stroke="none" fill="#fcd304" fill-rule="evenodd"></path><path id="path4" d="M301.567 7.063 C 320.238 16.135,331.917 33.247,334.879 55.871 C 335.113 57.652,335.425 59.149,335.573 59.199 C 343.533 61.852,358.351 79.370,366.788 96.103 C 399.336 160.650,379.993 240.380,316.009 305.402 L 311.933 309.544 315.178 305.413 C 349.647 261.526,362.440 229.935,355.247 206.468 C 353.591 201.068,349.082 193.468,347.767 193.865 C 345.502 194.548,341.219 194.273,338.914 193.297 C 338.440 193.096,338.396 193.155,338.573 193.755 C 344.556 214.047,331.979 235.902,318.241 229.086 L 316.583 228.263 316.446 237.137 C 316.249 249.813,315.086 254.484,310.455 261.203 C 306.466 266.991,298.480 269.684,291.168 267.707 C 289.214 267.178,289.338 266.781,290.010 271.403 C 293.364 294.487,289.503 309.556,277.688 319.498 C 273.588 322.949,271.728 323.117,269.160 320.271 C 267.189 318.087,267.739 315.951,271.093 312.763 C 276.795 307.343,279.653 300.581,280.520 290.456 L 280.715 288.177 279.460 289.636 C 272.296 297.967,259.959 299.301,252.564 292.543 C 250.641 290.785,250.871 290.569,249.181 295.726 C 247.308 301.444,246.173 307.823,246.159 312.709 C 246.154 314.257,246.046 314.586,245.179 315.681 C 239.980 322.252,228.766 321.966,221.863 315.087 C 220.647 313.875,219.599 312.971,219.533 313.077 C 218.805 314.256,217.875 319.776,217.656 324.231 C 217.241 332.633,215.747 337.380,212.433 340.829 C 207.753 345.700,198.598 345.920,193.322 341.287 C 192.102 340.216,192.023 340.235,192.023 341.585 C 192.023 345.117,190.380 350.522,188.579 352.912 C 186.745 355.347,177.131 361.248,168.881 365.003 L 165.539 366.524 167.171 366.709 C 169.807 367.007,187.551 366.980,191.738 366.671 C 228.453 363.967,259.960 352.202,289.316 330.234 C 298.150 323.624,304.464 318.076,313.820 308.705 C 389.382 233.020,416.127 158.032,390.697 93.162 C 376.195 56.171,342.024 22.397,304.131 7.604 C 298.840 5.538,298.113 5.385,301.567 7.063 M316.021 64.957 C 316.021 65.506,316.079 65.730,316.151 65.456 C 316.222 65.182,316.222 64.733,316.151 64.459 C 316.079 64.184,316.021 64.409,316.021 64.957 M316.026 69.943 C 316.029 70.570,316.088 70.793,316.156 70.438 C 316.224 70.084,316.221 69.571,316.150 69.299 C 316.079 69.026,316.023 69.316,316.026 69.943 M178.739 82.027 C 174.876 83.074,171.045 85.551,168.428 88.694 C 166.212 91.356,162.133 100.880,162.104 103.461 C 162.094 104.367,161.645 104.641,160.933 104.177 C 159.035 102.939,155.113 103.098,151.305 104.567 C 141.739 108.256,134.481 117.581,130.912 130.769 C 129.321 136.647,129.676 136.010,128.320 135.425 C 123.860 133.499,114.712 136.445,109.373 141.527 C 103.741 146.886,100.695 153.088,98.593 163.471 L 97.802 167.379 97.350 166.315 C 96.468 164.236,93.349 162.906,90.842 163.537 C 89.375 163.906,85.363 167.128,82.410 170.308 C 80.874 171.961,80.665 172.105,80.878 171.368 C 81.883 167.889,84.436 162.768,86.462 160.167 C 90.073 155.533,84.304 149.746,79.915 153.599 C 75.803 157.210,71.251 169.066,69.977 179.487 C 69.446 183.832,69.263 193.518,69.506 204.381 L 69.569 207.195 68.948 206.616 C 65.637 203.532,57.746 209.553,54.669 217.513 C 51.385 226.004,51.539 229.655,55.984 248.718 C 58.457 259.325,57.406 265.001,52.843 265.685 C 47.734 266.451,46.515 259.768,51.368 257.599 C 54.468 256.213,55.404 253.669,53.783 251.039 C 49.991 244.889,39.254 253.322,39.283 262.427 C 39.317 273.307,50.526 279.187,60.114 273.356 C 67.064 269.129,68.763 256.814,64.239 243.447 C 62.740 239.018,62.108 236.590,62.108 235.255 L 62.108 234.267 64.174 234.990 C 67.913 236.299,72.485 235.846,75.224 233.896 C 75.706 233.552,76.133 233.317,76.173 233.373 C 76.212 233.430,76.846 235.292,77.581 237.513 C 80.909 247.563,79.857 255.390,74.637 259.407 C 70.004 262.972,71.573 268.091,77.299 268.091 C 81.726 268.091,86.954 261.113,88.325 253.374 C 88.846 250.428,88.436 246.006,86.323 231.813 C 86.164 230.742,85.325 227.281,84.460 224.121 C 82.125 215.594,79.794 203.611,79.316 197.673 C 79.145 195.556,79.466 193.423,80.475 189.957 L 80.952 188.319 82.038 189.692 C 85.744 194.382,92.669 196.514,97.558 194.471 C 102.621 192.356,105.102 187.618,106.551 177.298 C 106.868 175.035,107.248 172.646,107.395 171.990 C 107.541 171.334,107.931 168.682,108.260 166.097 C 109.033 160.032,109.934 156.437,111.095 154.781 C 111.725 153.882,111.867 153.955,112.701 155.601 C 114.709 159.563,120.122 162.469,124.619 161.999 C 130.806 161.352,134.314 156.582,137.098 145.029 C 140.583 130.569,140.297 131.521,142.513 126.984 L 144.599 122.711 145.645 124.407 C 149.034 129.897,155.587 132.388,160.510 130.059 C 165.324 127.782,170.504 116.561,171.393 106.485 L 171.588 104.280 172.574 105.546 C 176.097 110.068,181.544 111.761,187.183 110.087 C 195.659 107.570,200.805 97.636,195.471 94.091 C 192.959 92.422,189.068 94.156,188.412 97.237 C 188.065 98.868,186.086 100.583,184.273 100.824 L 182.648 101.041 181.100 99.452 C 178.277 96.555,178.073 95.044,180.210 92.851 L 181.624 91.399 184.397 91.525 C 189.633 91.762,192.658 88.849,191.062 85.105 C 189.809 82.163,183.786 80.659,178.739 82.027 M105.550 106.624 L 102.707 109.544 105.627 106.701 C 107.233 105.136,108.547 103.822,108.547 103.780 C 108.547 103.574,108.191 103.912,105.550 106.624 M158.488 112.607 C 159.429 113.044,159.431 112.908,158.445 115.333 C 156.515 120.074,155.862 120.601,154.098 118.837 C 151.974 116.713,153.120 113.506,156.351 112.532 C 157.448 112.202,157.629 112.208,158.488 112.607 M128.490 144.572 C 128.490 145.800,127.258 149.797,126.268 151.781 C 125.268 153.785,123.801 153.928,121.895 152.208 C 117.639 148.368,120.265 143.679,126.709 143.609 L 128.490 143.590 128.490 144.572 M300.403 171.487 C 245.741 260.556,140.390 334.870,68.376 335.157 L 61.396 335.185 67.379 338.226 C 90.440 349.946,113.135 357.979,136.467 362.680 C 139.679 363.328,142.615 363.931,142.991 364.022 C 143.380 364.115,143.604 364.071,143.511 363.921 C 143.421 363.775,144.486 363.364,145.877 363.008 C 157.867 359.936,181.391 350.291,183.044 347.768 C 183.660 346.827,184.602 342.346,184.610 340.313 C 184.652 330.188,190.829 318.146,197.863 314.479 C 203.850 311.357,207.337 312.294,208.396 317.307 C 208.818 319.300,207.040 321.730,204.632 322.452 C 197.140 324.696,196.307 334.658,203.524 335.698 C 207.525 336.274,209.117 333.666,209.117 326.532 C 209.117 314.884,212.866 303.218,218.839 296.278 C 223.887 290.412,232.335 287.148,235.058 290.010 C 238.466 293.593,236.976 297.609,231.830 298.706 C 229.847 299.129,227.545 302.579,227.545 305.128 C 227.545 308.902,230.022 311.022,234.143 310.773 C 237.435 310.574,237.662 310.348,238.096 306.838 C 240.234 289.524,247.612 274.377,256.717 268.608 C 258.802 267.287,262.883 266.839,264.667 267.735 C 268.618 269.721,267.581 276.011,263.205 276.602 C 257.309 277.400,257.464 284.472,263.416 286.202 C 268.317 287.627,273.181 283.882,275.114 277.195 C 275.601 275.508,276.227 258.661,276.028 252.564 C 275.593 239.221,276.167 233.980,278.936 226.028 C 281.712 218.053,289.515 205.624,292.539 204.360 C 294.220 203.658,297.055 203.962,297.892 204.935 C 299.832 207.191,299.485 209.603,296.687 213.302 C 292.388 218.986,289.452 224.989,287.737 231.606 C 287.163 233.820,286.311 238.462,286.478 238.462 C 286.519 238.462,287.238 237.996,288.077 237.427 C 292.054 234.727,294.372 234.065,296.488 235.025 C 300.055 236.645,299.375 241.373,295.137 244.406 C 287.939 249.558,288.463 257.942,295.955 257.489 C 303.530 257.030,305.611 252.561,306.007 235.897 C 306.347 221.590,306.919 218.039,309.841 212.094 C 314.262 203.101,324.456 198.582,328.134 203.986 C 329.831 206.479,327.587 211.082,324.663 211.106 C 323.187 211.119,319.386 213.964,319.364 215.073 C 319.359 215.323,319.167 215.776,318.937 216.080 C 317.443 218.055,320.958 222.101,323.654 221.508 C 324.590 221.303,326.221 219.615,327.011 218.033 C 330.913 210.225,331.197 200.884,327.753 193.614 C 325.309 188.454,325.308 184.266,327.749 178.610 C 327.989 178.054,323.380 175.801,314.937 172.347 C 311.814 171.069,307.838 169.422,306.101 168.686 L 302.943 167.348 300.403 171.487 M96.815 173.362 C 94.516 186.334,94.074 187.348,91.053 186.587 C 85.329 185.146,87.454 176.415,94.489 172.473 C 95.454 171.933,96.458 171.163,96.720 170.763 C 97.418 169.698,97.426 169.914,96.815 173.362 M71.225 212.424 C 71.225 212.794,71.078 213.647,70.899 214.318 C 70.636 215.300,70.664 216.039,71.042 218.097 C 71.576 221.011,71.640 223.594,71.215 225.124 C 69.904 229.844,63.750 227.026,63.727 221.694 C 63.713 218.389,64.486 217.147,68.775 213.585 C 69.495 212.986,70.163 212.182,70.260 211.796 C 70.483 210.910,71.225 211.393,71.225 212.424 M30.484 304.131 C 31.335 304.993,32.096 305.698,32.174 305.698 C 32.253 305.698,31.620 304.993,30.769 304.131 C 29.918 303.269,29.158 302.564,29.079 302.564 C 29.001 302.564,29.633 303.269,30.484 304.131 M98.789 311.034 C 98.122 311.104,97.721 311.294,97.721 311.540 C 97.721 311.905,99.091 311.669,100.997 310.975 C 101.338 310.851,100.266 310.879,98.789 311.034 M18.222 317.450 C 18.920 318.194,19.529 318.803,19.575 318.803 C 19.789 318.803,19.563 318.548,18.305 317.367 L 16.952 316.097 18.222 317.450 M66.172 316.444 C 66.605 316.509,67.246 316.507,67.597 316.440 C 67.947 316.372,67.593 316.319,66.809 316.321 C 66.026 316.323,65.739 316.378,66.172 316.444 M163.604 366.578 C 163.878 366.650,164.327 366.650,164.601 366.578 C 164.875 366.506,164.651 366.448,164.103 366.448 C 163.554 366.448,163.330 366.506,163.604 366.578 " stroke="none" fill="#fcc42c" fill-rule="evenodd"></path></g></svg>